<?xml version="1.0" encoding="UTF-8" standalone="no"?>
<svg
   viewBox="0 0 192 192"
   version="1.1"
   id="svg3"
   sodipodi:docname="a-few-quick-matches.svg"
   inkscape:version="1.4.4 (dcaf3e7d9e, 2026-05-05)"
   xml:space="preserve"
   xmlns:inkscape="http://www.inkscape.org/namespaces/inkscape"
   xmlns:sodipodi="http://sodipodi.sourceforge.net/DTD/sodipodi-0.dtd"
   xmlns="http://www.w3.org/2000/svg"
   xmlns:svg="http://www.w3.org/2000/svg"><defs
     id="defs1" /><sodipodi:namedview
     id="namedview3"
     pagecolor="#505050"
     bordercolor="#ffffff"
     borderopacity="1"
     inkscape:showpageshadow="0"
     inkscape:pageopacity="0"
     inkscape:pagecheckerboard="1"
     inkscape:deskcolor="#505050"
     inkscape:zoom="2.9941553"
     inkscape:cx="119.0653"
     inkscape:cy="103.86903"
     inkscape:window-width="1920"
     inkscape:window-height="1048"
     inkscape:window-x="0"
     inkscape:window-y="0"
     inkscape:window-maximized="1"
     inkscape:current-layer="svg3"
     showgrid="false" /><rect
     class="a"
     x="20"
     y="20"
     width="152"
     height="152"
     rx="10"
     id="rect1"
     style="opacity:1;stroke:none;fill:#54688c"
     inkscape:label="base" /><circle
     style="display:inline;fill:#98dc9a;stroke:none;stroke-width:43.75;stroke-linecap:round;stroke-linejoin:bevel;stroke-dasharray:none;stroke-dashoffset:16.6"
     id="path2"
     cx="119.02583"
     cy="81.948334"
     r="24.797047"
     inkscape:label="head" /><path
     style="display:inline;fill:none;stroke:#98dc9a;stroke-width:20;stroke-linecap:round;stroke-linejoin:round;stroke-dasharray:none;stroke-dashoffset:16.6;stroke-opacity:1"
     d="M 32.826568,76.280442 118.5535,112.64945 c 17.23292,8.17182 35.79982,15.68271 42.98155,12.28043 l -13.22509,-8.97416"
     id="path3"
     sodipodi:nodetypes="cccc"
     inkscape:label="arms" /><path
     id="path4"
     style="baseline-shift:baseline;display:inline;overflow:visible;vector-effect:none;fill:#98dc9a;stroke-linecap:round;stroke-linejoin:round;stroke-dashoffset:16.6;enable-background:accumulate;stop-color:#000000;stop-opacity:1;opacity:1"
     d="M 116.76953 105.24023 A 10 10 0 0 0 106.72266 112.11328 L 95.697266 145.80078 L 69.396484 165.10938 A 10.001 10.001 0 0 0 65.384766 172 L 125.99023 172 A 10.001 10.001 0 0 0 125.57422 170.0957 L 117.23633 144.29102 L 125.73047 118.33398 A 10 10 0 0 0 119.33594 105.7207 A 10 10 0 0 0 116.76953 105.24023 z "
     inkscape:label="body" /><path
     style="fill:none;stroke:#ffffff;stroke-width:5;stroke-linecap:round;stroke-linejoin:round;stroke-dasharray:none;stroke-dashoffset:16.6;stroke-opacity:1"
     d="M 80.05904,153.50553 144.2952,117.84502 128.94465,46.05166"
     id="path5"
     inkscape:label="rod" /><path
     style="display:inline;fill:none;stroke:#71a372;stroke-width:20;stroke-linecap:round;stroke-linejoin:bevel;stroke-dasharray:none;stroke-dashoffset:16.6"
     d="M 128.24986,42.081986 C 91.195613,37.77615 47.289952,55.574094 41.194639,83.992063 c -6.095313,28.417967 33.61778,78.324167 33.61778,78.324167"
     id="path1"
     sodipodi:nodetypes="czc"
     inkscape:label="bow" /><path
     style="fill:none;stroke:#ffffff;stroke-width:5;stroke-linecap:round;stroke-linejoin:round;stroke-dasharray:none;stroke-dashoffset:16.6;stroke-opacity:1"
     d="m 154.36076,105.87338 v 0 c 0,0 -13.2259,1.70287 -15.35056,7.20295 -2.12466,5.50008 7.08487,17.00369 7.08487,17.00369"
     id="path6"
     sodipodi:nodetypes="cczc"
     inkscape:label="arrow tail" /><path
     style="fill:none;stroke:#ffffff;stroke-width:5;stroke-linecap:round;stroke-linejoin:round;stroke-dasharray:none;stroke-dashoffset:16.6;stroke-opacity:1"
     d="m 140.13874,100.5449 v 0 c 0.0736,-0.735904 -12.3304,-1.991884 -15.35056,7.20295 -3.02016,9.19483 7.08487,17.00369 7.08487,17.00369"
     id="path6-5"
     sodipodi:nodetypes="cczc"
     inkscape:label="arrow tail" /><path
     style="fill:none;stroke:#ffffff;stroke-width:5;stroke-linecap:round;stroke-linejoin:round;stroke-dasharray:none;stroke-dashoffset:16.6;stroke-opacity:1"
     d="M 139.43833,114.38952 40.412065,74.311443"
     id="path7"
     inkscape:label="arrow body" /><path
     style="fill:#ffffff;stroke:#ffffff;stroke-width:5;stroke-linecap:round;stroke-linejoin:round;stroke-dasharray:none;stroke-dashoffset:16.6;stroke-opacity:1"
     d="M 23.879857,68.299731 42.749954,86.167875 C 40.726888,77.642767 41.39176,70.312297 53.27045,67.965747 Z"
     id="path8"
     sodipodi:nodetypes="cccc"
     inkscape:label="arrow head" /></svg>
