<?xml version="1.0" encoding="UTF-8" standalone="no"?>
<svg
   viewBox="0 0 192 192"
   version="1.1"
   id="svg3"
   sodipodi:docname="deltarune.svg"
   inkscape:version="1.4.4 (dcaf3e7d9e, 2026-05-05)"
   xml:space="preserve"
   xmlns:inkscape="http://www.inkscape.org/namespaces/inkscape"
   xmlns:sodipodi="http://sodipodi.sourceforge.net/DTD/sodipodi-0.dtd"
   xmlns="http://www.w3.org/2000/svg"
   xmlns:svg="http://www.w3.org/2000/svg"><defs
     id="defs1"><inkscape:path-effect
       effect="mirror_symmetry"
       start_point="96,0"
       end_point="96,192"
       center_point="96,96"
       id="path-effect7"
       is_visible="true"
       lpeversion="1.2"
       lpesatellites=""
       mode="vertical"
       discard_orig_path="false"
       fuse_paths="false"
       oposite_fuse="false"
       split_items="false"
       split_open="false"
       link_styles="false" /><inkscape:path-effect
       effect="mirror_symmetry"
       start_point="96,0"
       end_point="96,192"
       center_point="96,96"
       id="path-effect4"
       is_visible="true"
       lpeversion="1.2"
       lpesatellites=""
       mode="vertical"
       discard_orig_path="false"
       fuse_paths="false"
       oposite_fuse="false"
       split_items="false"
       split_open="false"
       link_styles="false" /><inkscape:path-effect
       effect="mirror_symmetry"
       start_point="96,0"
       end_point="96,192"
       center_point="96,96"
       id="path-effect1"
       is_visible="true"
       lpeversion="1.2"
       lpesatellites=""
       mode="vertical"
       discard_orig_path="false"
       fuse_paths="false"
       oposite_fuse="false"
       split_items="false"
       split_open="false"
       link_styles="false" /></defs><sodipodi:namedview
     id="namedview3"
     pagecolor="#505050"
     bordercolor="#ffffff"
     borderopacity="1"
     inkscape:showpageshadow="0"
     inkscape:pageopacity="0"
     inkscape:pagecheckerboard="1"
     inkscape:deskcolor="#505050"
     inkscape:zoom="4.234375"
     inkscape:cx="95.999999"
     inkscape:cy="99.660516"
     inkscape:window-width="1920"
     inkscape:window-height="1048"
     inkscape:window-x="0"
     inkscape:window-y="0"
     inkscape:window-maximized="1"
     inkscape:current-layer="svg3"
     showgrid="false" /><path
     id="path1"
     style="display:inline;opacity:1;fill:#ffffff;stroke:#56595b;stroke-width:4.19381;stroke-linecap:round;stroke-linejoin:round;stroke-dashoffset:16.6"
     d="M 9.5293213,69.782987 C 9.5293213,110.90835 65.694832,152.0738 96,182.37897 126.30516,152.0738 182.47068,110.90835 182.47068,69.782987 182.47068,28.657628 131.9033,3.9174401 96,41.683651 60.377621,4.2129327 9.5293213,28.360229 9.5293213,69.782987 Z"
     sodipodi:nodetypes="scscs"
     inkscape:label="DELTARUNE" /><path
     id="path2"
     style="display:inline;opacity:1;fill:#56595b;stroke:none;stroke-width:3.63468;stroke-linecap:round;stroke-linejoin:round;stroke-dashoffset:16.6"
     d="M 18.223925,71.339104 C 18.223925,106.9815 69.735215,145.49259 96,171.75737 122.26478,145.49259 174.95689,105.56453 174.95689,69.92213 174.95689,34.279737 127.11655,17.088914 96,49.820011 65.126913,17.345011 18.223925,32.368852 18.223925,71.339104 Z"
     sodipodi:nodetypes="scscs"
     inkscape:label="MY" /><circle
     style="opacity:1;fill:#ffffff;stroke:none;stroke-width:5;stroke-linecap:round;stroke-linejoin:round;stroke-dasharray:none;stroke-dashoffset:16.6"
     id="path3"
     cx="95.853416"
     cy="86.835846"
     r="13.526353"
     inkscape:label="angel" /><path
     id="path4"
     style="opacity:1;fill:#ffffff;stroke:none;stroke-width:5;stroke-linecap:round;stroke-linejoin:round;stroke-dasharray:none;stroke-dashoffset:16.6"
     d="M 31.882812 51.601562 C 30.178154 56.606628 30.839752 60.960664 35.423828 64.236328 C 34.657536 66.416204 29.6832 65.744625 26.595703 64.095703 C 27.670654 71.50234 36.359107 74.978559 45.816406 77.107422 C 45.632154 80.065183 42.26572 79.31591 38.849609 79.349609 C 41.124962 84.78404 64.826117 83.09591 74.746094 95.410156 C 81.743948 79.369621 68.97868 64.530229 58.574219 61.761719 C 45.41876 58.261199 37.945374 55.656215 31.882812 51.601562 z M 160.11719 51.601562 C 154.05463 55.656215 146.58124 58.261199 133.42578 61.761719 C 123.02132 64.530229 110.25605 79.369621 117.25391 95.410156 C 127.17388 83.09591 150.87504 84.78404 153.15039 79.349609 C 149.73428 79.31591 146.36785 80.065183 146.18359 77.107422 C 155.64089 74.978559 164.32935 71.50234 165.4043 64.095703 C 162.3168 65.744625 157.34246 66.416204 156.57617 64.236328 C 161.16025 60.960664 161.82185 56.606628 160.11719 51.601562 z "
     inkscape:label="the angel" /><path
     id="path6"
     style="opacity:1;fill:#ffffff;stroke:none;stroke-width:5;stroke-linecap:round;stroke-linejoin:round;stroke-dasharray:none;stroke-dashoffset:16.6"
     d="M 71.179688 104.57812 L 57.695312 118.56445 L 85.166016 118.56445 L 71.179688 104.57812 z M 120.82031 104.57812 L 106.83398 118.56445 L 134.30469 118.56445 L 120.82031 104.57812 z M 78.236328 130.50391 L 96.019531 148.12109 L 113.63867 130.50391 L 78.236328 130.50391 z "
     inkscape:label="the heroes" /></svg>
