<?xml version="1.0" encoding="UTF-8" standalone="no"?>
<svg
   viewBox="0 0 192 192"
   version="1.1"
   id="svg3"
   sodipodi:docname="die-in-the-dungeon.svg"
   inkscape:version="1.4.4 (dcaf3e7d9e, 2026-05-05)"
   xml:space="preserve"
   xmlns:inkscape="http://www.inkscape.org/namespaces/inkscape"
   xmlns:sodipodi="http://sodipodi.sourceforge.net/DTD/sodipodi-0.dtd"
   xmlns="http://www.w3.org/2000/svg"
   xmlns:svg="http://www.w3.org/2000/svg"><defs
     id="defs1"><inkscape:path-effect
       effect="fillet_chamfer"
       id="path-effect8"
       is_visible="true"
       lpeversion="1"
       nodesatellites_param="F,0,1,1,0,1.5877903,0,1 @ F,0,1,1,0,1.5877903,0,1 @ F,0,1,1,0,1.5877903,0,1 @ F,0,1,1,0,1.5877903,0,1 @ F,0,1,1,0,1.5877903,0,1 @ F,0,1,1,0,1.5877903,0,1 @ F,0,1,1,0,1.5877903,0,1 @ F,0,1,1,0,1.5877903,0,1 @ F,0,1,1,0,1.5877903,0,1 @ F,0,1,1,0,1.5877903,0,1 @ F,0,1,1,0,1.5877903,0,1 @ F,0,1,1,0,1.5877903,0,1 @ F,0,1,1,0,1.5877903,0,1 @ F,0,1,1,0,1.5877903,0,1 @ F,0,1,1,0,1.5877903,0,1 @ F,0,1,1,0,1.5877903,0,1 @ F,0,1,1,0,1.5877903,0,1 @ F,0,1,1,0,1.5877903,0,1 @ F,0,1,1,0,1.5877903,0,1 @ F,0,1,1,0,1.5877903,0,1 @ F,0,0,1,0,1.5877903,0,1 @ F,0,1,1,0,1.5877903,0,1 @ F,0,1,1,0,1.5877903,0,1 @ F,0,1,1,0,1.5877903,0,1 @ F,0,1,1,0,1.5877903,0,1 @ F,0,1,1,0,1.5877903,0,1 @ F,0,1,1,0,1.5877903,0,1 @ F,0,1,1,0,1.5877903,0,1 @ F,0,1,1,0,1.5877903,0,1 @ F,0,1,1,0,1.5877903,0,1 @ F,0,1,1,0,1.5877903,0,1 @ F,0,1,1,0,1.5877903,0,1"
       radius="0"
       unit="px"
       method="auto"
       mode="F"
       chamfer_steps="1"
       flexible="false"
       use_knot_distance="true"
       apply_no_radius="true"
       apply_with_radius="true"
       only_selected="false"
       hide_knots="false" /><inkscape:path-effect
       effect="fillet_chamfer"
       id="path-effect7"
       is_visible="true"
       lpeversion="1"
       nodesatellites_param="F,0,1,1,0,1.4594693,0,1 @ F,0,1,1,0,1.4594693,0,1 @ F,0,1,1,0,1.4594693,0,1 @ F,0,1,1,0,1.4594693,0,1 @ F,0,1,1,0,1.4594693,0,1 @ F,0,1,1,0,1.4594693,0,1 @ F,0,1,1,0,1.4594693,0,1 @ F,0,1,1,0,1.4594693,0,1 @ F,0,1,1,0,1.4594693,0,1 @ F,0,1,1,0,1.4594693,0,1 @ F,0,1,1,0,1.4594693,0,1 @ F,0,1,1,0,1.4594693,0,1 @ F,0,1,1,0,1.4594693,0,1 @ F,0,1,1,0,1.4594693,0,1 @ F,0,1,1,0,1.4594693,0,1 @ F,0,1,1,0,1.4594693,0,1 @ F,0,1,1,0,1.4594693,0,1 @ F,0,1,1,0,1.4594693,0,1 @ F,0,1,1,0,1.4594693,0,1 @ F,0,1,1,0,1.4594693,0,1 @ F,0,1,1,0,1.4594693,0,1 @ F,0,1,1,0,1.4594693,0,1 @ F,0,1,1,0,1.4594693,0,1 @ F,0,1,1,0,1.4594693,0,1 @ F,0,1,1,0,1.4594693,0,1 @ F,0,1,1,0,1.4594693,0,1 @ F,0,1,1,0,1.4594693,0,1 @ F,0,1,1,0,1.4594693,0,1 @ F,0,1,1,0,1.4594693,0,1 @ F,0,1,1,0,1.4594693,0,1 @ F,0,1,1,0,1.4594693,0,1 @ F,0,0,1,0,1.4594693,0,1"
       radius="0"
       unit="px"
       method="auto"
       mode="F"
       chamfer_steps="1"
       flexible="false"
       use_knot_distance="true"
       apply_no_radius="true"
       apply_with_radius="true"
       only_selected="false"
       hide_knots="false" /><inkscape:path-effect
       effect="fillet_chamfer"
       id="path-effect3"
       is_visible="true"
       lpeversion="1"
       nodesatellites_param="F,0,0,1,0,1.5920517,0,1 @ F,0,0,1,0,1.5920517,0,1 @ F,0,0,1,0,1.5920517,0,1 @ F,0,0,1,0,1.5920517,0,1 @ F,0,0,1,0,1.5920517,0,1 @ F,0,0,1,0,1.5920517,0,1 @ F,0,0,1,0,1.5920517,0,1 @ F,0,0,1,0,1.5920517,0,1 @ F,0,0,1,0,1.5920517,0,1 @ F,0,0,1,0,1.5920517,0,1 @ F,0,0,1,0,1.5920517,0,1 @ F,0,0,1,0,1.5920517,0,1 @ F,0,0,1,0,1.5920517,0,1 @ F,0,0,1,0,1.5920517,0,1 @ F,0,0,1,0,1.5920517,0,1 @ F,0,0,1,0,1.5920517,0,1 @ F,0,0,1,0,1.5920517,0,1 @ F,0,0,1,0,1.5920517,0,1 @ F,0,0,1,0,1.5920517,0,1 @ F,0,0,1,0,1.5920517,0,1 @ F,0,0,1,0,1.5920517,0,1 @ F,0,0,1,0,1.5920517,0,1 @ F,0,0,1,0,1.5920517,0,1 @ F,0,1,1,0,0.68607114,0,1 @ F,0,0,1,0,1.5920517,0,1 @ F,0,0,1,0,1.5920517,0,1 @ F,0,0,1,0,1.5920517,0,1 @ F,0,0,1,0,1.5920517,0,1 @ F,0,0,1,0,1.5920517,0,1 @ F,0,0,1,0,1.5920517,0,1 @ F,0,0,1,0,1.5920517,0,1"
       radius="0"
       unit="px"
       method="auto"
       mode="F"
       chamfer_steps="1"
       flexible="false"
       use_knot_distance="true"
       apply_no_radius="true"
       apply_with_radius="true"
       only_selected="false"
       hide_knots="false" /><inkscape:path-effect
       effect="fillet_chamfer"
       id="path-effect2"
       is_visible="true"
       lpeversion="1"
       nodesatellites_param="F,0,0,1,0,0,0,1 @ F,0,0,1,0,0,0,1 @ F,0,0,1,0,0,0,1 @ F,0,0,1,0,0,0,1 @ F,0,0,1,0,0,0,1 @ F,0,0,1,0,0,0,1 @ F,0,0,1,0,0,0,1 @ F,0,0,1,0,0,0,1 @ F,0,0,1,0,0,0,1 @ F,0,0,1,0,0,0,1 @ F,0,0,1,0,0,0,1 @ F,0,0,1,0,0,0,1 @ F,0,0,1,0,0,0,1 @ F,0,0,1,0,0,0,1 @ F,0,0,1,0,0,0,1 @ F,0,0,1,0,0,0,1 @ F,0,0,1,0,0,0,1 @ F,0,0,1,0,0,0,1 @ F,0,0,1,0,0,0,1 @ F,0,0,1,0,0,0,1 @ F,0,0,1,0,0,0,1 @ F,0,0,1,0,0,0,1 @ F,0,0,1,0,0,0,1 @ F,0,0,1,0,0,0,1 @ F,0,0,1,0,0,0,1 @ F,0,0,1,0,0,0,1 @ F,0,0,1,0,0,0,1 @ F,0,0,1,0,0,0,1 @ F,0,0,1,0,0,0,1 @ F,0,0,1,0,0,0,1 @ F,0,0,1,0,0,0,1 @ F,0,0,1,0,0,0,1"
       radius="0"
       unit="px"
       method="auto"
       mode="F"
       chamfer_steps="1"
       flexible="false"
       use_knot_distance="true"
       apply_no_radius="true"
       apply_with_radius="true"
       only_selected="false"
       hide_knots="false" /><inkscape:path-effect
       effect="fillet_chamfer"
       id="path-effect1"
       is_visible="true"
       lpeversion="1"
       nodesatellites_param="F,0,0,1,0,1.8676757,0,1 @ F,0,1,1,0,1.8676757,0,1 @ F,0,1,1,0,1.8676757,0,1 @ F,0,1,1,0,1.8676757,0,1 @ F,0,1,1,0,1.8676757,0,1 @ F,0,1,1,0,1.8676757,0,1 @ F,0,1,1,0,1.8676757,0,1 @ F,0,1,1,0,1.8676757,0,1 @ F,0,1,1,0,1.8676757,0,1 @ F,0,1,1,0,1.8676757,0,1 @ F,0,1,1,0,1.8676757,0,1 @ F,0,1,1,0,1.8676757,0,1 @ F,0,1,1,0,1.8676757,0,1 @ F,0,1,1,0,1.8676757,0,1 @ F,0,1,1,0,1.8676757,0,1 @ F,0,1,1,0,1.8676757,0,1 @ F,0,1,1,0,1.8676757,0,1 @ F,0,1,1,0,1.8676757,0,1 @ F,0,1,1,0,1.8676757,0,1 @ F,0,1,1,0,1.8676757,0,1 @ F,0,1,1,0,1.8676757,0,1 @ F,0,1,1,0,1.8676757,0,1 @ F,0,1,1,0,1.8676757,0,1 @ F,0,1,1,0,1.8676757,0,1 @ F,0,1,1,0,1.8676757,0,1 @ F,0,1,1,0,1.8676757,0,1 @ F,0,1,1,0,1.8676757,0,1 @ F,0,1,1,0,1.8676757,0,1 @ F,0,1,1,0,1.8676757,0,1 @ F,0,1,1,0,1.8676757,0,1 @ F,0,1,1,0,1.8676757,0,1 @ F,0,1,1,0,1.8676757,0,1 @ F,0,1,1,0,1.8676757,0,1 @ F,0,1,1,0,1.8676757,0,1 @ F,0,1,1,0,1.8676757,0,1 @ F,0,1,1,0,1.8676757,0,1"
       radius="0"
       unit="px"
       method="auto"
       mode="F"
       chamfer_steps="1"
       flexible="false"
       use_knot_distance="true"
       apply_no_radius="true"
       apply_with_radius="true"
       only_selected="false"
       hide_knots="false" /></defs><sodipodi:namedview
     id="namedview3"
     pagecolor="#505050"
     bordercolor="#ffffff"
     borderopacity="1"
     inkscape:showpageshadow="0"
     inkscape:pageopacity="0"
     inkscape:pagecheckerboard="1"
     inkscape:deskcolor="#505050"
     inkscape:zoom="4"
     inkscape:cx="77"
     inkscape:cy="80.875"
     inkscape:window-width="1920"
     inkscape:window-height="1048"
     inkscape:window-x="0"
     inkscape:window-y="0"
     inkscape:window-maximized="1"
     inkscape:current-layer="svg3"
     showgrid="false" /><path
     style="display:inline;fill:#56595b;stroke:none;stroke-width:5;stroke-linecap:round;stroke-linejoin:round;stroke-dashoffset:16.6"
     d="M 34.694676,157.40221 H 128.1397 a 1.8676757,1.8676757 135 0 0 1.86768,-1.86768 v -2.52294 a 1.8676757,1.8676757 135 0 1 1.86768,-1.86768 h 2.1687 a 1.8676757,1.8676757 135 0 0 1.86768,-1.86768 v -1.93254 a 1.8676757,1.8676757 135 0 1 1.86768,-1.86768 l 14.44914,0 a 1.8676757,1.8676757 135 0 0 1.86768,-1.86768 v -3.11365 a 1.8676757,1.8676757 135 0 1 1.86768,-1.86768 h 7.3647 a 1.8676757,1.8676757 135 0 0 1.86768,-1.86768 l 0,-7.83629 a 1.8676757,1.8676757 135 0 1 1.86768,-1.86768 h 3.29004 a 1.8676757,1.8676757 135 0 0 1.86768,-1.86768 v -2.22774 a 1.8676757,1.8676757 135 0 1 1.86768,-1.86768 h 2.34582 a 1.8676757,1.8676757 135 0 0 1.86768,-1.86768 V 79.860295 a 1.8676757,1.8676757 45 0 0 -1.86768,-1.867676 h -2.28678 a 1.8676757,1.8676757 45 0 1 -1.86768,-1.867676 v -8.190847 a 1.8676757,1.8676757 45 0 0 -1.86768,-1.867676 h -14.50818 a 1.8676757,1.8676757 45 0 1 -1.86768,-1.867676 v -8.190847 a 1.8676757,1.8676757 45 0 0 -1.86768,-1.867676 h -1.99158 a 1.8676757,1.8676757 45 0 1 -1.86768,-1.867676 v -8.722212 a 1.8676757,1.8676757 45 0 0 -1.86768,-1.867676 h -8.48604 a 1.8676757,1.8676757 45 0 1 -1.86768,-1.867676 v -2.109667 a 1.8676757,1.8676757 45 0 0 -1.86768,-1.867676 h -27.20191 a 1.8676757,1.8676757 135 0 0 -1.86768,1.867676 v 2.522951 a 1.8676757,1.8676757 135 0 1 -1.86768,1.867676 h -8.072761 a 1.8676757,1.8676757 135 0 0 -1.867676,1.867676 v 8.367969 a 1.8676757,1.8676757 135 0 1 -1.867676,1.867676 H 65.27727 a 1.8676757,1.8676757 45 0 1 -1.867676,-1.867676 v -8.308929 a 1.8676757,1.8676757 45 0 0 -1.867676,-1.867676 h -2.40487 a 1.8676757,1.8676757 45 0 1 -1.867676,-1.867676 l 0,-2.404869 A 1.8676757,1.8676757 45 0 0 55.401696,36.01476 l -33.105976,0 a 1.8676757,1.8676757 135 0 0 -1.867676,1.867676 v 2.345829 a 1.8676757,1.8676757 135 0 1 -1.867676,1.867676 h -2.168707 a 1.8676757,1.8676757 135 0 0 -1.867676,1.867676 v 99.762793 a 1.8676757,1.8676757 45 0 0 1.867676,1.86768 h 2.168707 a 1.8676757,1.8676757 45 0 1 1.867676,1.86768 v 2.34583 a 1.8676757,1.8676757 45 0 0 1.867676,1.86768 h 8.663604 a 1.8676757,1.8676757 45 0 1 1.867676,1.86768 v 1.99157 a 1.8676757,1.8676757 45 0 0 1.867676,1.86768 z"
     id="path1"
     sodipodi:nodetypes="ccccccccccccccccccccccccccccccccccccc"
     inkscape:path-effect="#path-effect1"
     inkscape:original-d="m 32.827,157.40221 h 97.18038 v -6.2583 h 5.90406 v -5.6679 h 18.1845 V 138.627 H 165.196 v -11.57165 h 7.0254 v -5.9631 h 6.08118 V 77.992619 h -6.02214 V 66.06642 H 154.0369 V 54.140221 h -5.72694 V 41.682657 h -12.2214 v -5.845019 h -30.93727 v 6.258303 H 93.343173 V 54.199262 H 63.409594 V 42.154981 H 57.269372 V 36.01476 H 20.428044 v 6.081181 H 14.523985 V 145.59409 h 5.904059 v 6.08119 H 32.827 Z" /><path
     style="display:inline;fill:#71a372;stroke:none;stroke-width:5;stroke-linecap:round;stroke-linejoin:round;stroke-dashoffset:16.6"
     d="m 117.491,146.72221 v -6.38903 a 1.5984389,1.5984389 134.80851 0 1 1.58775,-1.5984 l 14.53645,-0.0972 a 1.5984389,1.5984389 134.80851 0 0 1.58775,-1.5984 v -3.31858 a 1.5877903,1.5877903 135 0 1 1.58779,-1.58779 h 14.65468 a 1.5877903,1.5877903 135 0 0 1.58779,-1.58779 v -2.13807 a 1.5877903,1.5877903 135 0 1 1.58779,-1.58779 h 3.2008 a 1.5877903,1.5877903 135 0 0 1.58779,-1.58779 v -9.22295 a 1.5877903,1.5877903 135 0 1 1.58779,-1.58779 h 2.6104 a 1.5877903,1.5877903 135 0 0 1.58779,-1.58779 V 81.528749 a 1.5877903,1.5877903 45 0 0 -1.58779,-1.58779 h -9.10486 a 1.5877903,1.5877903 45 0 1 -1.58779,-1.58779 v -2.964642 a 1.5877903,1.5877903 45 0 0 -1.58779,-1.58779 h -9.10486 a 1.5877903,1.5877903 45 0 1 -1.58779,-1.58779 l 0,-15.008921 a 1.5877903,1.5877903 45 0 0 -1.58779,-1.58779 h -4.14546 a 1.5877903,1.5877903 45 0 1 -1.58779,-1.58779 v -3.200804 a 1.5877903,1.5877903 45 0 0 -1.58779,-1.58779 h -16.89822 a 1.5877903,1.5877903 135 0 0 -1.58779,1.58779 v 2.84656 a 1.5877903,1.5877903 135 0 1 -1.58779,1.58779 h -3.2008 a 1.5877903,1.5877903 135 0 0 -1.58779,1.58779 l 0,2.728479 a 1.5877903,1.5877903 135 0 1 -1.58779,1.58779 H 70.192956 a 1.5877903,1.5877903 45 0 1 -1.58779,-1.58779 V 56.61362 a 1.5877903,1.5877903 45 0 0 -1.58779,-1.58779 H 57.67635 a 1.5877903,1.5877903 45 0 1 -1.58779,-1.58779 v -2.728479 a 1.5877903,1.5877903 45 0 0 -1.58779,-1.58779 H 35.477089 a 1.5877903,1.5877903 135 0 0 -1.58779,1.58779 v 4.735859 a 1.5877903,1.5877903 135 0 1 -1.58779,1.58779 h -3.200804 a 1.5877903,1.5877903 135 0 0 -1.58779,1.58779 v 72.63254 a 1.5877903,1.5877903 45 0 0 1.58779,1.58779 h 2.492317 a 1.5877903,1.5877903 45 0 1 1.58779,1.58779 v 2.01999 a 1.5877903,1.5877903 45 0 0 1.58779,1.58779 h 3.082608 a 1.5877903,1.5877903 45 0 1 1.58779,1.58779 l 0,7.09749 a 1.5877909,1.5877909 45.000011 0 0 1.58779,1.58779 l 74.87642,3e-5 a 1.5877897,1.5877897 135.00001 0 0 1.58779,-1.58779 z"
     id="path6"
     sodipodi:nodetypes="ccccccccccccccccccccccccccccccccc"
     inkscape:path-effect="#path-effect8"
     inkscape:original-d="m 117.491,148.31 v -9.56461 l 17.71195,-0.11839 v -6.49416 h 17.83026 v -5.31365 h 6.37638 v -12.39853 h 5.78598 V 79.940959 H 152.91513 V 73.800737 H 140.63469 V 55.616236 h -7.32104 v -6.376384 h -20.0738 v 6.02214 h -6.37638 v 5.904059 H 68.605166 V 55.02583 H 56.08856 V 49.121771 H 33.889299 v 7.911439 h -6.376384 v 75.80812 h 5.667897 v 5.19557 H 39.439 v 10.27307 z" /><path
     style="display:inline;opacity:1;fill:#98dc9a;stroke:none;stroke-width:5;stroke-linecap:round;stroke-linejoin:round;stroke-dashoffset:16.6"
     d="m 117.49097,142.68493 -1.7e-4,-8.97826 c -2e-5,-0.87926 0.71277,-1.59114 1.59205,-1.59005 3.0546,0.004 9.84926,0.0119 14.52808,0.0152 0.87925,6.3e-4 2.30481,0.001 3.18407,0.002 4.71579,0.001 11.57407,3.4e-4 14.64616,-2.8e-4 0.87926,-1.8e-4 1.59205,-0.71314 1.59205,-1.5924 v -2.12955 a 1.5920517,1.5920517 135 0 1 1.59205,-1.59205 h 3.19228 a 1.5920517,1.5920517 135 0 0 1.59205,-1.59205 v -9.21443 a 1.5920517,1.5920517 135 0 1 1.59205,-1.59205 h 2.60231 a 1.5920318,1.5920318 134.99964 0 0 1.59203,-1.59205 l -3.9e-4,-31.295579 a 1.5920716,1.5920716 44.999643 0 0 -1.59207,-1.592052 h -9.09634 a 1.5920517,1.5920517 45 0 1 -1.59205,-1.592052 v -2.956118 a 1.5920176,1.5920176 44.999386 0 0 -1.59205,-1.592018 l -9.09634,1.95e-4 a 1.5920176,1.5920176 44.999386 0 1 -1.59205,-1.592018 V 63.58417 a 1.592103,1.592103 45.000923 0 0 -1.59205,-1.592103 l -4.13694,-1.34e-4 a 1.592103,1.592103 45.000923 0 1 -1.59205,-1.592103 v -3.191896 a 1.6203661,1.6203661 45.504994 0 0 -1.5918,-1.620115 l -16.8902,-0.297764 a 180.62681,180.62681 0.50499415 0 0 -3.18385,-0.02806 h -3.19228 a 1.5921784,1.5921784 135.00228 0 0 -1.59218,1.592052 l -2.1e-4,2.719955 a 39998.158,39998.158 90.002281 0 0 -1.3e-4,3.184104 v 9.450845 A 1.5920517,1.5920517 135 0 1 105.27095,73.801 H 79.762052 A 1.5920517,1.5920517 45 0 1 78.17,72.208948 l 0,-9.450896 A 1.5920517,1.5920517 45 0 0 76.577948,61.166 h -6.380896 a 1.5920087,1.5920087 45.000775 0 1 -1.592009,-1.592052 l 8e-5,-2.955896 c 2.4e-5,-0.879266 -0.712743,-1.592023 -1.592009,-1.592392 -10.843591,-0.0045 -20.370697,-0.05236 -32.437841,-0.0026 -0.378853,0.0016 -0.685974,0.310088 -0.685974,0.688994 l 0,18.856877 A 1.5920517,1.5920517 135 0 1 32.297247,76.161 h -3.19228 a 1.5920517,1.5920517 135 0 0 -1.592052,1.592052 l 0,46.983538 a 1.5920517,1.5920517 45 0 0 1.592052,1.59205 h 2.483793 a 1.5920517,1.5920517 45 0 1 1.592052,1.59205 v 2.01147 a 1.5920517,1.5920517 45 0 0 1.592052,1.59205 h 3.074198 a 1.5920517,1.5920517 45 0 1 1.592052,1.59205 v 9.56867 a 1.5920517,1.5920517 45 0 0 1.592052,1.59205 h 74.867784 a 1.5920216,1.5920216 134.99946 0 0 1.59202,-1.59205 z"
     id="path2"
     sodipodi:nodetypes="ccsccccccccccccccccccccccccccccc"
     inkscape:path-effect="#path-effect3"
     inkscape:original-d="m 117.491,144.27698 -2.3e-4,-12.16236 c 0,0 11.80812,0.0152 17.71218,0.0182 5.94342,0.003 17.83026,0 17.83026,0 v -5.31365 h 6.37638 v -12.39853 h 5.78641 l -4.3e-4,-34.479681 H 152.91513 V 73.800737 L 140.63469,73.801 V 61.992118 l -7.32104,-2.36e-4 v -6.376 l -20.0738,-0.35389 h -6.37638 l -4.7e-4,5.904059 V 73.801 H 78.17 V 61.166 h -9.565 l 1.66e-4,-6.14 c -11.722116,0 -21.730228,-0.05712 -34.715867,0 v 21.135 h -6.376384 v 50.16764 h 5.667897 v 5.19557 h 6.258302 v 12.75277 z" /><rect
     style="fill:#56595b;stroke:none;stroke-width:5.20212;stroke-linecap:round;stroke-linejoin:round;stroke-dashoffset:16.6"
     id="rect4"
     width="37"
     height="7"
     x="111"
     y="90"
     rx="0"
     ry="2.3422911" /><rect
     style="fill:#56595b;stroke:none;stroke-width:4.92709;stroke-linecap:round;stroke-linejoin:round;stroke-dashoffset:16.6"
     id="rect5"
     width="13"
     height="13"
     x="117"
     y="66"
     ry="2.75" /><rect
     style="fill:#56595b;stroke:none;stroke-width:4.92709;stroke-linecap:round;stroke-linejoin:round;stroke-dashoffset:16.6"
     id="rect5-2"
     width="13"
     height="13"
     x="44"
     y="66"
     ry="2.75" /></svg>
