<?xml version="1.0" encoding="UTF-8" standalone="no"?>
<svg
   viewBox="0 0 192 192"
   version="1.1"
   id="svg3"
   sodipodi:docname="doom.svg"
   inkscape:version="1.4.4 (dcaf3e7d9e, 2026-05-05)"
   xmlns:inkscape="http://www.inkscape.org/namespaces/inkscape"
   xmlns:sodipodi="http://sodipodi.sourceforge.net/DTD/sodipodi-0.dtd"
   xmlns="http://www.w3.org/2000/svg"
   xmlns:svg="http://www.w3.org/2000/svg">
  <defs
     id="defs1">
    <clipPath
       clipPathUnits="userSpaceOnUse"
       id="clipPath2">
      <path
         id="path3"
         d="m 163.47835,131.12238 -0.0312,-31.370349 -5.01569,17.525449 -5.0092,-17.445481 -0.0303,23.813211 -16.35506,-12.26646 1.23972,-0.92947 -0.0567,-61.058239 15.54555,0.04048 4.65993,16.32307 4.66674,-16.344971 22.9981,0.07473 -7.54662,5.638853 -0.0133,87.347707 z M 13.545611,55.108779 5.9098118,49.389084 l 43.0395642,0.05835 4.926057,3.763108 0.0041,57.218328 1.304991,0.94522 -41.628995,31.23682 z m 25.259431,44.639528 -0.01641,-33.021511 -1.153759,-0.942139 -8.949796,0.04331 -0.0196,41.524233 z m 16.344709,8.878303 -0.0077,-55.42202 5.048615,-3.783413 30.212074,-0.0017 5.038615,3.79898 0.01856,64.131563 -14.288339,10.74644 z m 23.930639,-42.87466 -7.619905,0.05283 -1.190331,0.914529 0.01707,33.044078 10.008602,7.506843 0.02678,-40.532875 z m 17.675744,51.65814 -0.03658,-64.221057 5.032056,-3.779368 30.25203,0.02894 5.06418,3.783677 -0.0349,55.293678 -25.88327,19.56807 z m 25.166376,-17.668611 -0.003,-33.035871 -1.27336,-0.973081 -7.60792,0.02497 -1.2232,0.941902 0.0755,40.468331 z"
         style="display:inline;fill:#f8c18c;fill-opacity:1;stroke:none;stroke-width:0.10725" />
    </clipPath>
  </defs>
  <sodipodi:namedview
     id="namedview3"
     pagecolor="#505050"
     bordercolor="#ffffff"
     borderopacity="1"
     inkscape:showpageshadow="0"
     inkscape:pageopacity="0"
     inkscape:pagecheckerboard="1"
     inkscape:deskcolor="#505050"
     inkscape:zoom="2.9941553"
     inkscape:cx="51.266546"
     inkscape:cy="94.183491"
     inkscape:window-width="1920"
     inkscape:window-height="1048"
     inkscape:window-x="0"
     inkscape:window-y="0"
     inkscape:window-maximized="1"
     inkscape:current-layer="svg3"
     showgrid="false" />
  <path
     id="path3347"
     d="m 163.47832,131.12238 -0.0312,-31.370346 -5.01569,17.525446 -5.0092,-17.445478 -0.0303,23.813208 -16.35506,-12.26646 1.23972,-0.92947 -0.0567,-61.058236 15.54555,0.04048 4.65993,16.32307 4.66674,-16.344971 22.9981,0.07473 -7.54662,5.638853 -0.0133,87.347704 z M 13.545585,55.108782 5.9097859,49.389087 l 43.0395641,0.05835 4.926057,3.763108 0.0041,57.218325 1.304991,0.94522 -41.628995,31.23682 z m 25.259431,44.639528 -0.01641,-33.021511 -1.153759,-0.942139 -8.949796,0.04331 -0.0196,41.52423 z m 16.344709,8.8783 -0.0077,-55.422017 5.048615,-3.783413 30.212074,-0.0017 5.038615,3.79898 0.01856,64.13156 -14.288339,10.74644 z m 23.930639,-42.874657 -7.619905,0.05283 -1.190331,0.914529 0.01707,33.044078 10.008602,7.50684 0.02678,-40.532872 z m 17.675744,51.658137 -0.03658,-64.221054 5.032052,-3.779368 30.25203,0.02894 5.06418,3.783677 -0.0349,55.293675 -25.88327,19.56807 z m 25.166372,-17.668608 -0.003,-33.035871 -1.27336,-0.973081 -7.60792,0.02497 -1.2232,0.941902 0.0755,40.468328 z"
     style="display:inline;fill:#f8c18c;fill-opacity:1;stroke:none;stroke-width:0.10725" />
  <path
     style="fill:#979797;stroke-width:5.6;stroke-linecap:round"
     d="M 1.4169742,42.981549 H 190.81919 V 118.78967 L 137.80074,65.771217 96.014876,89.896295 54.278873,65.800003 0.29036081,119.78851 Z"
     id="path1"
     clip-path="url(#clipPath2)"
     transform="translate(-2.59e-5)" />
</svg>
