<?xml version="1.0" encoding="UTF-8" standalone="no"?>
<svg
   viewBox="0 0 192 192"
   version="1.1"
   id="svg3"
   sodipodi:docname="hitman-world-of-assassination.svg"
   inkscape:version="1.4.4 (dcaf3e7d9e, 2026-05-05)"
   xml:space="preserve"
   xmlns:inkscape="http://www.inkscape.org/namespaces/inkscape"
   xmlns:sodipodi="http://sodipodi.sourceforge.net/DTD/sodipodi-0.dtd"
   xmlns="http://www.w3.org/2000/svg"
   xmlns:svg="http://www.w3.org/2000/svg"><defs
     id="defs1"><inkscape:path-effect
       effect="mirror_symmetry"
       start_point="96,0"
       end_point="96,192"
       center_point="96,96"
       id="path-effect1"
       is_visible="true"
       lpeversion="1.2"
       lpesatellites=""
       mode="vertical"
       discard_orig_path="false"
       fuse_paths="true"
       oposite_fuse="false"
       split_items="false"
       split_open="false"
       link_styles="false" /></defs><sodipodi:namedview
     id="namedview3"
     pagecolor="#505050"
     bordercolor="#ffffff"
     borderopacity="1"
     inkscape:showpageshadow="0"
     inkscape:pageopacity="0"
     inkscape:pagecheckerboard="1"
     inkscape:deskcolor="#505050"
     inkscape:zoom="2.9941553"
     inkscape:cx="80.824131"
     inkscape:cy="70.637619"
     inkscape:window-width="1920"
     inkscape:window-height="1048"
     inkscape:window-x="0"
     inkscape:window-y="0"
     inkscape:window-maximized="1"
     inkscape:current-layer="svg3"
     showgrid="false" /><rect
     class="a"
     x="20"
     y="20"
     width="152"
     height="152"
     rx="10"
     id="rect1"
     style="opacity:1;stroke:none;fill:#ffffff"
     inkscape:label="square" /><path
     id="path1"
     style="display:inline;fill:#56595b;stroke:none;stroke-width:10;stroke-linecap:round;stroke-linejoin:round;stroke-dashoffset:16.6"
     d="m 50.441406,20 c -0.406385,4.562053 -0.04377,10.157789 0.6875,16.25 0.126073,1.050324 -0.821879,0.302327 -1.416015,-0.294922 -0.249212,-1.22573 -0.748772,-1.353845 -1.181641,-1.771484 -1.399267,-1.350036 -4.710146,0 -4.722656,2.126953 L 43.75,46.347656 46.169922,58.982422 c 1.150601,3.777107 2.184229,7.555354 4.132812,10.154297 2.87974,3.840883 3.898924,1.876223 6.140625,2.066406 0.311926,6.334636 0.509941,12.752522 2.183594,19.128906 0.367392,2.920533 0.419107,5.935314 0,9.091797 -0.947522,0.613722 -2.011648,1.910472 -3.660156,6.613282 C 37.551086,120.09084 27.688963,125.2355 20,127.81641 V 162 c 0,5.54 4.46,10 10,10 h 132 c 5.54,0 10,-4.46 10,-10 v -34.18359 c -7.68897,-2.58091 -17.55109,-7.72557 -34.9668,-21.7793 -1.6485,-4.70281 -2.71263,-5.99956 -3.66015,-6.613282 -0.41911,-3.156483 -0.3674,-6.171264 0,-9.091797 1.67365,-6.376384 1.87166,-12.79427 2.18359,-19.128906 2.2417,-0.190183 3.26089,1.774477 6.14063,-2.066406 1.94858,-2.598943 2.98221,-6.37719 4.13281,-10.154297 L 148.25,46.347656 148.19141,36.310547 c -0.0125,-2.126953 -3.32339,-3.476989 -4.72266,-2.126953 -0.43287,0.417639 -0.93243,0.545754 -1.18164,1.771484 -0.59414,0.597249 -1.54209,1.345246 -1.41602,0.294922 0.73127,-6.092211 1.09389,-11.687947 0.6875,-16.25 z"
     inkscape:label="hitman guy" /><path
     id="path6"
     style="display:inline;opacity:1;fill:#ff837d;stroke:none;stroke-width:10;stroke-linecap:round;stroke-linejoin:round;stroke-dashoffset:16.6"
     d="M 95.519531 138.09961 C 89.695502 138.04955 83.856732 140.61616 81.658203 145.86719 C 85.639375 150.13254 88.789047 154.95943 89.173828 161.64844 C 89.438738 166.34116 88.575412 169.15378 87.732422 172 L 104.14258 172 C 103.30833 169.8589 102.78915 168.67977 101.8457 163.92773 C 102.74906 157.49789 105.63696 149.26367 109.29688 146.03516 C 107.15434 140.81738 101.34356 138.14967 95.519531 138.09961 z "
     inkscape:label="tie" /><path
     id="path7"
     style="opacity:1;fill:#ba6561;stroke:none;stroke-width:10;stroke-linecap:round;stroke-linejoin:round;stroke-dashoffset:16.6"
     d="M 95.820312 138.10352 C 90.097993 137.96585 84.300995 140.35663 81.898438 145.33594 L 82.1875 146.44336 C 82.933591 147.26882 83.647054 148.11628 84.3125 148.99609 C 91.204654 147.12886 98.254168 145.93615 106.4668 149.71094 C 107.33405 148.19928 108.28616 146.92673 109.29688 146.03516 C 107.19119 140.90712 101.54263 138.24118 95.820312 138.10352 z "
     inkscape:label="tie shadow" /><path
     id="path8"
     style="display:inline;opacity:1;fill:#ba6561;stroke:none;stroke-width:10;stroke-linecap:round;stroke-linejoin:round;stroke-dashoffset:16.6"
     d="M 89.162109 161.4707 C 89.165975 161.53 89.1704 161.58884 89.173828 161.64844 C 89.183152 161.8136 89.190686 161.97613 89.197266 162.13672 L 92.429688 162.44141 L 94.183594 163.71484 L 92.464844 172 L 99.074219 172 C 97.744558 163.74926 96.43381 164.57859 96.646484 162.46289 L 101.09375 163.58984 C 101.56145 163.83024 101.6256 163.09726 101.32227 163.06836 C 97.707122 161.31893 93.439824 161.37965 89.162109 161.4707 z "
     inkscape:label="tie details" /><path
     style="display:inline;opacity:1;fill:#ffffff;stroke:none;stroke-width:10;stroke-linecap:round;stroke-linejoin:round;stroke-dashoffset:16.6"
     d="m 58.982546,115.07985 c 41.261564,32.06226 37.248983,23.2235 66.595444,3.15049 l 11.16759,17.68028 c 0.96195,5.72931 -5.04674,15.20813 -11.34337,32.47314 -9.26648,-12.67299 -18.1428,-24.06399 -25.859775,-31.64575 -2.012019,0.56004 -3.844523,1.27965 -7.793358,0.11808 -6.506834,3.02763 -15.824281,17.84706 -25.158671,32.61992 C 58.489117,149.47689 51.300001,144.1667 54.439,137.184 Z"
     id="path5"
     sodipodi:nodetypes="ccccccccc"
     inkscape:label="neck" /><path
     id="path2"
     style="display:inline;opacity:1;fill:#ba6561;stroke:none;stroke-width:10;stroke-linecap:round;stroke-linejoin:round;stroke-dashoffset:16.6"
     d="m 50.441406,20 c -0.406385,4.562053 -0.04377,10.157789 0.6875,16.25 0.126073,1.050324 -0.821879,0.302327 -1.416015,-0.294922 -0.249212,-1.22573 -0.748772,-1.353845 -1.181641,-1.771484 -1.399267,-1.350036 -4.710146,0 -4.722656,2.126953 L 43.75,46.347656 46.169922,58.982422 c 1.150601,3.777107 2.184229,7.555354 4.132812,10.154297 2.87974,3.840883 3.898924,1.876223 6.140625,2.066406 0.311926,6.334636 0.509941,12.752522 2.183594,19.128906 0.367392,2.920533 0.419107,5.935314 0,9.091797 -0.947522,0.613722 -2.011648,1.910472 -3.660156,6.613282 C 37.551086,120.09084 27.688963,125.2355 20,127.81641 v 17.68945 C 28.686987,129.2862 42.066671,119.70018 54.689453,109.04492 50.596354,121.23103 53.289741,128.66754 54.439,137.184 l 4.59225,-22.20939 c -2.038735,-3.17363 -1.581687,-10.0559 -0.333984,-13.69336 0.08647,3.17707 0.393506,5.9399 1.419922,7.34766 -0.174507,-5.08932 -1.130649,-10.661124 0,-14.947269 l 4.341796,5.511718 c -2.632505,-4.284949 -4.090321,-8.119321 -6.847656,-27.554687 0.483092,-5.280798 3.131334,2.699977 5.511719,4.175781 -5.747308,-15.154525 0.413575,-14.903568 -5.34375,-18.285156 -1.613413,-10.510511 6.470914,-1.824033 4.007812,-20.207031 L 57.25,20 Z"
     sodipodi:nodetypes="cscscccsccccccccccccccccccc"
     inkscape:label="red aura" /><path
     style="opacity:1;fill:#d8d8d8;stroke:none;stroke-width:10;stroke-linecap:round;stroke-linejoin:round;stroke-dashoffset:16.6"
     d="m 101.44764,60.701594 c 0.51489,19.926873 -2.184812,4.884516 -0.83496,18.786601 0.70326,1.321769 0.64038,-1.388241 8.3496,-0.500976 0.39964,-5.838781 -4.46795,-12.142851 -7.51464,-18.285625 z"
     id="path3"
     sodipodi:nodetypes="cccc"
     inkscape:label="nooose" /><path
     id="path4"
     style="opacity:1;fill:#d8d8d8;stroke:none;stroke-width:10;stroke-linecap:round;stroke-linejoin:round;stroke-dashoffset:16.6"
     d="M 122.99414 20 C 101.93461 30.696628 129.36824 39.009309 129.77148 48.650391 C 126.46943 53.523195 135.30032 63.166584 119.61719 80.767578 C 122.35987 99.663562 118.39511 105.51612 111.23242 109.34375 C 104.06973 113.17138 109.04033 117.3944 110.87891 117.01758 C 116.41748 111.70768 123.00925 107.6878 127.29102 100.8418 C 129.98499 112.54932 122.88222 115.56118 125.2832 118.31641 L 136.73828 135.91211 C 137.77355 124.30869 137.6914 113.87245 135.79297 106.50977 C 159.01742 127.74187 160.43995 132.12623 161.18164 136.0293 C 161.33025 122.56311 164.9836 125.64104 172 130.08789 L 172 127.81641 C 164.31103 125.2355 154.44891 120.09084 137.0332 106.03711 C 135.3847 101.3343 134.32057 100.03755 133.37305 99.423828 C 132.95394 96.267345 133.00565 93.252564 133.37305 90.332031 C 135.0467 83.955647 135.24471 77.537761 135.55664 71.203125 C 137.79834 71.012942 138.81753 72.977602 141.69727 69.136719 C 143.64585 66.537776 144.67948 62.759529 145.83008 58.982422 L 148.25 46.347656 L 148.19141 36.310547 C 148.17891 34.183594 144.86802 32.833558 143.46875 34.183594 C 143.03588 34.601233 142.53632 34.729348 142.28711 35.955078 C 141.69297 36.552327 140.74502 37.300324 140.87109 36.25 C 141.60236 30.157789 141.96498 24.562053 141.55859 20 L 122.99414 20 z "
     inkscape:label="police lights" /></svg>
