<?xml version="1.0" encoding="UTF-8" standalone="no"?>
<svg
   viewBox="0 0 192 192"
   version="1.1"
   id="svg3"
   sodipodi:docname="hollow-knight.svg"
   inkscape:version="1.4.4 (dcaf3e7d9e, 2026-05-05)"
   xml:space="preserve"
   xmlns:inkscape="http://www.inkscape.org/namespaces/inkscape"
   xmlns:sodipodi="http://sodipodi.sourceforge.net/DTD/sodipodi-0.dtd"
   xmlns="http://www.w3.org/2000/svg"
   xmlns:svg="http://www.w3.org/2000/svg"><defs
     id="defs1"><inkscape:path-effect
       effect="mirror_symmetry"
       start_point="96,-34.358448"
       end_point="96,225.7927"
       center_point="96,95.717126"
       id="path-effect2"
       is_visible="true"
       lpeversion="1.2"
       lpesatellites=""
       mode="vertical"
       discard_orig_path="false"
       fuse_paths="false"
       oposite_fuse="false"
       split_items="false"
       split_open="false"
       link_styles="false" /><inkscape:path-effect
       effect="mirror_symmetry"
       start_point="96,-34.358448"
       end_point="96,225.7927"
       center_point="96,95.717126"
       id="path-effect1"
       is_visible="true"
       lpeversion="1.2"
       lpesatellites=""
       mode="vertical"
       discard_orig_path="false"
       fuse_paths="true"
       oposite_fuse="false"
       split_items="false"
       split_open="false"
       link_styles="false" /></defs><sodipodi:namedview
     id="namedview3"
     pagecolor="#505050"
     bordercolor="#ffffff"
     borderopacity="1"
     inkscape:showpageshadow="0"
     inkscape:pageopacity="0"
     inkscape:pagecheckerboard="1"
     inkscape:deskcolor="#505050"
     inkscape:zoom="2.9941553"
     inkscape:cx="73.977459"
     inkscape:cy="98.1913"
     inkscape:window-width="1920"
     inkscape:window-height="1048"
     inkscape:window-x="0"
     inkscape:window-y="0"
     inkscape:window-maximized="1"
     inkscape:current-layer="svg3"
     showgrid="false" /><rect
     class="a"
     x="20"
     y="20"
     width="152"
     height="152"
     rx="10"
     id="rect1"
     style="opacity:1;stroke:none;fill:#54688c" /><path
     style="display:inline;fill:#ffffff;stroke:none;stroke-width:4.487;stroke-linecap:round;stroke-linejoin:round;stroke-dasharray:none;stroke-dashoffset:135.5;stroke-opacity:1"
     d="M 46.464844,13.734375 C -2.7911061,23.742067 11.619582,87.515046 40.529297,105.99023 41.686672,156.95581 49.447036,179.76676 96,179.85937 c 46.55296,-0.0926 54.31333,-22.90356 55.4707,-73.86914 28.90972,-18.475184 43.32041,-82.248163 -5.93554,-92.255855 5.40117,7.202022 10.46551,14.66637 -1.90625,16.304687 7.55038,14.622971 28.3504,30.439581 -0.39063,52.455079 C 133.56401,79.587299 121.70013,74.958314 96,74.896484 70.299868,74.958314 58.435992,79.587299 48.761719,82.494141 20.020693,60.478643 40.820712,44.662033 48.371094,30.039062 35.999326,28.400744 41.063672,20.936397 46.464844,13.734375 Z"
     id="path1"
     sodipodi:nodetypes="ccccccc"
     inkscape:path-effect="#path-effect1"
     inkscape:original-d="m 40.530146,105.99101 c 1.159735,51.06948 8.948557,73.86951 55.755072,73.86951 L 96.52138,74.895915 c -26.061538,0 -38.020257,4.671708 -47.759714,7.598136 C 20.02064,60.478553 40.819997,44.661271 48.370379,30.038301 35.998611,28.399983 41.064354,20.937115 46.465526,13.735093 -2.7904239,23.742785 11.620431,87.515822 40.530146,105.99101 Z"
     transform="matrix(0.73803249,0,0,0.73803249,25.148881,25.357651)" /><path
     style="fill:#56595b;stroke:none;stroke-width:4.487;stroke-linecap:round;stroke-linejoin:round;stroke-dasharray:none;stroke-dashoffset:135.5;stroke-opacity:1"
     id="path2"
     inkscape:path-effect="#path-effect2"
     sodipodi:type="arc"
     sodipodi:cx="70.387131"
     sodipodi:cy="148.78987"
     sodipodi:rx="16.782696"
     sodipodi:ry="18.202129"
     d="m 87.169827,148.78987 c 0,10.05276 -7.513869,18.20213 -16.782696,18.20213 -9.268827,0 -16.782696,-8.14937 -16.782696,-18.20213 0,-10.05276 7.513869,-18.20213 16.782696,-18.20213 9.268827,0 16.782696,8.14937 16.782696,18.20213 z m 17.660343,0 c 0,10.05276 7.51387,18.20213 16.7827,18.20213 9.26883,0 16.78269,-8.14937 16.78269,-18.20213 0,-10.05276 -7.51386,-18.20213 -16.78269,-18.20213 -9.26883,0 -16.7827,8.14937 -16.7827,18.20213 z"
     transform="matrix(0.73803249,0,0,0.73803249,25.148881,25.357651)" /></svg>
