<?xml version="1.0" encoding="UTF-8" standalone="no"?>
<svg
   viewBox="0 0 192 192"
   version="1.1"
   id="svg3"
   sodipodi:docname="omori.svg"
   inkscape:version="1.4.4 (dcaf3e7d9e, 2026-05-05)"
   xml:space="preserve"
   xmlns:inkscape="http://www.inkscape.org/namespaces/inkscape"
   xmlns:sodipodi="http://sodipodi.sourceforge.net/DTD/sodipodi-0.dtd"
   xmlns="http://www.w3.org/2000/svg"
   xmlns:svg="http://www.w3.org/2000/svg"><defs
     id="defs1"><inkscape:path-effect
       effect="mirror_symmetry"
       start_point="60,54"
       end_point="60,156"
       center_point="60,105"
       id="path-effect8"
       is_visible="true"
       lpeversion="1.2"
       lpesatellites=""
       mode="free"
       discard_orig_path="false"
       fuse_paths="false"
       oposite_fuse="false"
       split_items="false"
       split_open="false"
       link_styles="false" /><inkscape:path-effect
       effect="mirror_symmetry"
       start_point="60,0"
       end_point="60,174"
       center_point="60,87"
       id="path-effect1"
       is_visible="true"
       lpeversion="1.2"
       lpesatellites=""
       mode="free"
       discard_orig_path="false"
       fuse_paths="false"
       oposite_fuse="false"
       split_items="false"
       split_open="false"
       link_styles="false" /></defs><sodipodi:namedview
     id="namedview3"
     pagecolor="#505050"
     bordercolor="#ffffff"
     borderopacity="1"
     inkscape:showpageshadow="0"
     inkscape:pageopacity="0"
     inkscape:pagecheckerboard="1"
     inkscape:deskcolor="#505050"
     inkscape:zoom="2.8284271"
     inkscape:cx="31.819805"
     inkscape:cy="112.60675"
     inkscape:window-width="1920"
     inkscape:window-height="1048"
     inkscape:window-x="0"
     inkscape:window-y="0"
     inkscape:window-maximized="1"
     inkscape:current-layer="svg3"
     showgrid="false" /><path
     id="path1"
     style="display:inline;fill:#56595b;stroke:none;stroke-width:5.05747;stroke-linecap:round;stroke-linejoin:round;stroke-dashoffset:16.6"
     inkscape:label="body"
     d="M 132.40625 2.1386719 L 132.41211 14.068359 L 120.27539 14.068359 L 120.27539 8 L 71.724609 8 L 71.724609 14.068359 L 59.585938 14.068359 L 59.585938 20.138672 L 53.517578 20.138672 L 53.517578 26.207031 L 47.449219 26.207031 L 47.449219 38.345703 L 41.378906 38.345703 L 41.378906 62.621094 L 35.310547 62.621094 L 35.310547 80.828125 L 41.378906 80.828125 L 41.378906 86.896484 L 47.449219 86.896484 L 47.449219 92.964844 L 59.585938 92.964844 L 59.585938 99.035156 L 65.654297 99.035156 L 65.654297 105.10352 L 71.724609 105.10352 L 71.724609 111.17188 L 65.654297 111.17188 L 65.654297 117.24219 L 59.585938 117.24219 L 59.585938 123.31055 L 53.517578 123.31055 L 53.517578 129.37891 L 47.449219 129.37891 L 47.449219 141.51758 L 53.517578 141.51758 L 53.517578 147.58594 L 65.654297 147.58594 L 65.654297 177.93164 L 71.724609 177.93164 L 71.724609 184 L 83.861328 184 L 83.861328 177.93164 L 89.931641 177.93164 L 89.931641 155.67773 L 102.06836 155.67773 L 102.06836 177.93164 L 108.13867 177.93164 L 108.13867 184 L 120.27539 184 L 120.27539 177.93164 L 126.3457 177.93164 L 126.3457 147.58594 L 138.48242 147.58594 L 138.48242 141.51758 L 144.55078 141.51758 L 144.55078 129.37891 L 138.48242 129.37891 L 138.48242 123.31055 L 132.41406 123.31055 L 132.41406 117.24219 L 126.3457 117.24219 L 126.3457 111.17188 L 120.27539 111.17188 L 120.27539 105.10352 L 126.3457 105.10352 L 126.3457 99.035156 L 132.41406 99.035156 L 132.41406 92.964844 L 144.55078 92.964844 L 144.55078 86.896484 L 150.62109 86.896484 L 150.62109 80.828125 L 156.68945 80.828125 L 156.68945 62.621094 L 150.62109 62.621094 L 150.62109 38.345703 L 144.55078 38.345703 L 144.55078 26.207031 L 138.48242 26.207031 L 138.48242 20.142578 L 150.62109 20.152344 L 150.62109 14.068359 L 138.40625 14.068359 L 138.40625 2.1386719 L 132.40625 2.1386719 z " /><g
     id="g8"
     inkscape:label="white"
     transform="matrix(1.0114943,0,0,1.0114943,35.310345,8)"><path
       id="path2"
       style="display:inline;opacity:1;fill:#ffffff;stroke:none;stroke-width:5;stroke-linecap:round;stroke-linejoin:round;stroke-dashoffset:16.6"
       d="m 6,54 v 18 h 6 l -0.04492,6 H 18 V 66 H 12 V 54 Z m 102,0 v 12 h -6 v 12 h 6.04492 L 108,72 h 6 V 54 Z m -72,48 v 6 h -6 v 6 h -6 v 6 h -6 v 12 h 12 v -12 h 6 v -6 h 6 v -12 z m 18,0 v 6 h 12 v -6 z m 24,0 v 12 h 6 v 6 h 6 v 12 h 12 v -12 h -6 v -6 h -6 v -6 h -6 v -6 z m -42,30 v 12 h 6 v -12 z m 42,0 v 12 h 6 v -12 z m -30,6 v 6 h 6 v -6 z m 18,0 v 6 h 6 v -6 z m -30,12 v 6 h 12 v -6 z m 36,0 v 6 h 12 v -6 z"
       sodipodi:nodetypes="ccccccccccccccccccccccccccccccccccccccccccccccccccccccccccccccccccccccccccccccccccc"
       inkscape:label="body details" /><path
       id="path8"
       style="display:inline;opacity:1;fill:#ffffff;stroke:none;stroke-width:5;stroke-linecap:round;stroke-linejoin:round;stroke-dashoffset:16.6"
       d="m 66,52 v 6 H 54 v 6 H 42 V 84 H 36 V 72 H 24 v 12 h 6 v 6 h 12 v 6 h 36 v -6 h 12 v -6 h 6 V 72 H 90 V 64 H 84 V 84 H 78 V 64 h 6 v -6 h -6 v -6 z"
       inkscape:label="face" /></g></svg>
