<?xml version="1.0" encoding="UTF-8" standalone="no"?>
<svg
   viewBox="0 0 192 192"
   version="1.1"
   id="svg3"
   sodipodi:docname="oneshot.svg"
   inkscape:version="1.4.4 (dcaf3e7d9e, 2026-05-05)"
   xml:space="preserve"
   xmlns:inkscape="http://www.inkscape.org/namespaces/inkscape"
   xmlns:sodipodi="http://sodipodi.sourceforge.net/DTD/sodipodi-0.dtd"
   xmlns="http://www.w3.org/2000/svg"
   xmlns:svg="http://www.w3.org/2000/svg"><defs
     id="defs1" /><sodipodi:namedview
     id="namedview3"
     pagecolor="#505050"
     bordercolor="#ffffff"
     borderopacity="1"
     inkscape:showpageshadow="0"
     inkscape:pageopacity="0"
     inkscape:pagecheckerboard="1"
     inkscape:deskcolor="#505050"
     inkscape:zoom="2.9941553"
     inkscape:cx="89.173731"
     inkscape:cy="88.004787"
     inkscape:window-width="1920"
     inkscape:window-height="1048"
     inkscape:window-x="0"
     inkscape:window-y="0"
     inkscape:window-maximized="1"
     inkscape:current-layer="svg3"
     showgrid="false" /><path
     style="display:inline;fill:#8c72bd;stroke:none;stroke-width:3;stroke-linecap:round;stroke-linejoin:round;stroke-dasharray:none;stroke-dashoffset:16.6"
     d="m 43.25093,131.00522 -12.440905,18.45263 c 9.778181,16.9589 30.16785,27.2013 45.33833,28.55563 l 14.027328,-20.54002 z"
     id="path5"
     sodipodi:nodetypes="ccccc" /><circle
     style="display:inline;fill:#f8c18c;stroke:#ffffff;stroke-width:11.0786;stroke-linecap:round;stroke-linejoin:round;stroke-dashoffset:16.6"
     id="path1"
     cx="101.86513"
     cy="86.167877"
     r="69.931335" /><circle
     style="display:inline;fill:#f9de81;stroke:none;stroke-width:12.8916;stroke-linecap:round;stroke-linejoin:round;stroke-dashoffset:16.6"
     id="path2"
     cx="96.35424"
     cy="92.575645"
     r="50.538746" /><ellipse
     style="fill:#ffffff;stroke:none;stroke-width:10.6322;stroke-linecap:round;stroke-linejoin:round;stroke-dashoffset:16.6"
     id="path3"
     cx="153.62363"
     cy="82.53875"
     rx="7.6752772"
     ry="9.4464941" /><ellipse
     style="fill:#ffffff;stroke:none;stroke-width:19.4408;stroke-linecap:round;stroke-linejoin:round;stroke-dashoffset:16.6"
     id="path3-5"
     cx="75.053307"
     cy="121.92726"
     rx="14.154267"
     ry="17.126211"
     transform="matrix(0.82033034,-0.57188997,0.61651121,0.78734613,0,0)" /><path
     style="display:inline;fill:none;stroke:#ffffff;stroke-width:3;stroke-linecap:round;stroke-linejoin:round;stroke-dasharray:none;stroke-dashoffset:16.6"
     d="m 58.568265,135.20295 7.675277,-20.19188 C 46.511905,106.51268 38.161904,94.762386 49.239852,77.461254 56.73054,65.912094 73.245757,66.933852 80.087691,73.155487 111.61303,101.82269 56.282031,108.34725 78.287822,72.856088 88.371889,56.592402 105.55896,55.510834 115.95572,63.527675 c 11.95568,9.218907 14.08084,21.478146 7.55719,36.01476 -25.844239,37.517045 -38.337117,-20.20723 1.53506,-0.236163 14.5065,7.265978 13.46439,22.797328 8.7642,29.807818 -10.09296,15.05403 -32.19856,10.13392 -41.354606,1.71986 L 78.996309,148.0738"
     id="path4"
     sodipodi:nodetypes="cccssscsscc" /><path
     id="path6"
     style="fill:#bd9aff;stroke:none;stroke-width:3;stroke-linecap:round;stroke-linejoin:round;stroke-dasharray:none;stroke-dashoffset:16.6"
     d="M 44.919922 140.85742 C 49.124648 152.74817 66.048314 164.07578 81.634766 169.98047 L 86.144531 163.37695 C 79.065075 162.61839 56.32906 151.02147 44.919922 140.85742 z " /><path
     id="path6-6"
     style="fill:#bd9aff;stroke:none;stroke-width:3;stroke-linecap:round;stroke-linejoin:round;stroke-dasharray:none;stroke-dashoffset:16.6"
     d="M 39.210938 147.22656 C 44.966905 167.36459 63.177416 175.81303 77.03125 176.7207 L 80.648438 171.42383 C 70.213429 170.13952 54.547546 157.27607 39.210938 147.22656 z " /></svg>
