<?xml version="1.0" encoding="UTF-8" standalone="no"?>
<svg
   width="192"
   height="192"
   version="1.1"
   viewBox="0 0 192 192"
   id="svg2"
   sodipodi:docname="osu.svg"
   inkscape:version="1.4.4 (dcaf3e7d9e, 2026-05-05)"
   xmlns:inkscape="http://www.inkscape.org/namespaces/inkscape"
   xmlns:sodipodi="http://sodipodi.sourceforge.net/DTD/sodipodi-0.dtd"
   xmlns="http://www.w3.org/2000/svg"
   xmlns:svg="http://www.w3.org/2000/svg">
  <defs
     id="defs2" />
  <sodipodi:namedview
     id="namedview2"
     pagecolor="#ffffff"
     bordercolor="#000000"
     borderopacity="0.25"
     inkscape:showpageshadow="2"
     inkscape:pageopacity="0.0"
     inkscape:pagecheckerboard="true"
     inkscape:deskcolor="#d1d1d1"
     inkscape:zoom="3.1009579"
     inkscape:cx="58.20782"
     inkscape:cy="98.034224"
     inkscape:window-width="1920"
     inkscape:window-height="1048"
     inkscape:window-x="0"
     inkscape:window-y="0"
     inkscape:window-maximized="1"
     inkscape:current-layer="svg2" />
  <circle
     cx="96"
     cy="96"
     r="81.225388"
     opacity=".63"
     style="opacity:1;fill:#ffd6d4;stroke:#ffffff;stroke-width:14.5492;stroke-dasharray:none"
     id="circle2" />
  <path
     d="m 56.102642,115.69261 c 9.913925,0 16.074722,-6.1608 16.074722,-14.72926 0,-8.568466 -6.160797,-14.729262 -16.074722,-14.729262 -9.984739,0 -16.145535,6.160796 -16.145535,14.729262 0,8.56846 6.160796,14.72926 16.145535,14.72926 z m 0,-9.13498 c -3.328246,-0.0708 -5.6651,-2.33685 -5.6651,-5.59428 0,-3.257434 2.336854,-5.523474 5.6651,-5.594288 3.257433,0.07081 5.594286,2.336854 5.594286,5.594288 0,3.25743 -2.336853,5.52347 -5.594286,5.59428 z m 31.653722,9.13498 c 6.868934,0 10.76369,-4.1072 10.76369,-9.48904 0,-5.87755 -4.956963,-8.214399 -9.06416,-9.843115 -1.557903,-0.637324 -2.336854,-0.920579 -2.336854,-1.557903 0,-0.495696 0.424882,-1.062206 1.770344,-1.062206 1.841157,0 3.540687,1.062206 4.53208,1.982785 l 4.602894,-6.019169 c -2.478482,-2.053599 -5.877542,-3.469874 -9.913926,-3.469874 -7.223002,0 -11.259386,4.673708 -11.259386,9.418229 0,6.019173 6.585679,7.789513 9.134974,8.780903 2.336854,0.84977 2.903364,1.48709 2.903364,2.12441 0,0.70814 -0.708138,1.13302 -1.911972,1.13302 -1.062206,0 -2.903363,-0.28325 -4.461266,-2.76173 l -7.36463,3.82394 c 1.841157,4.67371 7.435444,6.93975 12.604848,6.93975 z m 29.883356,0 c 9.34741,0 14.23356,-4.53208 14.23356,-11.68427 V 86.800598 h -10.48043 v 15.862282 c 0,2.19522 -1.62872,3.89475 -3.75313,3.89475 -2.0536,0 -3.6115,-1.69953 -3.6115,-3.89475 V 86.800598 h -10.55125 v 17.207742 c 0,7.15219 4.88614,11.68427 14.16275,11.68427 z m 24.21834,-16.074723 h 7.78952 l 1.34546,-26.696784 H 140.5126 Z m 3.89476,16.074723 c 3.1158,0 5.59429,-2.47848 5.59429,-5.52347 0,-3.18662 -2.47849,-5.6651 -5.59429,-5.6651 -3.11581,0 -5.59429,2.47848 -5.59429,5.6651 0,3.04499 2.47848,5.52347 5.59429,5.52347 z"
     id="text2"
     style="font-weight:900;font-size:56.651px;font-family:'Now Alt';-inkscape-font-specification:'Now Alt Heavy';fill:#ffffff;stroke-width:212.441;stroke-linecap:round;stroke-linejoin:round;stroke-dashoffset:16.6"
     aria-label="osu!" />
</svg>
