<?xml version="1.0" encoding="UTF-8" standalone="no"?>
<svg
   viewBox="0 0 192 192"
   version="1.1"
   id="svg16"
   sodipodi:docname="overwatch-2.svg"
   inkscape:version="1.4.4 (dcaf3e7d9e, 2026-05-05)"
   xmlns:inkscape="http://www.inkscape.org/namespaces/inkscape"
   xmlns:sodipodi="http://sodipodi.sourceforge.net/DTD/sodipodi-0.dtd"
   xmlns="http://www.w3.org/2000/svg"
   xmlns:svg="http://www.w3.org/2000/svg"
   xmlns:rdf="http://www.w3.org/1999/02/22-rdf-syntax-ns#"
   xmlns:cc="http://creativecommons.org/ns#"
   xmlns:dc="http://purl.org/dc/elements/1.1/">
  <metadata
     id="metadata20">
    <rdf:RDF>
      <cc:Work
         rdf:about="">
        <dc:format>image/svg+xml</dc:format>
        <dc:type
           rdf:resource="http://purl.org/dc/dcmitype/StillImage" />
      </cc:Work>
    </rdf:RDF>
  </metadata>
  <sodipodi:namedview
     pagecolor="#ffffff"
     bordercolor="#666666"
     borderopacity="1"
     objecttolerance="10"
     gridtolerance="10"
     guidetolerance="10"
     inkscape:pageopacity="0"
     inkscape:pageshadow="2"
     inkscape:window-width="1920"
     inkscape:window-height="1048"
     id="namedview18"
     showgrid="true"
     inkscape:zoom="4.9166666"
     inkscape:cx="95.593221"
     inkscape:cy="111.66102"
     inkscape:window-x="0"
     inkscape:window-y="0"
     inkscape:window-maximized="1"
     inkscape:current-layer="svg16"
     inkscape:showpageshadow="2"
     inkscape:pagecheckerboard="0"
     inkscape:deskcolor="#d1d1d1">
    <inkscape:grid
       type="xygrid"
       id="grid827"
       spacingx="4"
       spacingy="4"
       originx="0"
       originy="0"
       units="px" />
  </sodipodi:namedview>
  <defs
     id="defs4">
    <style
       id="style2">.a{fill:none;stroke:#b1b5bd;stroke-linecap:round;stroke-linejoin:round;isolation:isolate;opacity:0.63;}</style>
  </defs>
  <path
     style="fill:none;stroke:#56595b;stroke-width:25.7727"
     inkscape:connector-curvature="0"
     id="path4"
     d="m 100.89339,59.470715 c 10.10294,8.018877 15.96553,22.178155 15.96553,35.851363 -2e-5,26.640252 -21.595851,48.235942 -48.236275,48.235942 -26.640446,0 -48.236295,-21.59569 -48.236295,-48.235942 0,-13.481804 5.209707,-26.925463 15.559185,-35.481956"
     inkscape:label="TCH" />
  <path
     style="fill:none;stroke:#f8c18c;stroke-width:25.7727"
     inkscape:connector-curvature="0"
     id="path6"
     d="M 39.270738,57.25771 C 47.740352,50.665086 58.167322,47.085448 68.8991,47.085448 c 10.538816,5e-6 18.649169,1.373301 28.339722,9.190156"
     inkscape:label="WA" />
  <path
     style="fill:#56595b;stroke-width:0"
     inkscape:connector-curvature="0"
     id="path8"
     d="M 33.923402,118.84853 55.354306,98.658297 65.844337,75.87363 v 34.51463 l -21.655987,20.7538 z"
     inkscape:label="ER" />
  <path
     style="fill:#56595b;stroke-width:0"
     inkscape:connector-curvature="0"
     id="path10"
     d="M 103.32186,118.84853 81.890968,98.658297 71.400938,75.87363 v 34.51463 l 21.655979,20.7538 z"
     inkscape:label="OV" />
  <path
     style="fill:none;stroke:#f8c18c;stroke-width:10.3941;stroke-linecap:butt;stroke-linejoin:round;stroke-dasharray:none;stroke-dashoffset:16.6"
     id="path1"
     sodipodi:type="arc"
     sodipodi:cx="68.622757"
     sodipodi:cy="95.321739"
     sodipodi:rx="72.470787"
     sodipodi:ry="72.470787"
     sodipodi:start="5.4165009"
     sodipodi:end="0.9347332"
     sodipodi:arc-type="arc"
     d="M 115.53724,40.085465 A 72.470787,72.470787 0 0 1 141.0516,97.787038 72.470787,72.470787 0 0 1 111.6728,153.62018"
     sodipodi:open="true"
     inkscape:label="epic trick" />
  <path
     style="opacity:1;fill:#f8c18c;baseline-shift:baseline;display:inline;overflow:visible;vector-effect:none;stroke-linecap:round;stroke-linejoin:round;stroke-dashoffset:16.6;enable-background:accumulate;stop-color:#000000;stop-opacity:1"
     d="m 127.93164,60.695312 c 10.42212,38.895898 9.18312,36.948845 0,71.220708 h 45.3566 c 2.76131,-2.8e-4 4.99972,-2.23869 5,-5 V 65.695312 c -2.8e-4,-2.761309 -2.23869,-4.999724 -5,-5 z"
     id="path7"
     sodipodi:nodetypes="ccccccc"
     transform="matrix(1.039414,0,0,1.039414,-0.81529292,-4.4620124)"
     inkscape:label="I did try to spell the name of the game, damn layers..." />
  <path
     id="path9"
     style="fill:#ffffff;stroke:none;stroke-width:10.3941;stroke-linecap:butt;stroke-linejoin:round;stroke-dasharray:none;stroke-dashoffset:16.6"
     d="m 143.99609,72.240234 c -2.58296,0 -4.23809,3.186464 -4.23809,4.703125 v 9.355469 h 9.40411 v -5.972656 h 14.38477 l 6.98242,-6.41211 c 0,0 -2.48483,-1.673828 -5.50196,-1.673828 z m 30.25196,4.09375 c 0,0 -29.62644,29.520976 -31.3418,31.236326 -1.71537,1.71537 -3.14819,3.43087 -3.14825,5.45508 l -1.9e-4,6.01367 h 26.98438 c 6.83061,0 10.35937,-2.66405 10.35937,-10.35937 h -24.6289 c 0,0 18.55552,-17.6649 20.09179,-19.201174 1.53628,-1.536265 2.99219,-3.527632 2.99219,-5.181641 v -5.441406 c 0,-1.716508 -1.30859,-2.521485 -1.30859,-2.521485 z"
     sodipodi:nodetypes="sscccccsscsscsccsssc"
     inkscape:label="2" />
</svg>
