<?xml version="1.0" encoding="UTF-8" standalone="no"?>
<svg
   viewBox="0 0 192 192"
   version="1.1"
   id="svg3"
   sodipodi:docname="terraria.svg"
   inkscape:version="1.4.4 (dcaf3e7d9e, 2026-05-05)"
   xmlns:inkscape="http://www.inkscape.org/namespaces/inkscape"
   xmlns:sodipodi="http://sodipodi.sourceforge.net/DTD/sodipodi-0.dtd"
   xmlns="http://www.w3.org/2000/svg"
   xmlns:svg="http://www.w3.org/2000/svg">
  <defs
     id="defs1" />
  <sodipodi:namedview
     id="namedview3"
     pagecolor="#505050"
     bordercolor="#ffffff"
     borderopacity="1"
     inkscape:showpageshadow="0"
     inkscape:pageopacity="0"
     inkscape:pagecheckerboard="1"
     inkscape:deskcolor="#505050"
     inkscape:zoom="2.9941553"
     inkscape:cx="83.996979"
     inkscape:cy="94.851459"
     inkscape:window-width="1920"
     inkscape:window-height="1048"
     inkscape:window-x="0"
     inkscape:window-y="0"
     inkscape:window-maximized="1"
     inkscape:current-layer="svg3"
     showgrid="false" />
  <path
     fill="#a57959"
     d="m 93.666537,87.204565 c -2.825296,1.61286 -6.042197,2.465769 -9.311089,2.472404 -0.34138,0 -0.663736,-0.06635 -0.99881,-0.0885 v 35.240971 l -8.047006,-8.97624 a 8.4282116,8.4282116 0 0 1 -6.706926,3.31868 8.4282116,8.4282116 0 0 1 -0.208636,1.81421 l 14.962788,16.35995 v 26.73295 C 72.963883,167.40882 70.713823,175.29611 70.713823,184.5 h 50.569917 c 0,-9.20379 -2.25039,-17.08674 -12.64302,-20.41759 v -8.71703 l 15.27251,-14.75372 a 8.4282116,9.0305506 0 0 1 -0.51836,-3.06585 8.4282116,9.0305506 0 0 1 1.13786,-4.53241 8.4282116,9.0305506 0 0 1 -0.0509,-0.0663 8.4282116,9.0305506 0 0 1 -1.08731,0.0774 8.4282116,9.0305506 0 0 1 -3.55884,-0.84737 l -11.19496,10.66402 V 88.731242 c -1.81422,0.568591 -3.69159,0.948037 -5.65758,0.948037 -3.276617,-0.0031 -6.487991,-0.856218 -9.319926,-2.469096 z"
     id="path1"
     style="fill:#d3b69a;stroke-width:11.0622" />
  <path
     fill="#1c8d43"
     d="m 93.666537,7.4999975 c -4.94261,0.0061 -9.683888,2.088552 -13.172919,5.7836705 -1.769957,-0.572471 -3.609609,-0.863849 -5.455897,-0.863849 -10.291092,0 -18.633239,8.80278 -18.633239,19.66424 0.0062,4.633864 1.563867,9.117279 4.397683,12.65742 -5.609664,3.549872 -9.043383,9.944955 -9.051127,16.846687 0.0099,9.160644 6.00901,17.098907 14.469412,19.147627 1.940319,8.92502 9.462643,15.2493 18.13544,15.26259 3.268893,-0.006 6.485793,-0.925921 9.311089,-2.66158 2.831935,1.735659 6.043304,2.654939 9.317721,2.66158 6.72033,-0.006 12.91518,-3.825329 16.21284,-10.000275 9.34758,-1.191395 16.38316,-9.564418 16.39423,-19.503838 0,-0.557537 -0.0332,-1.116179 -0.0885,-1.674823 3.05317,-3.596334 4.73465,-8.248006 4.74569,-13.070039 -0.0112,-9.161748 -6.00679,-17.102225 -14.4694,-19.146528 -1.75889,-8.072119 -8.123,-14.118741 -15.91747,-15.11766 -3.29874,-6.162333 -9.48808,-9.9752665 -16.19511,-9.9847785 z"
     id="path2"
     style="fill:#98dc9a;stroke-width:11.0622" />
  <path
     fill="#1c8d43"
     d="m 70.191353,107.06018 a 7.3746436,7.3746436 0 0 0 -7.378515,7.37851 7.3746436,7.3746436 0 0 0 0.994494,3.68373 7.3746436,7.3746436 0 0 0 -0.994494,3.68373 7.3746436,7.3746436 0 0 0 7.378515,7.37851 7.3746436,7.3746436 0 0 0 7.367453,-7.37851 7.3746436,7.3746436 0 0 0 7.378515,-7.36746 7.3746436,7.3746436 0 0 0 -7.378515,-7.37851 7.3746436,7.3746436 0 0 0 -3.683726,0.99559 7.3746436,7.3746436 0 0 0 -3.683727,-0.99559 z"
     id="path3"
     style="fill:#98dc9a;stroke-width:11.0622" />
  <path
     fill="#1c8d43"
     d="m 114.44032,118.12242 a 7.3746436,9.4820008 0 0 0 -7.37852,9.48035 7.3746436,9.4820008 0 0 0 7.37852,9.48465 7.3746436,9.4820008 0 0 0 0.95136,-0.0885 7.3746436,9.4820008 0 0 0 0.0441,0.0774 7.3746436,9.4820008 0 0 0 -0.99561,4.75882 7.3746436,9.4820008 0 0 0 7.36748,9.47812 7.3746436,9.4820008 0 0 0 7.37817,-9.47812 7.3746436,9.4820008 0 0 0 -0.99561,-4.74554 7.3746436,9.4820008 0 0 0 0.99561,-4.73896 7.3746436,9.4820008 0 0 0 -7.37851,-9.47802 7.3746436,9.4820008 0 0 0 -0.95134,0.0885 7.3746436,9.4820008 0 0 0 -6.41611,-4.83851 z"
     id="path4"
     style="fill:#98dc9a;stroke-width:11.0622" />
</svg>
