<?xml version="1.0" encoding="UTF-8" standalone="no"?>
<svg
   viewBox="0 0 192 192"
   version="1.1"
   id="svg3"
   sodipodi:docname="tmodloader.svg"
   inkscape:version="1.4.4 (dcaf3e7d9e, 2026-05-05)"
   xmlns:inkscape="http://www.inkscape.org/namespaces/inkscape"
   xmlns:sodipodi="http://sodipodi.sourceforge.net/DTD/sodipodi-0.dtd"
   xmlns="http://www.w3.org/2000/svg"
   xmlns:svg="http://www.w3.org/2000/svg">
  <defs
     id="defs1" />
  <sodipodi:namedview
     id="namedview3"
     pagecolor="#505050"
     bordercolor="#ffffff"
     borderopacity="1"
     inkscape:showpageshadow="0"
     inkscape:pageopacity="0"
     inkscape:pagecheckerboard="1"
     inkscape:deskcolor="#505050"
     inkscape:zoom="2.9941553"
     inkscape:cx="59.616146"
     inkscape:cy="108.5448"
     inkscape:window-width="1920"
     inkscape:window-height="1048"
     inkscape:window-x="0"
     inkscape:window-y="0"
     inkscape:window-maximized="1"
     inkscape:current-layer="svg3"
     showgrid="false" />
  <path
     d="M 74.529815,11.642691 C 72.474952,9.7804609 68.797243,9.2697709 66.31437,10.502541 l -18.986507,9.42633 c -2.482472,1.23246 -4.353532,4.46902 -4.178657,7.23943 l 0.687766,10.89185 c 0.17464,2.76571 -1.088686,6.75715 -2.819183,8.91184 l -5.093468,6.34208 c -1.731702,2.1562 -5.344294,4.26354 -8.095552,4.71131 l -9.837085,1.60097 c -2.739418,0.44585 -5.417535,3.00379 -5.981091,5.709 l -4.5385403,21.78973 c -0.5638765,2.70722 0.8215735,6.189996 3.0899723,7.775821 l 7.308762,5.109708 c 2.270473,1.58733 4.593923,5.07512 5.185871,7.77259 l 1.920925,8.75473 c 0.593614,2.70541 -0.02721,6.86008 -1.380143,9.26841 l -3.861412,6.87333 c -1.355864,2.41344 -1.0324,6.11102 0.72041,8.25628 l 14.70742,18.00026 c 1.753774,2.14646 5.334059,3.24819 7.986793,2.46391 l 6.633338,-1.96116 c 2.657249,-0.78561 6.830487,-0.4323 9.32199,0.78954 l 9.038355,4.43249 c 2.491101,1.22163 5.357438,4.29735 6.396961,6.85728 l 2.458091,6.05323 c 1.04183,2.56554 4.137522,4.65462 6.904231,4.66606 l 23.481293,0.0973 c 2.77133,0.0115 5.86482,-2.0649 6.90695,-4.63135 l 2.40612,-5.92531 c 1.04334,-2.56925 3.9186,-5.62923 6.4114,-6.82938 l 9.58777,-4.6162 c 2.49753,-1.20246 6.68502,-1.53786 9.33183,-0.75535 l 6.66795,1.97139 c 2.65625,0.78531 6.23783,-0.30791 8.00646,-2.44997 l 14.50575,-17.56884 c 1.76561,-2.13844 2.0947,-5.834 0.73778,-8.24916 l -3.78515,-6.73737 c -1.35818,-2.41746 -1.97369,-6.57024 -1.37653,-9.26801 l 2.21449,-10.00385 c 0.59793,-2.70108 2.9187,-6.17431 5.18928,-7.761744 l 7.26262,-5.077408 c 2.26796,-1.585632 3.6429,-5.076327 3.07352,-7.784747 l -4.45377,-21.18273 c -0.57057,-2.71374 -3.25794,-5.27577 -5.98621,-5.71983 l -9.82323,-1.59877 c -2.73552,-0.44521 -6.36235,-2.54307 -8.1108,-4.69817 l -5.76309,-7.10328 c -1.74393,-2.14947 -3.01613,-6.13409 -2.84196,-8.89258 l 0.67981,-10.76543 c 0.1744,-2.7617 -1.70902,-5.98691 -4.1885,-7.19489 l -18.83399,-9.17551 c -2.48769,-1.2119901 -6.17232,-0.6827101 -8.22448,1.17698 l -8.42685,7.63694 c -2.05455,1.86193 -5.96895,3.23935 -8.723517,3.07753 l 1.185607,0.0697 c -2.7633,-0.16231 -7.235224,-0.15373 -10.015577,0.0208 l 0.606628,-0.038 c -2.768113,0.17369 -6.671564,-1.18922 -8.73275,-3.05726 l -8.342766,-7.5607 z"
     fill="#b1b5bd"
     id="path1-2"
     style="display:inline;fill:#979797;stroke-width:1.0033" />
  <path
     id="path1"
     style="fill:#d3b69a;stroke-width:11.0622"
     d="M 93.666016 87.205078 C 90.84072 88.817938 87.624361 89.671099 84.355469 89.677734 C 84.014089 89.677734 83.692496 89.610041 83.357422 89.587891 L 83.357422 124.83008 L 75.310547 115.85352 A 8.4282116 8.4282116 0 0 1 68.603516 119.17188 A 8.4282116 8.4282116 0 0 1 68.394531 120.98633 L 83.357422 137.3457 L 83.357422 164.07812 C 78.943739 165.49224 75.998149 167.72928 74.070312 170.53906 C 74.252994 170.87048 74.411101 171.19765 74.541016 171.51758 L 77 177.57227 C 78.04183 180.13781 81.137588 182.22684 83.904297 182.23828 L 107.38477 182.33398 C 110.1561 182.34548 113.24889 180.26958 114.29102 177.70312 L 116.69727 171.77734 C 116.9208 171.22688 117.22967 170.65443 117.59961 170.08203 C 115.67076 167.48826 112.81092 165.41862 108.64062 164.08203 L 108.64062 155.36523 L 123.91406 140.61133 A 8.4282116 9.0305506 0 0 1 123.39453 137.54492 A 8.4282116 9.0305506 0 0 1 124.5332 133.01367 A 8.4282116 9.0305506 0 0 1 124.48242 132.94727 A 8.4282116 9.0305506 0 0 1 123.39453 133.02539 A 8.4282116 9.0305506 0 0 1 119.83594 132.17773 L 108.64062 142.8418 L 108.64062 88.730469 C 106.8264 89.29906 104.94841 89.679688 102.98242 89.679688 C 99.705805 89.676587 96.495997 88.823816 93.664062 87.210938 L 93.666016 87.205078 z " />
  <path
     fill="#1c8d43"
     d="m 93.666537,7.4999975 c -4.94261,0.0061 -9.683888,2.088552 -13.172919,5.7836705 -1.769957,-0.572471 -3.609609,-0.863849 -5.455897,-0.863849 -10.291092,0 -18.633239,8.80278 -18.633239,19.66424 0.0062,4.633864 1.563867,9.117279 4.397683,12.65742 -5.609664,3.549872 -9.043383,9.944955 -9.051127,16.846687 0.0099,9.160644 6.00901,17.098907 14.469412,19.147627 1.940319,8.92502 9.462643,15.2493 18.13544,15.26259 3.268893,-0.006 6.485793,-0.925921 9.311089,-2.66158 2.831935,1.735659 6.043304,2.654939 9.317721,2.66158 6.72033,-0.006 12.91518,-3.825329 16.21284,-10.000275 9.34758,-1.191395 16.38316,-9.564418 16.39423,-19.503838 0,-0.557537 -0.0332,-1.116179 -0.0885,-1.674823 3.05317,-3.596334 4.73465,-8.248006 4.74569,-13.070039 -0.0112,-9.161748 -6.00679,-17.102225 -14.4694,-19.146528 -1.75889,-8.072119 -8.123,-14.118741 -15.91747,-15.11766 -3.29874,-6.162333 -9.48808,-9.9752665 -16.19511,-9.9847785 z"
     id="path2"
     style="fill:#98dc9a;stroke-width:11.0622" />
  <path
     fill="#1c8d43"
     d="m 70.191353,107.06018 a 7.3746436,7.3746436 0 0 0 -7.378515,7.37851 7.3746436,7.3746436 0 0 0 0.994494,3.68373 7.3746436,7.3746436 0 0 0 -0.994494,3.68373 7.3746436,7.3746436 0 0 0 7.378515,7.37851 7.3746436,7.3746436 0 0 0 7.367453,-7.37851 7.3746436,7.3746436 0 0 0 7.378515,-7.36746 7.3746436,7.3746436 0 0 0 -7.378515,-7.37851 7.3746436,7.3746436 0 0 0 -3.683726,0.99559 7.3746436,7.3746436 0 0 0 -3.683727,-0.99559 z"
     id="path3"
     style="fill:#98dc9a;stroke-width:11.0622" />
  <path
     fill="#1c8d43"
     d="m 114.44032,118.12242 a 7.3746436,9.4820008 0 0 0 -7.37852,9.48035 7.3746436,9.4820008 0 0 0 7.37852,9.48465 7.3746436,9.4820008 0 0 0 0.95136,-0.0885 7.3746436,9.4820008 0 0 0 0.0441,0.0774 7.3746436,9.4820008 0 0 0 -0.99561,4.75882 7.3746436,9.4820008 0 0 0 7.36748,9.47812 7.3746436,9.4820008 0 0 0 7.37817,-9.47812 7.3746436,9.4820008 0 0 0 -0.99561,-4.74554 7.3746436,9.4820008 0 0 0 0.99561,-4.73896 7.3746436,9.4820008 0 0 0 -7.37851,-9.47802 7.3746436,9.4820008 0 0 0 -0.95134,0.0885 7.3746436,9.4820008 0 0 0 -6.41611,-4.83851 z"
     id="path4"
     style="fill:#98dc9a;stroke-width:11.0622" />
</svg>
