<?xml version="1.0" encoding="UTF-8" standalone="no"?>
<svg
   viewBox="0 0 192 192"
   version="1.1"
   id="svg3"
   sodipodi:docname="wild-woods.svg"
   inkscape:version="1.4.4 (dcaf3e7d9e, 2026-05-05)"
   xml:space="preserve"
   xmlns:inkscape="http://www.inkscape.org/namespaces/inkscape"
   xmlns:sodipodi="http://sodipodi.sourceforge.net/DTD/sodipodi-0.dtd"
   xmlns="http://www.w3.org/2000/svg"
   xmlns:svg="http://www.w3.org/2000/svg"><defs
     id="defs1" /><sodipodi:namedview
     id="namedview3"
     pagecolor="#505050"
     bordercolor="#ffffff"
     borderopacity="1"
     inkscape:showpageshadow="0"
     inkscape:pageopacity="0"
     inkscape:pagecheckerboard="1"
     inkscape:deskcolor="#505050"
     inkscape:zoom="4.234375"
     inkscape:cx="62.583026"
     inkscape:cy="107.09963"
     inkscape:window-width="1920"
     inkscape:window-height="1048"
     inkscape:window-x="0"
     inkscape:window-y="0"
     inkscape:window-maximized="1"
     inkscape:current-layer="svg3"
     showgrid="false" /><path
     style="display:inline;fill:#ba6561;stroke-width:5;stroke-linecap:round;stroke-linejoin:round;stroke-dashoffset:16.6"
     d="M 97.189347,183.01832 C 24.36712,184.36883 25.772079,108.83671 40.975856,91.924853 55.244847,76.052798 60.855716,74.684326 67.797309,64.531722 76.45981,51.862158 74.23117,38.39992 69.984398,7.6677287 93.403623,26.23957 123.81968,35.982692 118.56433,76.477423 c 7.66861,-8.06942 9.4739,-16.123083 13.88059,-22.123983 0.0241,15.643873 32.81203,47.21735 26.23106,82.90907 -1.76516,9.57328 -5.52779,44.71804 -61.486633,45.75581 z"
     id="path1"
     sodipodi:nodetypes="ssscccss"
     inkscape:label="external fire" /><path
     style="display:inline;fill:#f8c18c;stroke:#ff837d;stroke-width:5;stroke-linecap:round;stroke-linejoin:miter;stroke-dasharray:none;stroke-dashoffset:16.6"
     d="m 96.761036,173.36423 c -54.59192,1.01243 -58.896642,-60.3985 -47.498977,-73.07665 10.696894,-11.898643 18.994336,-16.044993 27.037036,-23.822988 8.270709,-7.9985 7.502033,-26.168949 4.318397,-49.207647 16.552369,13.717411 32.610818,19.070056 28.242868,64.409038 10.82634,-7.702459 12.43053,-0.213357 20.91426,-16.555117 6.66273,14.934207 23.32697,33.168674 18.39302,59.925434 -1.32338,7.17668 -9.45649,37.54996 -51.406604,38.32793 z"
     id="path2"
     sodipodi:nodetypes="ssscccss"
     inkscape:label="inner fire" /><path
     style="display:inline;fill:none;stroke:#ff837d;stroke-width:8;stroke-linecap:round;stroke-linejoin:round;stroke-dasharray:none;stroke-dashoffset:16.6"
     d="m 90.450184,170.87534 c -42.513455,-32.94058 -26.41018,-45.52912 -4.01476,-58.22589 16.429346,5.93738 31.248926,12.9946 37.549816,25.97786 -1.41758,19.24348 -16.98634,22.9546 -25.856303,19.22206 -22.041362,-9.27517 -13.127308,-36.38815 1.767741,-17.56893"
     id="path3"
     sodipodi:nodetypes="cccsc"
     inkscape:label="spiral" /></svg>
