<?xml version="1.0" encoding="UTF-8" standalone="no"?>
<svg
   viewBox="0 0 192 192"
   version="1.1"
   id="svg3"
   sodipodi:docname="windowkill.svg"
   inkscape:version="1.4.4 (dcaf3e7d9e, 2026-05-05)"
   xml:space="preserve"
   xmlns:inkscape="http://www.inkscape.org/namespaces/inkscape"
   xmlns:sodipodi="http://sodipodi.sourceforge.net/DTD/sodipodi-0.dtd"
   xmlns="http://www.w3.org/2000/svg"
   xmlns:svg="http://www.w3.org/2000/svg"><defs
     id="defs1" /><sodipodi:namedview
     id="namedview3"
     pagecolor="#505050"
     bordercolor="#ffffff"
     borderopacity="1"
     inkscape:showpageshadow="0"
     inkscape:pageopacity="0"
     inkscape:pagecheckerboard="1"
     inkscape:deskcolor="#505050"
     inkscape:zoom="4.234375"
     inkscape:cx="86.671587"
     inkscape:cy="95.763838"
     inkscape:window-width="1920"
     inkscape:window-height="1048"
     inkscape:window-x="0"
     inkscape:window-y="0"
     inkscape:window-maximized="1"
     inkscape:current-layer="svg3"
     showgrid="false" /><path
     style="baseline-shift:baseline;display:inline;overflow:visible;opacity:1;vector-effect:none;fill:#56595b;stroke-width:1.00227;stroke-linecap:round;stroke-linejoin:round;stroke-dashoffset:16.6;enable-background:accumulate;stop-color:#000000;stop-opacity:1"
     d="M 96.000005,20 C 54.23048,20 20.000002,54.230478 20.000002,96.000003 20.000002,137.76953 54.230475,172.00003 96.000005,172 137.76953,172 172.00003,137.76953 172,96.000003 172,54.230478 137.76953,20 96.000005,20 Z m 0,41.092934 c 19.572015,0 34.907075,15.335054 34.907065,34.907069 0,19.572017 -15.33505,34.907067 -34.907065,34.907067 -19.572015,0 -34.907069,-15.33505 -34.907069,-34.907067 0,-19.572014 15.335055,-34.907069 34.907069,-34.907069 z"
     id="path2" /><path
     style="baseline-shift:baseline;display:inline;overflow:visible;opacity:1;vector-effect:none;fill:#ffffff;stroke:none;stroke-width:1.00227;stroke-linecap:round;stroke-linejoin:round;stroke-dashoffset:16.6;stroke-opacity:1;enable-background:accumulate;stop-color:#000000;stop-opacity:1"
     d="m 96.000005,33.5306 c -34.417441,0 -62.469403,28.051962 -62.469403,62.469403 0,34.417437 28.051962,62.469407 62.469403,62.469397 34.417435,0 62.469405,-28.05196 62.469395,-62.469397 0,-34.417441 -28.05196,-62.469403 -62.469395,-62.469403 z m 0,14.031733 c 26.834125,0 48.437665,21.60354 48.437665,48.43767 0,26.834127 -21.60354,48.437667 -48.437665,48.437667 -26.83413,0 -48.43767,-21.60354 -48.43767,-48.437667 0,-26.83413 21.60354,-48.43767 48.43767,-48.43767 z"
     id="path1" /></svg>
