<?xml version="1.0" encoding="UTF-8" standalone="no"?>
<svg
   viewBox="0 0 192 192"
   version="1.1"
   id="svg3"
   sodipodi:docname="your-only-move-is-hustle.svg"
   inkscape:version="1.4.4 (dcaf3e7d9e, 2026-05-05)"
   xml:space="preserve"
   xmlns:inkscape="http://www.inkscape.org/namespaces/inkscape"
   xmlns:sodipodi="http://sodipodi.sourceforge.net/DTD/sodipodi-0.dtd"
   xmlns="http://www.w3.org/2000/svg"
   xmlns:svg="http://www.w3.org/2000/svg"><defs
     id="defs1" /><sodipodi:namedview
     id="namedview3"
     pagecolor="#505050"
     bordercolor="#ffffff"
     borderopacity="1"
     inkscape:showpageshadow="0"
     inkscape:pageopacity="0"
     inkscape:pagecheckerboard="1"
     inkscape:deskcolor="#505050"
     inkscape:zoom="5.9883106"
     inkscape:cx="81.325108"
     inkscape:cy="102.61659"
     inkscape:window-width="1920"
     inkscape:window-height="1048"
     inkscape:window-x="0"
     inkscape:window-y="0"
     inkscape:window-maximized="1"
     inkscape:current-layer="svg3"
     showgrid="false" /><path
     id="path2"
     style="baseline-shift:baseline;display:inline;overflow:visible;opacity:1;fill:#ffffff;stroke:#56595b;stroke-width:5.07033;stroke-linecap:round;stroke-linejoin:round;stroke-dasharray:none;stroke-dashoffset:16.6;enable-background:accumulate;stop-color:#000000;stop-opacity:1"
     d="m 103.48299,28.675383 c -15.540933,1e-6 -23.868757,11.743123 -25.542506,27.193672 -1.301886,12.017829 2.853537,16.955364 9.201188,20.145394 -10.116522,6.034916 -20.932287,9.113521 -29.17606,13.365814 -4.12028,2.125318 -6.862841,4.744729 -8.597767,5.702134 -6.146158,1.574832 -11.140689,2.060747 -13.232358,9.312753 -1.25327,6.0321 2.621019,11.93798 8.653221,13.19078 6.182536,1.28409 11.55414,-0.87203 15.357538,-2.9709 3.803399,-2.09886 6.902879,-4.45972 10.265428,-6.72015 3.710167,-2.49413 7.674987,-4.85416 12.309401,-6.73997 L 82.136799,115.946 c -5.534744,3.64381 -9.393653,8.94931 -11.847923,13.59083 -1.5175,2.86991 -2.733041,5.5527 -3.905734,8.08877 -7.282042,-3.0453 -14.699934,-4.80041 -23.283882,-4.72768 -6.160672,0.0523 -11.112372,5.08911 -11.059645,11.24978 0.05229,6.15989 5.087905,11.11127 11.247801,11.05964 9.226655,-0.0782 12.844269,1.29553 22.269818,6.84098 5.075317,2.98524 11.596846,1.51202 14.896059,-3.36504 4.739375,-7.00859 7.105072,-14.07696 9.558353,-18.71662 2.453283,-4.63967 3.51527,-5.57723 5.175298,-5.90614 0.132266,-0.0739 14.996936,19.26175 16.294356,26.30627 1.49493,8.10561 10.96096,11.84705 17.59364,6.95387 6.73481,-4.97171 9.99528,-3.9488 19.02758,-5.16935 6.1063,-0.82405 10.38788,-6.44296 9.56232,-12.54906 -0.82504,-6.1055 -6.44364,-10.38595 -12.54906,-9.56033 -3.69274,0.49901 -9.68401,0.85713 -16.4548,2.98674 -3.60679,-7.08999 -8.42395,-13.4052 -13.38683,-20.12087 l 0.54664,-24.078107 c 6.05791,2.220377 8.05432,4.262767 9.79603,6.288407 1.31836,1.53326 3.09258,4.53449 7.42723,7.32819 4.33466,2.7937 9.85777,3.82091 15.99331,3.69382 6.15959,-0.12775 11.04923,-5.2249 10.921,-11.38448 -0.12776,-6.158798 -5.22368,-11.04811 -11.38249,-10.920998 -3.37139,0.41154 -3.96109,-0.845961 -6.04279,-3.262041 -3.88847,-4.522315 -17.3897,-9.747188 -25.68691,-14.845318 1.76662,-1.878408 14.41295,-8.939815 17.37294,-19.858208 3.38681,-12.49281 -15.19517,-27.193674 -30.73612,-27.193672 z"
     sodipodi:nodetypes="sscssccssccsccccccscccccccccsscccscss"
     inkscape:label="dude, look! I'm a stickman!" /></svg>
