<?xml version="1.0" encoding="UTF-8" standalone="no"?>
<svg
   width="192"
   height="192"
   version="1.1"
   viewBox="0 0 192 192"
   id="svg1"
   sodipodi:docname="folder-steam.svg"
   inkscape:version="1.4.4 (dcaf3e7d9e, 2026-05-05)"
   xmlns:inkscape="http://www.inkscape.org/namespaces/inkscape"
   xmlns:sodipodi="http://sodipodi.sourceforge.net/DTD/sodipodi-0.dtd"
   xmlns="http://www.w3.org/2000/svg"
   xmlns:svg="http://www.w3.org/2000/svg">
  <defs
     id="defs1" />
  <sodipodi:namedview
     id="namedview1"
     pagecolor="#ffffff"
     bordercolor="#000000"
     borderopacity="0.25"
     inkscape:showpageshadow="2"
     inkscape:pageopacity="0.0"
     inkscape:pagecheckerboard="0"
     inkscape:deskcolor="#d1d1d1"
     inkscape:zoom="3.1009579"
     inkscape:cx="73.364427"
     inkscape:cy="102.54896"
     inkscape:window-width="1920"
     inkscape:window-height="1048"
     inkscape:window-x="0"
     inkscape:window-y="0"
     inkscape:window-maximized="1"
     inkscape:current-layer="svg1" />
  <rect
     x="20"
     y="20"
     width="152"
     height="152"
     rx="10"
     style="fill-rule:evenodd;fill:#ececec"
     id="rect1"
     inkscape:label="back folder" />
  <path
     d="m20 42.997c0-5.5209 4.4776-9.9965 9.9985-9.9965h33.568c8.4587 0 11.574 13.256 15.366 13.256h83.064c5.5243 0 10.003 4.4753 10.003 9.9983v105.75c0 5.5219-4.477 9.9983-10.003 9.9983h-131.99c-5.5242 0-10.003-4.4674-10.003-9.9965z"
     style="fill-rule:evenodd;fill:#54688c"
     id="path1" />
  <path
     d="m 129.83666,71.476122 c -4.86571,-0.106679 -9.65653,1.256486 -13.74458,3.910833 -5.83784,3.804799 -9.75886,9.930582 -10.75852,16.807992 L 88.72847,107.04549 c -4.781039,-1.25238 -9.873298,-0.54738 -14.147883,1.9587 L 44.211782,96.733928 C 42.299065,95.961141 41.03348,95.75229 39.127,96.014451 c 0,3.097059 0.0252,6.218459 0,9.344889 0.02108,4.62917 0,8.55677 0,13.90258 l 26.982477,10.90237 c 0.498678,1.74624 1.252216,3.4087 2.236437,4.93404 5.570489,8.5776 17.072661,10.9939 25.69054,5.39689 4.23422,-2.75889 7.169246,-7.11341 8.130256,-12.06237 l 21.12287,-9.48792 c 6.49739,1.61959 13.38857,0.46831 19.02488,-3.17841 11.20402,-7.27523 14.41654,-22.212944 7.17531,-33.364022 -4.32858,-6.664615 -11.68286,-10.753578 -19.65353,-10.927315 z m -0.0455,9.816373 c 4.62138,0.07783 9.12452,2.364494 11.8154,6.507827 4.30515,6.629315 2.37921,15.562338 -4.26815,19.878888 -6.64736,4.31687 -15.58895,2.44074 -19.89385,-4.18857 -4.30515,-6.62932 -2.38245,-15.560681 4.26491,-19.877224 2.4928,-1.618849 5.30874,-2.367571 8.0816,-2.320838 z m -0.0552,4.135017 c -1.9681,-0.0291 -3.97129,0.510767 -5.76068,1.672816 -4.77182,3.098831 -6.11917,9.390622 -3.04362,14.126262 3.07555,4.73564 9.37067,6.06445 14.14289,2.96562 4.77182,-3.09883 6.12075,-9.392287 3.0452,-14.127928 -1.9222,-2.959962 -5.10352,-4.588291 -8.38362,-4.636853 z M 84.538238,110.68066 c 4.621387,0.0778 9.124529,2.36283 11.815404,6.50617 4.305148,6.62931 2.379212,15.56233 -4.268147,19.87888 -6.64736,4.31687 -15.58978,2.44241 -19.895513,-4.18699 -0.07135,-0.10986 -0.12696,-0.22509 -0.194897,-0.33619 l 7.777843,3.14265 c 5.839681,2.35934 12.484796,-0.45807 14.843054,-6.29504 2.357759,-5.83569 -0.462912,-12.47731 -6.304764,-14.83806 l -8.109214,-3.27587 c 1.422522,-0.42171 2.884958,-0.62049 4.336334,-0.59604 z"
     style="fill:#ececec;fill-rule:evenodd;stroke-width:0.831544"
     id="path1-5"
     sodipodi:nodetypes="cccccccccccccccccccccccccccscccccccsccscccc"
     inkscape:label="steam" />
</svg>
