<?xml version="1.0" encoding="UTF-8" standalone="no"?>
<svg
   width="192"
   height="192"
   version="1.1"
   viewBox="0 0 192 192"
   id="svg2"
   sodipodi:docname="folder-gdrive.svg"
   inkscape:version="1.4.4 (dcaf3e7d9e, 2026-05-05)"
   xmlns:inkscape="http://www.inkscape.org/namespaces/inkscape"
   xmlns:sodipodi="http://sodipodi.sourceforge.net/DTD/sodipodi-0.dtd"
   xmlns="http://www.w3.org/2000/svg"
   xmlns:svg="http://www.w3.org/2000/svg">
  <defs
     id="defs2" />
  <sodipodi:namedview
     id="namedview2"
     pagecolor="#ffffff"
     bordercolor="#000000"
     borderopacity="0.25"
     inkscape:showpageshadow="2"
     inkscape:pageopacity="0.0"
     inkscape:pagecheckerboard="0"
     inkscape:deskcolor="#d1d1d1"
     inkscape:zoom="3.1009579"
     inkscape:cx="93.35825"
     inkscape:cy="84.812504"
     inkscape:window-width="1920"
     inkscape:window-height="1048"
     inkscape:window-x="0"
     inkscape:window-y="0"
     inkscape:window-maximized="1"
     inkscape:current-layer="svg2" />
  <rect
     x="20"
     y="20"
     width="152"
     height="152"
     rx="10"
     style="fill-rule:evenodd;fill:#9abeff"
     id="rect1" />
  <path
     d="m 20,42.997 c 0,-5.5209 4.4776,-9.9965 9.9985,-9.9965 h 33.568 c 8.4587,0 11.574,13.256 15.366,13.256 h 83.064 c 5.5243,0 10.003,4.4753 10.003,9.9983 v 105.75 c 0,5.5219 -4.477,9.9983 -10.003,9.9983 h -131.99 c -5.5242,0 -10.003,-4.4674 -10.003,-9.9965 z"
     style="fill:#ffffff;fill-rule:evenodd"
     id="path1"
     sodipodi:nodetypes="csssssssscc" />
  <path
     d="m 82.65388,123.7757 -10.977,18.725 h 42.123 c 4.3416,0 10.57,-3.6661 12.674,-7.4473 l 6.2734,-11.277 z"
     style="fill:#9abeff;fill-rule:evenodd"
     id="path2"
     sodipodi:nodetypes="ccsccc" />
  <path
     d="m 82.0445,77.0527 -20.826,36.758 c -2.1514,3.797 -2.1758,11.177 -0.05859,14.982 l 6.1855,11.119 25.332,-44.277 z"
     style="fill:#98dc9a;fill-rule:evenodd"
     id="path3"
     sodipodi:nodetypes="cccccccc" />
  <path
     d="m 86.398,74.5 25.281,44.275 h 21.029 L 111.831,81.927 c -2.1408,-3.7784 -8.4085,-7.4277 -12.744,-7.4277 z"
     style="fill:#f9de81;fill-rule:evenodd"
     id="path4"
     sodipodi:nodetypes="cccccc" />
</svg>
