<?xml version="1.0" encoding="UTF-8" standalone="no"?>
<svg
   width="192"
   height="192"
   version="1.1"
   viewBox="0 0 192 192"
   id="svg1"
   sodipodi:docname="folder-obs-studio.svg"
   inkscape:version="1.4.4 (dcaf3e7d9e, 2026-05-05)"
   xmlns:inkscape="http://www.inkscape.org/namespaces/inkscape"
   xmlns:sodipodi="http://sodipodi.sourceforge.net/DTD/sodipodi-0.dtd"
   xmlns="http://www.w3.org/2000/svg"
   xmlns:svg="http://www.w3.org/2000/svg">
  <defs
     id="defs1" />
  <sodipodi:namedview
     id="namedview1"
     pagecolor="#ffffff"
     bordercolor="#000000"
     borderopacity="0.25"
     inkscape:showpageshadow="2"
     inkscape:pageopacity="0.0"
     inkscape:pagecheckerboard="0"
     inkscape:deskcolor="#d1d1d1"
     inkscape:zoom="3.1009579"
     inkscape:cx="80.136528"
     inkscape:cy="95.131895"
     inkscape:window-width="1920"
     inkscape:window-height="1048"
     inkscape:window-x="0"
     inkscape:window-y="0"
     inkscape:window-maximized="1"
     inkscape:current-layer="svg1" />
  <rect
     x="20"
     y="20"
     width="152"
     height="152"
     rx="10"
     style="fill-rule:evenodd;fill:#83868c"
     id="rect1" />
  <path
     d="m20 42.997c0-5.5209 4.4776-9.9965 9.9985-9.9965h33.568c8.4587 0 11.574 13.256 15.366 13.256h83.064c5.5243 0 10.003 4.4753 10.003 9.9983v105.75c0 5.5219-4.477 9.9983-10.003 9.9983h-131.99c-5.5242 0-10.003-4.4674-10.003-9.9965z"
     style="fill-rule:evenodd;fill:#a0a5af"
     id="path1" />
  <circle
     style="fill:#83868c;stroke:#a0a5af;stroke-width:3.05581;stroke-linecap:round;stroke-opacity:1"
     id="path1-5"
     cx="96"
     cy="108.98218"
     r="46.984451" />
  <path
     class="cls-9"
     d="M 111.47381,95.748099 A 18.449636,18.449636 0 0 1 85.801359,102.27233 18.774663,18.774663 0 0 1 81.642413,98.774548 18.420006,18.420006 0 0 1 77.021852,85.705901 c 0.02627,-0.536118 0.07118,-1.070736 0.141384,-1.602908 0.0692,-0.524487 0.161668,-1.046659 0.275725,-1.562533 q 0.175623,-0.79437 0.421073,-1.570683 0.238163,-0.755599 0.542959,-1.48836 c 0.210625,-0.50792 0.445452,-1.005081 0.698805,-1.492897 0.266798,-0.51371 0.56237,-1.013509 0.877961,-1.49864 q 0.436601,-0.671231 0.930072,-1.302144 c 0.356912,-0.458444 0.736174,-0.900738 1.136299,-1.321958 q 0.605761,-0.637791 1.26575,-1.218802 c 0.448045,-0.394726 0.917886,-0.763932 1.401964,-1.113237 q 0.374309,-0.270115 0.76269,-0.519664 A 22.630531,22.630531 0 0 0 75.375721,100.96927 q 0.07598,0.15779 0.154408,0.3144 0.03563,0.0711 0.07174,0.142 a 0.42599734,0.42599734 0 0 0 0.0435,0.0849 c 0.02996,0.0332 0.03751,0.0277 0.08334,0.0268 0.238726,-0.004 0.477644,-0.003 0.716336,0.002 q 0.661575,0.0143 1.32103,0.0754 a 18.481121,18.481121 0 0 1 16.49763,15.40588 18.643172,18.643172 0 0 1 0.05939,5.57138 18.404264,18.404264 0 0 1 -4.274515,9.43223 18.722807,18.722807 0 0 1 -4.609354,3.86922 18.507048,18.507048 0 0 1 -11.496294,2.45334 18.804294,18.804294 0 0 1 -2.148599,-0.37317 c -0.458778,-0.10775 -0.91303,-0.23437 -1.362242,-0.37699 a 22.464775,22.464775 0 0 0 6.347456,1.7569 22.87592,22.87592 0 0 0 6.149572,-0.0739 22.550893,22.550893 0 0 0 10.062848,-4.15652 22.78332,22.78332 0 0 0 5.531287,-5.84067 q 0.09641,-0.14696 0.190536,-0.2954 c 0.02434,-0.0385 0.07877,-0.099 0.07171,-0.13973 a 0.78659125,0.78659125 0 0 0 -0.09729,-0.18008 q -0.185459,-0.34793 -0.355921,-0.70359 -0.342431,-0.71452 -0.622445,-1.45678 a 18.336665,18.336665 0 0 1 -0.864964,-3.0898 18.600575,18.600575 0 0 1 0.0039,-6.85054 18.323702,18.323702 0 0 1 1.977663,-5.48702 18.434821,18.434821 0 0 1 16.028147,-9.54337 q 0.67939,-0.005 1.3578,0.0393 0.65431,0.0435 1.30454,0.1313 0.64376,0.0881 1.28038,0.22167 0.62324,0.13157 1.23667,0.30467 0.60092,0.17047 1.18927,0.38135 0.59641,0.21415 1.17676,0.46892 0.59163,0.25837 1.16315,0.55985 0.57094,0.30028 1.12047,0.63958 c 0.34387,0.21276 0.68193,0.43569 1.01053,0.67147 q 0.50837,0.36476 0.99323,0.76006 c 0.33365,0.2714 0.65563,0.55735 0.96879,0.85211 q 0.50011,0.47074 0.96379,0.97814 0.46278,0.50441 0.88618,1.04359 c 0.31484,0.39988 0.6147,0.8123 0.89455,1.23741 0.28749,0.43674 0.55925,0.88485 0.81011,1.34411 a 18.539458,18.539458 0 0 1 0.93228,1.97849 19.165435,19.165435 0 0 1 0.73828,2.25675 22.57034,22.57034 0 0 0 -4.78538,-11.19905 22.748132,22.748132 0 0 0 -6.94611,-5.785842 22.488852,22.488852 0 0 0 -8.8848,-2.620953 q -0.39512,-0.03162 -0.79119,-0.04947 z"
     shape-rendering="geometricPrecision"
     id="path18"
     style="fill:#a0a5af;stroke-width:4.293;stroke:#a0a5af;stroke-opacity:1;stroke-dasharray:none;stroke-linecap:round;stroke-linejoin:round" />
</svg>
