<?xml version="1.0" encoding="UTF-8" standalone="no"?>
<svg
   width="192"
   height="192"
   version="1.1"
   viewBox="0 0 192 192"
   id="svg2"
   sodipodi:docname="folder-videos.svg"
   inkscape:version="1.4.4 (dcaf3e7d9e, 2026-05-05)"
   xmlns:inkscape="http://www.inkscape.org/namespaces/inkscape"
   xmlns:sodipodi="http://sodipodi.sourceforge.net/DTD/sodipodi-0.dtd"
   xmlns="http://www.w3.org/2000/svg"
   xmlns:svg="http://www.w3.org/2000/svg">
  <defs
     id="defs2" />
  <sodipodi:namedview
     id="namedview2"
     pagecolor="#ffffff"
     bordercolor="#000000"
     borderopacity="0.25"
     inkscape:showpageshadow="2"
     inkscape:pageopacity="0.0"
     inkscape:pagecheckerboard="0"
     inkscape:deskcolor="#d1d1d1"
     inkscape:zoom="4.3854167"
     inkscape:cx="95.885986"
     inkscape:cy="96"
     inkscape:window-width="1920"
     inkscape:window-height="1048"
     inkscape:window-x="0"
     inkscape:window-y="0"
     inkscape:window-maximized="1"
     inkscape:current-layer="svg2" />
  <rect
     x="20"
     y="20"
     width="152"
     height="152"
     rx="10"
     style="fill-rule:evenodd;fill:#8c72bd"
     id="rect1" />
  <path
     d="m20 42.997c0-5.5209 4.4776-9.9965 9.9985-9.9965h33.568c8.4587 0 11.574 13.256 15.366 13.256h83.064c5.5243 0 10.003 4.4753 10.003 9.9983v105.75c0 5.5219-4.477 9.9983-10.003 9.9983h-131.99c-5.5242 0-10.003-4.4674-10.003-9.9965z"
     style="fill-rule:evenodd;fill:#bd9aff"
     id="path1" />
  <path
     d="m67.812 90.428c0-2.7568 2.2316-4.9917 4.9914-4.9917h47.393c2.7567 0 4.9914 2.2407 4.9914 4.9917v38.143c0 2.7568-2.2316 4.9917-4.9914 4.9917h-47.393c-2.7567 0-4.9914-2.2407-4.9914-4.9917zm73.188-14.428c1.6571 0 3.0001 1.3472 3.0001 3.009v60.982c0 1.6707-1.3432 3.009-3.0001 3.009h-89c-1.6571 0-3.0001-1.3472-3.0001-3.009v-60.982c0-1.6707 1.3432-3.009 3.0001-3.009zm-3.6977 51.901h-5.4164c-1.0929 0-1.9948 0.89599-1.9948 2.0013v5.4341c0 1.0964 0.89308 2.0013 1.9948 2.0013h5.4164c1.0929 0 1.9948-0.896 1.9948-2.0013v-5.4341c0-1.0964-0.89308-2.0013-1.9948-2.0013zm-76.188 0h-5.4164c-1.0929 0-1.9948 0.89599-1.9948 2.0013v5.4341c0 1.0964 0.89308 2.0013 1.9948 2.0013h5.4164c1.0929 0 1.9948-0.896 1.9948-2.0013v-5.4341c0-1.0964-0.89308-2.0013-1.9948-2.0013zm76.188-15.099h-5.4164c-1.0929 0-1.9948 0.89599-1.9948 2.0013v5.4341c0 1.0964 0.89308 2.0013 1.9948 2.0013h5.4164c1.0929 0 1.9948-0.896 1.9948-2.0013v-5.4341c0-1.0964-0.89308-2.0013-1.9948-2.0013zm-76.188 0h-5.4164c-1.0929 0-1.9948 0.89599-1.9948 2.0013v5.4341c0 1.0964 0.89308 2.0013 1.9948 2.0013h5.4164c1.0929 0 1.9948-0.896 1.9948-2.0013v-5.4341c0-1.0964-0.89308-2.0013-1.9948-2.0013zm76.188-15.099h-5.4164c-1.0929 0-1.9948 0.896-1.9948 2.0013v5.4341c0 1.0964 0.89308 2.0013 1.9948 2.0013h5.4164c1.0929 0 1.9948-0.896 1.9948-2.0013v-5.4341c0-1.0964-0.89308-2.0013-1.9948-2.0013zm-76.188 0h-5.4164c-1.0929 0-1.9948 0.896-1.9948 2.0013v5.4341c0 1.0964 0.89308 2.0013 1.9948 2.0013h5.4164c1.0929 0 1.9948-0.896 1.9948-2.0013v-5.4341c0-1.0964-0.89308-2.0013-1.9948-2.0013zm76.188-15.099h-5.4164c-1.0929 0-1.9948 0.896-1.9948 2.0013v5.4341c0 1.0964 0.89308 2.0013 1.9948 2.0013h5.4164c1.0929 0 1.9948-0.896 1.9948-2.0013v-5.4341c0-1.0964-0.89308-2.0013-1.9948-2.0013zm-76.188 0h-5.4164c-1.0929 0-1.9948 0.896-1.9948 2.0013v5.4341c0 1.0964 0.89308 2.0013 1.9948 2.0013h5.4164c1.0929 0 1.9948-0.896 1.9948-2.0013v-5.4341c0-1.0964-0.89308-2.0013-1.9948-2.0013z"
     style="fill-rule:evenodd;fill:#8c72bd"
     id="path2" />
</svg>
