<?xml version="1.0" encoding="UTF-8" standalone="no"?>
<svg
   width="192"
   height="192"
   version="1.1"
   viewBox="0 0 192 192"
   id="svg2"
   sodipodi:docname="folder-chrome.svg"
   inkscape:version="1.4.4 (dcaf3e7d9e, 2026-05-05)"
   xmlns:inkscape="http://www.inkscape.org/namespaces/inkscape"
   xmlns:sodipodi="http://sodipodi.sourceforge.net/DTD/sodipodi-0.dtd"
   xmlns="http://www.w3.org/2000/svg"
   xmlns:svg="http://www.w3.org/2000/svg">
  <defs
     id="defs2">
    <clipPath
       id="a">
      <path
         fill="#ffffff"
         d="M 0,0 H 192 V 192 H 0 Z"
         id="path8" />
    </clipPath>
    <mask
       id="b"
       width="177"
       height="177"
       x="8"
       y="8"
       maskUnits="userSpaceOnUse">
      <path
         fill="#ffffff"
         fill-rule="evenodd"
         d="m 52.747,172.274 c 41.85,24.163 95.365,9.824 119.527,-32.027 C 196.437,98.397 182.098,44.882 140.247,20.72 98.397,-3.442 44.882,10.897 20.72,52.747 -3.442,94.597 10.897,148.112 52.747,172.274 Z"
         clip-rule="evenodd"
         id="path2-3" />
    </mask>
  </defs>
  <sodipodi:namedview
     id="namedview2"
     pagecolor="#ffffff"
     bordercolor="#000000"
     borderopacity="0.25"
     inkscape:showpageshadow="2"
     inkscape:pageopacity="0.0"
     inkscape:pagecheckerboard="0"
     inkscape:deskcolor="#d1d1d1"
     inkscape:zoom="3.1009579"
     inkscape:cx="81.103971"
     inkscape:cy="105.45129"
     inkscape:window-width="1920"
     inkscape:window-height="1048"
     inkscape:window-x="0"
     inkscape:window-y="0"
     inkscape:window-maximized="1"
     inkscape:current-layer="svg2" />
  <rect
     x="20"
     y="20"
     width="152"
     height="152"
     rx="10"
     style="fill-rule:evenodd;fill:#9abeff"
     id="rect1" />
  <path
     d="m 20,42.997 c 0,-5.5209 4.4776,-9.9965 9.9985,-9.9965 h 33.568 c 8.4587,0 11.574,13.256 15.366,13.256 h 83.064 c 5.5243,0 10.003,4.4753 10.003,9.9983 v 105.75 c 0,5.5219 -4.477,9.9983 -10.003,9.9983 h -131.99 c -5.5242,0 -10.003,-4.4674 -10.003,-9.9965 z"
     style="fill:#ffffff;fill-rule:evenodd"
     id="path1"
     sodipodi:nodetypes="csssssssscc" />
  <path
     id="path5"
     style="display:inline;fill:#f9de81;stroke:#ffffff;stroke-width:5;stroke-linecap:round;stroke-linejoin:round;stroke-dasharray:none"
     d="m 105.2035,96.757742 -5.02126,26.161728 -22.96045,17.15465 -0.04747,0.0565 c 0.39884,0.25187 0.803939,0.49667 1.216103,0.73462 16.844262,9.7254 38.383477,3.95351 48.108467,-12.89115 2.95789,-5.12303 4.48175,-10.68003 4.69714,-16.20719 z"
     inkscape:label="yellow"
     sodipodi:nodetypes="cccccccc" />
  <path
     id="path6"
     d="M 79.561322,79.214644 C 73.879776,82.20579 68.94683,86.785421 65.499267,92.756802 55.970104,109.26187 61.320473,130.2729 77.386799,140.26173 l 27.175081,-19.11186 -22.106982,-9.6713 z"
     style="fill:#98dc9a;stroke:#ffffff;stroke-width:5;stroke-linecap:round;stroke-linejoin:round;stroke-dasharray:none"
     inkscape:label="green"
     sodipodi:nodetypes="cscccc" />
  <path
     id="path4-5"
     style="display:inline;fill:#ff837d;stroke:#ffffff;stroke-width:5;stroke-linecap:round;stroke-linejoin:round;stroke-dasharray:none"
     d="M 96.358482,75.143634 C 90.489513,75.08932 84.688575,76.505407 79.51159,79.241769 l 2.421204,31.163941 18.446596,-13.370258 30.81664,14.778928 c 0.51051,-12.662006 -5.85219,-25.173083 -17.58831,-31.948735 -5.44539,-3.143887 -11.38027,-4.667699 -17.249238,-4.722011 z"
     inkscape:label="red"
     sodipodi:nodetypes="scccccs" />
  <path
     fill="#9abeff"
     fill-rule="evenodd"
     d="m 96.000001,124.44826 c 7.777549,0 14.082459,-6.30492 14.082459,-14.08246 0,-7.77755 -6.30491,-14.082464 -14.082459,-14.082464 -7.777543,0 -14.082464,6.304914 -14.082464,14.082464 0,7.77754 6.304921,14.08246 14.082464,14.08246 z"
     clip-rule="evenodd"
     id="path9"
     style="stroke:#ffffff;stroke-width:5;stroke-dasharray:none" />
</svg>
