<?xml version="1.0" encoding="UTF-8" standalone="no"?>
<svg
   width="192"
   height="192"
   version="1.1"
   viewBox="0 0 192 192"
   id="svg1"
   sodipodi:docname="folder-obsidian.svg"
   inkscape:version="1.4.4 (dcaf3e7d9e, 2026-05-05)"
   xmlns:inkscape="http://www.inkscape.org/namespaces/inkscape"
   xmlns:sodipodi="http://sodipodi.sourceforge.net/DTD/sodipodi-0.dtd"
   xmlns="http://www.w3.org/2000/svg"
   xmlns:svg="http://www.w3.org/2000/svg">
  <defs
     id="defs1">
    <clipPath
       id="clippath">
      <rect
         class="cls-5"
         x="8"
         y="8.0100002"
         width="176"
         height="176"
         id="rect1-7" />
    </clipPath>
    <radialGradient
       id="radial-gradient"
       cx="-1.74"
       cy="188.89999"
       fx="-1.74"
       fy="188.89999"
       r="0.92000002"
       gradientTransform="matrix(-15.015714,-57.277222,-38.183893,9.9247637,7246.4709,-1819.1496)"
       gradientUnits="userSpaceOnUse">
      <stop
         offset="0"
         stop-color="#fff"
         stop-opacity=".5"
         id="stop1" />
      <stop
         offset="1"
         stop-color="#000"
         stop-opacity=".25"
         id="stop2" />
    </radialGradient>
    <radialGradient
       id="radial-gradient-2"
       cx="-0.52999997"
       cy="189.94"
       fx="-0.52999997"
       fy="189.94"
       r="0.92000002"
       gradientTransform="matrix(13.77074,-104.31775,-77.066776,-10.173402,14776.392,2000.5021)"
       gradientUnits="userSpaceOnUse">
      <stop
         offset="0"
         stop-color="#fff"
         stop-opacity=".25"
         id="stop3" />
      <stop
         offset="1"
         stop-color="#fff"
         stop-opacity="0"
         id="stop4" />
    </radialGradient>
    <radialGradient
       id="radial-gradient-3"
       cx="-0.47999999"
       cy="189.25"
       fx="-0.47999999"
       fy="189.25"
       r="0.92000002"
       gradientTransform="matrix(19.39754,-89.641432,-61.262814,-13.207548,11674.182,2556.8451)"
       gradientUnits="userSpaceOnUse">
      <stop
         offset="0"
         stop-color="#fff"
         stop-opacity=".5"
         id="stop5" />
      <stop
         offset="1"
         stop-color="#fff"
         stop-opacity=".25"
         id="stop6" />
    </radialGradient>
    <radialGradient
       id="radial-gradient-4"
       cx="-2.7"
       cy="190.42999"
       fx="-2.7"
       fy="190.42999"
       r="0.92000002"
       gradientTransform="matrix(-27.559156,-46.786164,-53.673013,31.8688,10266.009,-6018.0739)"
       gradientUnits="userSpaceOnUse">
      <stop
         offset="0"
         stop-color="#fff"
         stop-opacity=".25"
         id="stop7" />
      <stop
         offset="1"
         stop-color="#000"
         stop-opacity=".3"
         id="stop8" />
    </radialGradient>
  </defs>
  <sodipodi:namedview
     id="namedview1"
     pagecolor="#ffffff"
     bordercolor="#000000"
     borderopacity="0.25"
     inkscape:showpageshadow="2"
     inkscape:pageopacity="0.0"
     inkscape:pagecheckerboard="0"
     inkscape:deskcolor="#d1d1d1"
     inkscape:zoom="2.1927083"
     inkscape:cx="122.45131"
     inkscape:cy="55.638955"
     inkscape:window-width="1920"
     inkscape:window-height="1048"
     inkscape:window-x="0"
     inkscape:window-y="0"
     inkscape:window-maximized="1"
     inkscape:current-layer="svg1" />
  <rect
     x="20"
     y="20"
     width="152"
     height="152"
     rx="10"
     style="fill-rule:evenodd;fill:#8c72bd"
     id="rect1" />
  <path
     d="m20 42.997c0-5.5209 4.4776-9.9965 9.9985-9.9965h33.568c8.4587 0 11.574 13.256 15.366 13.256h83.064c5.5243 0 10.003 4.4753 10.003 9.9983v105.75c0 5.5219-4.477 9.9983-10.003 9.9983h-131.99c-5.5242 0-10.003-4.4674-10.003-9.9965z"
     style="fill-rule:evenodd;fill:#bd9aff"
     id="path1" />
  <path
     class="cls-7"
     d="m 139.35,171.43 c -1.07,8.04 -8.94,14.3 -16.74,12.13 C 111.47,180.5 98.58,175.72 87,174.83 l -17.77,-1.37 c -2.87,-0.2 -5.56,-1.45 -7.56,-3.51 L 31.08,138.43 c -3.36,-3.44 -4.27,-8.58 -2.3,-12.96 0,0 18.91,-41.59 19.63,-43.76 0.69,-2.17 3.3,-21.04 4.81,-31.14 0.41,-2.72 1.72,-5.16 3.78,-6.98 L 93.18,11 c 4.82,-4.33 12.23,-3.93 16.55,0.89 0.17,0.19 0.34,0.39 0.5,0.59 l 30.39,38.64 c 1.69,2.21 2.61,4.92 2.61,7.7 0,7.32 0.62,22.34 4.68,32.04 3.95,9.38 11.17,19.59 14.95,24.58 1.47,1.91 1.65,4.51 0.45,6.6 -4.91,8.23 -10.04,16.32 -15.4,24.27 -5.16,7.67 -7.53,17.15 -8.59,25.13 h 0.03 z"
     id="path8"
     style="display:none;fill:#bd9aff"
     transform="matrix(0.49190123,0,0,0.49190123,50.285677,63.587289)" />
  <path
     class="cls-2"
     d="m 80.986919,143.86276 c 5.601222,-11.36382 5.439837,-19.51177 3.058433,-25.30193 -2.192467,-5.35718 -6.266441,-8.72657 -9.470513,-10.82457 -0.08266,0.31096 -0.177129,0.59437 -0.299152,0.87777 l -7.537835,16.80367 c -0.779369,1.72406 -0.42511,3.74727 0.893519,5.10132 l 12.056601,12.40693 c 0.373939,0.38968 0.814794,0.70851 1.298947,0.94862 z"
     id="path9"
     style="fill:#8c72bd;stroke-width:0.393621" />
  <path
     class="cls-4"
     d="m 103.32455,116.91863 c 1.58857,0.16918 3.14824,0.51165 4.65016,1.07693 4.82346,1.80313 9.2178,5.84262 12.83643,13.65753 0.25582,-0.4415 0.51164,-0.87887 0.79635,-1.30386 2.20748,-3.28028 4.32832,-6.61833 6.35426,-10.01415 0.50751,-0.85824 0.43324,-1.93928 -0.18568,-2.72325 -1.55968,-2.07132 -4.53876,-6.26761 -6.16858,-10.14206 -1.67522,-3.99823 -1.91454,-10.212202 -1.93104,-13.22016 0,-1.147067 -0.36722,-2.269378 -1.07692,-3.177129 L 106.0478,75.129067 c -0.0701,-0.08252 -0.14028,-0.165046 -0.21456,-0.239317 0.82523,2.47156 0.92426,5.132921 0.28471,7.65812 -0.60655,2.042441 -1.44415,4.006485 -2.49632,5.859123 l -1.02328,2.013557 c -1.63808,3.115238 -2.57472,6.552315 -2.752136,10.07191 -0.169172,4.17153 0.680816,9.41586 3.474206,16.42617 z"
     id="path10"
     style="fill:#8c72bd;stroke-width:0.412614" />
  <path
     class="cls-6"
     d="m 99.815401,116.39042 c -2.915372,-7.31212 -3.819698,-12.78975 -3.625915,-17.156349 0.180865,-3.668979 1.162705,-7.256137 2.872311,-10.511709 0.340202,-0.710542 0.71054,-1.408165 1.067963,-2.088562 1.05074,-2.058417 2.07134,-3.996258 2.60532,-6.127883 0.66748,-2.639769 0.56413,-5.413034 -0.29714,-7.992516 -1.86893,-2.062723 -5.055604,-2.21775 -7.118329,-0.353117 L 79.717842,86.194556 c -0.869876,0.783749 -1.442614,1.847408 -1.614867,3.005806 l -1.894777,12.583048 -0.07321,0.34019 c 3.522563,2.29527 7.992515,5.98148 10.378211,11.84237 0.49092,1.18854 0.878488,2.41584 1.154093,3.66897 4.142672,-1.00767 8.246587,-1.62779 12.152416,-1.2273 v -0.0129 z"
     id="path11"
     style="fill:#8c72bd;stroke-width:0.430631" />
  <path
     class="cls-1"
     d="m 109.23575,151.12663 c 3.21614,0.87825 6.46526,-1.69877 6.90233,-5.018 0.36697,-3.15841 1.29881,-6.22611 2.75021,-9.05878 -3.62847,-7.79708 -8.00737,-11.85024 -12.81096,-13.64798 -5.10046,-1.90082 -10.658608,-1.27408 -16.29922,0.099 1.261716,5.7272 0.511284,13.22328 -4.308799,22.99127 0.564885,0.25564 1.146263,0.42469 1.772999,0.46593 0,0 3.45941,0.2845 7.599156,0.58137 4.110885,0.28451 10.262774,2.42448 14.402524,3.57074 v 0.0124 z"
     id="path12"
     style="fill:#8c72bd;stroke-width:0.412325" />
</svg>
