<?xml version="1.0" encoding="UTF-8" standalone="no"?>
<svg
   width="192"
   height="192"
   version="1.1"
   viewBox="0 0 192 192"
   id="svg1"
   sodipodi:docname="folder-gitlab.svg"
   inkscape:version="1.4.4 (dcaf3e7d9e, 2026-05-05)"
   xmlns:inkscape="http://www.inkscape.org/namespaces/inkscape"
   xmlns:sodipodi="http://sodipodi.sourceforge.net/DTD/sodipodi-0.dtd"
   xmlns="http://www.w3.org/2000/svg"
   xmlns:svg="http://www.w3.org/2000/svg">
  <defs
     id="defs1" />
  <sodipodi:namedview
     id="namedview1"
     pagecolor="#ffffff"
     bordercolor="#000000"
     borderopacity="0.25"
     inkscape:showpageshadow="2"
     inkscape:pageopacity="0.0"
     inkscape:pagecheckerboard="0"
     inkscape:deskcolor="#d1d1d1"
     inkscape:zoom="4.3854167"
     inkscape:cx="83.002375"
     inkscape:cy="99.420427"
     inkscape:window-width="1920"
     inkscape:window-height="1048"
     inkscape:window-x="0"
     inkscape:window-y="0"
     inkscape:window-maximized="1"
     inkscape:current-layer="svg1" />
  <rect
     x="20"
     y="20"
     width="152"
     height="152"
     rx="10"
     style="fill-rule:evenodd;fill:#f8c18c"
     id="rect1" />
  <path
     d="m20 42.997c0-5.5209 4.4776-9.9965 9.9985-9.9965h33.568c8.4587 0 11.574 13.256 15.366 13.256h83.064c5.5243 0 10.003 4.4753 10.003 9.9983v105.75c0 5.5219-4.477 9.9983-10.003 9.9983h-131.99c-5.5242 0-10.003-4.4674-10.003-9.9965z"
     style="fill-rule:evenodd;fill:#8e6f60"
     id="path1" />
  <path
     class="cls-3"
     d="m 135.73109,100.64962 -0.11265,-0.29468 -11.19071,-29.197032 c -0.22361,-0.572015 -0.62577,-1.053887 -1.1492,-1.386705 -0.52175,-0.334539 -1.13364,-0.492272 -1.7542,-0.459337 -0.61705,0.03294 -1.2099,0.258269 -1.69352,0.643079 -0.48015,0.388284 -0.82682,0.913496 -0.98976,1.50631 l -7.5558,23.12502 H 80.715392 L 73.159578,71.461255 C 72.99665,70.868441 72.649975,70.343233 72.169823,69.954945 71.686204,69.570141 71.0934,69.3448 70.476309,69.311866 c -0.620523,-0.03294 -1.232451,0.124798 -1.754158,0.459337 -0.523486,0.332818 -0.925643,0.81469 -1.149251,1.386705 l -11.190665,29.198772 -0.112694,0.29294 c -3.315976,8.64958 -0.490562,18.42757 6.89365,24.01252 0.01384,0.009 0.02597,0.0191 0.03986,0.0294 l 0.09881,0.0745 17.046022,12.76114 8.43118,6.38229 5.130821,3.87931 c 1.235877,0.93603 2.94497,0.93603 4.180889,0 l 5.130777,-3.87931 8.42945,-6.38229 17.14657,-12.83568 c 0.0156,-0.0122 0.0295,-0.0226 0.0451,-0.0347 7.37901,-5.58494 10.20269,-15.35947 6.88845,-24.00731 z"
     id="path1-5"
     style="fill:#ff837d;stroke-width:0.527888"
     inkscape:label="fox-shape" />
  <g
     id="g2"
     inkscape:label="cheeks"
     style="fill:#f8c18c"
     transform="matrix(0.52788872,0,0,0.52788872,45.322681,58.221924)">
    <path
       class="cls-2"
       d="m 265.26416,174.37243 -0.2134,-0.55822 c -10.5174,2.16062 -20.20405,6.6099 -28.49844,12.81593 -0.1346,0.0985 -25.20497,19.05805 -46.55171,35.19699 15.84998,11.98517 29.6477,22.40405 29.6477,22.40405 l 32.48142,-24.31511 c 0.0296,-0.023 0.0559,-0.0427 0.0854,-0.0657 13.97834,-10.57977 19.32735,-29.09604 13.04905,-45.47796 z"
       id="path2-3"
       style="fill:#f8c18c"
       transform="translate(-94.000014,-93.999994)"
       inkscape:label="right-cheek" />
    <path
       class="cls-2"
       d="M 143.44561,186.63014 C 135.1545,180.4274 125.47115,175.97483 114.95054,173.8175 l -0.21348,0.55493 c -6.28158,16.38521 -0.92929,34.90803 13.05891,45.48782 0.0262,0.0164 0.0492,0.0361 0.0755,0.0558 l 0.18719,0.14119 32.29094,24.17392 c 0,0 13.79772,-10.41888 29.65099,-22.40405 -21.34673,-16.13894 -46.42031,-35.09848 -46.55499,-35.19699 z"
       id="path4"
       style="fill:#f8c18c"
       transform="translate(-94.000014,-93.999994)"
       inkscape:label="left-cheeck" />
  </g>
  <path
     class="cls-1"
     d="m 80.348446,137.52727 8.43118,6.38231 5.130819,3.87929 c 1.235877,0.93603 2.94497,0.93603 4.18089,0 l 5.130775,-3.87929 8.42944,-6.38231 c 0,0 -7.28365,-5.50001 -15.650681,-11.82685 -8.368762,6.32684 -15.652423,11.82685 -15.652423,11.82685 z"
     id="path3-5"
     style="fill:#fcecdc;stroke-width:0.527888"
     inkscape:label="nose" />
</svg>
