<?xml version="1.0" encoding="UTF-8" standalone="no"?>
<svg
   width="192"
   height="192"
   version="1.1"
   viewBox="0 0 192 192"
   id="svg1"
   sodipodi:docname="folder-codeberg.svg"
   inkscape:version="1.4.4 (dcaf3e7d9e, 2026-05-05)"
   xmlns:inkscape="http://www.inkscape.org/namespaces/inkscape"
   xmlns:sodipodi="http://sodipodi.sourceforge.net/DTD/sodipodi-0.dtd"
   xmlns="http://www.w3.org/2000/svg"
   xmlns:svg="http://www.w3.org/2000/svg">
  <defs
     id="defs1" />
  <sodipodi:namedview
     id="namedview1"
     pagecolor="#ffffff"
     bordercolor="#000000"
     borderopacity="0.25"
     inkscape:showpageshadow="2"
     inkscape:pageopacity="0.0"
     inkscape:pagecheckerboard="0"
     inkscape:deskcolor="#d1d1d1"
     inkscape:zoom="2.1927084"
     inkscape:cx="-12.769596"
     inkscape:cy="80.038004"
     inkscape:window-width="1920"
     inkscape:window-height="1048"
     inkscape:window-x="0"
     inkscape:window-y="0"
     inkscape:window-maximized="1"
     inkscape:current-layer="svg1" />
  <rect
     x="20"
     y="20"
     width="152"
     height="152"
     rx="10"
     style="fill-rule:evenodd;fill:#d8d8d8"
     id="rect1" />
  <path
     d="m20 42.997c0-5.5209 4.4776-9.9965 9.9985-9.9965h33.568c8.4587 0 11.574 13.256 15.366 13.256h83.064c5.5243 0 10.003 4.4753 10.003 9.9983v105.75c0 5.5219-4.477 9.9983-10.003 9.9983h-131.99c-5.5242 0-10.003-4.4674-10.003-9.9965z"
     style="fill-rule:evenodd;fill:#ffffff"
     id="path1" />
  <path
     id="circle1"
     style="display:inline;fill:#728dbe;stroke:none;stroke-width:0.567264"
     class="a"
     inkscape:label="circle"
     d="m 96,65.497174 a 49.91924,49.91924 0 0 0 -49.919241,49.919246 49.91924,49.91924 0 0 0 7.465286,26.26033 L 96,86.867076 138.45396,141.67675 A 49.91924,49.91924 0 0 0 145.91924,115.41642 49.91924,49.91924 0 0 0 96,65.497174 Z" />
  <path
     id="path2"
     style="display:inline;fill:#9abeff;stroke-width:4.53812;stroke-linecap:round;stroke-linejoin:round;stroke-dasharray:104.377, 36.3049"
     d="m 96,86.867076 19.97833,74.296094 a 49.91924,49.91924 0 0 0 22.86229,-20.12237 z" />
</svg>
