<?xml version="1.0" encoding="UTF-8" standalone="no"?>
<svg
   width="192"
   height="192"
   version="1.1"
   viewBox="0 0 192 192"
   id="svg1"
   sodipodi:docname="folder-pictures.svg"
   inkscape:version="1.4.4 (dcaf3e7d9e, 2026-05-05)"
   xmlns:inkscape="http://www.inkscape.org/namespaces/inkscape"
   xmlns:sodipodi="http://sodipodi.sourceforge.net/DTD/sodipodi-0.dtd"
   xmlns="http://www.w3.org/2000/svg"
   xmlns:svg="http://www.w3.org/2000/svg">
  <defs
     id="defs1" />
  <sodipodi:namedview
     id="namedview1"
     pagecolor="#ffffff"
     bordercolor="#000000"
     borderopacity="0.25"
     inkscape:showpageshadow="2"
     inkscape:pageopacity="0.0"
     inkscape:pagecheckerboard="0"
     inkscape:deskcolor="#d1d1d1"
     inkscape:zoom="3.1009579"
     inkscape:cx="96.260579"
     inkscape:cy="121.57534"
     inkscape:window-width="1920"
     inkscape:window-height="1048"
     inkscape:window-x="0"
     inkscape:window-y="0"
     inkscape:window-maximized="1"
     inkscape:current-layer="svg1" />
  <rect
     x="20"
     y="20"
     width="152"
     height="152"
     rx="10"
     style="fill-rule:evenodd;fill:#728dbe"
     id="rect1" />
  <path
     d="m20 42.997c0-5.5209 4.4776-9.9965 9.9985-9.9965h33.568c8.4587 0 11.574 13.256 15.366 13.256h83.064c5.5243 0 10.003 4.4753 10.003 9.9983v105.75c0 5.5219-4.477 9.9983-10.003 9.9983h-131.99c-5.5242 0-10.003-4.4674-10.003-9.9965z"
     style="fill-rule:evenodd;fill:#9abeff"
     id="path1" />
  <path
     d="m 80.887447,116.40171 -14.911446,19.3446 h 60.048779 l -19.34459,-25.79227 -14.911446,19.34459 z m 53.801673,23.57672 c 0,2.28377 -0.87319,4.29876 -2.6195,6.04515 -1.74639,1.74638 -3.76138,2.6195 -6.04515,2.6195 H 65.975685 c -2.283768,0 -4.298764,-0.87319 -6.045147,-2.6195 -1.746382,-1.74639 -2.619653,-3.76138 -2.619653,-6.04515 V 79.929645 c 0,-2.283767 0.873191,-4.298764 2.619653,-6.045146 1.746383,-1.746383 3.761379,-2.619653 6.045147,-2.619653 h 60.048785 c 2.28377,0 4.29876,0.873191 6.04515,2.619653 1.74638,1.746382 2.6195,3.761379 2.6195,6.045146 z"
     style="display:inline;opacity:1;fill:#728dbe;fill-rule:evenodd;stroke-width:1.57915"
     id="path1-5" />
</svg>
