<?xml version="1.0" encoding="UTF-8" standalone="no"?>
<svg
   width="192"
   height="192"
   version="1.1"
   viewBox="0 0 192 192"
   id="svg1"
   sodipodi:docname="folder-github.svg"
   xml:space="preserve"
   inkscape:version="1.4.4 (dcaf3e7d9e, 2026-05-05)"
   xmlns:inkscape="http://www.inkscape.org/namespaces/inkscape"
   xmlns:sodipodi="http://sodipodi.sourceforge.net/DTD/sodipodi-0.dtd"
   xmlns="http://www.w3.org/2000/svg"
   xmlns:svg="http://www.w3.org/2000/svg"><defs
     id="defs1"><inkscape:path-effect
       effect="mirror_symmetry"
       start_point="96.570328,114.6"
       end_point="0,114.60456"
       center_point="48.285164,114.60228"
       id="path-effect2"
       is_visible="true"
       lpeversion="1.2"
       lpesatellites=""
       mode="free"
       discard_orig_path="false"
       fuse_paths="false"
       oposite_fuse="false"
       split_items="false"
       split_open="false"
       link_styles="false" /><style
       id="style1">.cls-1{fill:#020202;}.cls-2{fill:none;stroke:#020202;stroke-miterlimit:10;stroke-width:1.92px;}</style></defs><sodipodi:namedview
     id="namedview1"
     pagecolor="#ffffff"
     bordercolor="#000000"
     borderopacity="0.25"
     inkscape:showpageshadow="2"
     inkscape:pageopacity="0.0"
     inkscape:pagecheckerboard="0"
     inkscape:deskcolor="#d1d1d1"
     inkscape:zoom="2.8284271"
     inkscape:cx="75.130096"
     inkscape:cy="77.781747"
     inkscape:window-width="1920"
     inkscape:window-height="1048"
     inkscape:window-x="0"
     inkscape:window-y="0"
     inkscape:window-maximized="1"
     inkscape:current-layer="svg1" /><rect
     x="20"
     y="20"
     width="152"
     height="152"
     rx="10"
     style="fill-rule:evenodd;fill:#ffffff"
     id="rect1" /><path
     d="m20 42.997c0-5.5209 4.4776-9.9965 9.9985-9.9965h33.568c8.4587 0 11.574 13.256 15.366 13.256h83.064c5.5243 0 10.003 4.4753 10.003 9.9983v105.75c0 5.5219-4.477 9.9983-10.003 9.9983h-131.99c-5.5242 0-10.003-4.4674-10.003-9.9965z"
     style="fill-rule:evenodd;fill:#4a4a4a"
     id="path1" /><path
     fill="#1b1f23"
     fill-rule="evenodd"
     d="m 96,75.033974 c -20.16625,0 -36.5,16.33375 -36.5,36.500006 0,16.15125 10.44812,29.79313 24.95687,34.62937 1.82501,0.31938 2.50938,-0.77562 2.50938,-1.73375 0,-0.86687 -0.0456,-3.74125 -0.0456,-6.79812 -9.17062,1.68812 -11.54312,-2.23563 -12.27312,-4.28875 -0.41063,-1.04937 -2.19,-4.28875 -3.74125,-5.15562 -1.2775,-0.68438 -3.1025,-2.3725 -0.0456,-2.41813 2.87438,-0.0456 4.9275,2.64625 5.61188,3.74125 3.285,5.52063 8.53187,3.96938 10.63062,3.01125 0.31938,-2.3725 1.2775,-3.96938 2.32688,-4.88187 -8.12125,-0.9125 -16.6075,-4.06063 -16.6075,-18.02188 0,-3.96938 1.41437,-7.25438 3.74125,-9.809384 -0.365,-0.9125 -1.6425,-4.653747 0.365,-9.672497 0,0 3.05687,-0.958125 10.0375,3.74125 2.92,-0.82125 6.0225,-1.231875 9.125,-1.231875 3.1025,0 6.205,0.410625 9.125,1.231875 6.98062,-4.745 10.0375,-3.74125 10.0375,-3.74125 2.0075,5.01875 0.73,8.759997 0.365,9.672497 2.32687,2.555004 3.74125,5.794384 3.74125,9.809384 0,14.00687 -8.53188,17.10938 -16.65313,18.02188 1.32313,1.14062 2.46375,3.33062 2.46375,6.7525 0,4.88187 -0.0456,8.80562 -0.0456,10.0375 0,0.95812 0.68437,2.09875 2.50937,1.73375 A 36.559312,36.559312 0 0 0 132.5,111.53398 C 132.5,91.367724 116.16625,75.033974 96,75.033974 Z"
     clip-rule="evenodd"
     style="fill:#fefefe;fill-opacity:1;stroke-width:4.5625"
     id="path1-5" /></svg>
