<?xml version="1.0" encoding="UTF-8" standalone="no"?>
<svg
   width="192"
   height="192"
   version="1.1"
   viewBox="0 0 192 192"
   id="svg1"
   sodipodi:docname="folder-design.svg"
   xml:space="preserve"
   inkscape:version="1.4.4 (dcaf3e7d9e, 2026-05-05)"
   xmlns:inkscape="http://www.inkscape.org/namespaces/inkscape"
   xmlns:sodipodi="http://sodipodi.sourceforge.net/DTD/sodipodi-0.dtd"
   xmlns="http://www.w3.org/2000/svg"
   xmlns:svg="http://www.w3.org/2000/svg"><defs
     id="defs1"><style
       id="style1">.cls-1{fill:#020202;}.cls-2{fill:none;stroke:#020202;stroke-miterlimit:10;stroke-width:1.92px;}</style></defs><sodipodi:namedview
     id="namedview1"
     pagecolor="#ffffff"
     bordercolor="#000000"
     borderopacity="0.25"
     inkscape:showpageshadow="2"
     inkscape:pageopacity="0.0"
     inkscape:pagecheckerboard="0"
     inkscape:deskcolor="#d1d1d1"
     inkscape:zoom="3.1009579"
     inkscape:cx="64.818681"
     inkscape:cy="87.06987"
     inkscape:window-width="1920"
     inkscape:window-height="1048"
     inkscape:window-x="0"
     inkscape:window-y="0"
     inkscape:window-maximized="1"
     inkscape:current-layer="svg1" /><rect
     x="20"
     y="20"
     width="152"
     height="152"
     rx="10"
     style="fill-rule:evenodd;fill:#4a4a4a"
     id="rect1" /><path
     d="m20 42.997c0-5.5209 4.4776-9.9965 9.9985-9.9965h33.568c8.4587 0 11.574 13.256 15.366 13.256h83.064c5.5243 0 10.003 4.4753 10.003 9.9983v105.75c0 5.5219-4.477 9.9983-10.003 9.9983h-131.99c-5.5242 0-10.003-4.4674-10.003-9.9965z"
     style="fill-rule:evenodd;fill:#83868c"
     id="path1" /><path
     d="m 96.41822,55.579594 a 2.2620913,2.2620913 0 0 0 -2.226481,2.297156 v 6.909324 a 15.833056,15.833056 0 0 0 -14.021294,15.709785 15.833056,15.833056 0 0 0 5.698884,12.16656 L 58.223682,149.92493 a 6.7862739,6.7862739 0 1 0 12.219726,5.902 l 21.249099,-44.02721 c 1.302152,-1.1213 2.737977,-1.89961 4.311679,-1.89961 1.563959,0 2.989161,0.77242 4.285204,1.88198 l 21.2672,44.04415 a 6.7862739,6.7862739 0 1 0 12.21973,-5.90198 L 106.13067,92.652693 A 15.833056,15.833056 0 0 0 111.83838,80.495182 15.833056,15.833056 0 0 0 98.71729,64.918833 V 57.87697 a 2.2620913,2.2620913 0 0 0 -2.297274,-2.297138 z m -0.415254,18.12999 a 6.7855954,6.7855954 0 0 1 6.785594,6.785598 6.7855954,6.7855954 0 0 1 -6.785594,6.785596 6.7855954,6.7855954 0 0 1 -6.785598,-6.785596 6.7855954,6.7855954 0 0 1 6.785598,-6.785598 z"
     style="fill:#4a4a4a;stroke:none;stroke-width:9.04746;stroke-linecap:round;stroke-linejoin:round;paint-order:stroke fill markers"
     id="path5" /></svg>
