<?xml version="1.0" encoding="UTF-8" standalone="no"?>
<svg
   width="192"
   height="192"
   version="1.1"
   viewBox="0 0 192 192"
   id="svg1"
   sodipodi:docname="folder-gimp.svg"
   inkscape:version="1.4.4 (dcaf3e7d9e, 2026-05-05)"
   xmlns:inkscape="http://www.inkscape.org/namespaces/inkscape"
   xmlns:sodipodi="http://sodipodi.sourceforge.net/DTD/sodipodi-0.dtd"
   xmlns="http://www.w3.org/2000/svg"
   xmlns:svg="http://www.w3.org/2000/svg">
  <defs
     id="defs1" />
  <sodipodi:namedview
     id="namedview1"
     pagecolor="#ffffff"
     bordercolor="#000000"
     borderopacity="0.25"
     inkscape:showpageshadow="2"
     inkscape:pageopacity="0.0"
     inkscape:pagecheckerboard="0"
     inkscape:deskcolor="#d1d1d1"
     inkscape:zoom="4.3854168"
     inkscape:cx="80.494059"
     inkscape:cy="93.833726"
     inkscape:window-width="1920"
     inkscape:window-height="1048"
     inkscape:window-x="0"
     inkscape:window-y="0"
     inkscape:window-maximized="1"
     inkscape:current-layer="svg1" />
  <rect
     x="20"
     y="20"
     width="152"
     height="152"
     rx="10"
     style="fill-rule:evenodd;fill:#d8d8d8"
     id="rect1" />
  <path
     d="m20 42.997c0-5.5209 4.4776-9.9965 9.9985-9.9965h33.568c8.4587 0 11.574 13.256 15.366 13.256h83.064c5.5243 0 10.003 4.4753 10.003 9.9983v105.75c0 5.5219-4.477 9.9983-10.003 9.9983h-131.99c-5.5242 0-10.003-4.4674-10.003-9.9965z"
     style="fill-rule:evenodd;fill:#979797"
     id="path1" />
  <path
     id="path1-5"
     style="color:#000000;fill:#ffffff;fill-rule:evenodd;stroke-width:0.619751"
     d="m 129.01687,69.483842 c -0.4509,0.0045 -0.95246,0.559015 -1.35432,1.764595 -0.75354,2.259524 -5.46943,16.29271 -29.774117,20.249917 A 11.573838,11.573838 0 0 0 84.140091,92.448681 C 69.619294,91.434088 63.364772,78.534974 63.364772,78.534974 l -0.378874,16.341852 a 9.8589885,9.8589885 0 0 0 -1.548992,5.306334 9.8589885,9.8589885 0 0 0 0.768216,3.81597 c -0.08961,0.15626 -0.186531,0.31324 -0.288865,0.47097 a 14.788482,10.502289 54.192 0 0 -0.401901,-0.57354 14.788777,10.502498 54.192 1 0 -17.034714,12.28935 14.788482,10.502289 54.192 0 0 14.721694,7.11491 c 13.777662,10.11961 39.27223,18.88761 55.906014,7.31165 3.35167,1.84913 7.03673,3.63962 10.4515,4.78303 0.004,0.20839 0.0319,0.40728 0.0858,0.59029 l 0.80589,-0.30561 c 0.13546,0.0413 0.27172,0.0824 0.40609,0.12141 l 0.3412,0.33073 7.70937,2.8154 c -0.28792,2.68667 1.16732,5.76087 4.52556,7.04581 6.0976,2.33312 11.76605,5.25401 11.76605,5.25401 -2.90861,-9.87323 -3.94071,-17.71309 -11.54207,-17.01587 -1.3866,0.12725 -2.48124,0.6756 -3.27173,1.47572 l -6.87417,-4.40416 -0.45841,-0.0376 c -0.11829,-0.0856 -0.23698,-0.17247 -0.35795,-0.25747 l -0.24909,-0.79752 c -0.13914,0.0871 -0.28457,0.19901 -0.4333,0.33074 -2.36606,-1.57732 -5.15513,-3.02863 -7.95218,-4.30369 8.48183,-9.39075 13.20531,-26.397419 10.07682,-54.79451 -0.16111,-1.26276 -0.60886,-1.964338 -1.11989,-1.959264 z"
     inkscape:label="gimp" />
</svg>
