<?xml version="1.0" encoding="UTF-8" standalone="no"?>
<svg
   width="192"
   height="192"
   fill="none"
   version="1.1"
   viewBox="0 0 192 192"
   id="svg10"
   sodipodi:docname="delta-icons.svg"
   inkscape:version="1.4.4 (dcaf3e7d9e, 2026-05-05)"
   xmlns:inkscape="http://www.inkscape.org/namespaces/inkscape"
   xmlns:sodipodi="http://sodipodi.sourceforge.net/DTD/sodipodi-0.dtd"
   xmlns="http://www.w3.org/2000/svg"
   xmlns:svg="http://www.w3.org/2000/svg">
  <defs
     id="defs10" />
  <sodipodi:namedview
     id="namedview10"
     pagecolor="#ffffff"
     bordercolor="#000000"
     borderopacity="0.25"
     inkscape:showpageshadow="2"
     inkscape:pageopacity="0.0"
     inkscape:pagecheckerboard="0"
     inkscape:deskcolor="#d1d1d1"
     inkscape:zoom="2.1927083"
     inkscape:cx="57.235154"
     inkscape:cy="118.57482"
     inkscape:window-width="1920"
     inkscape:window-height="1048"
     inkscape:window-x="0"
     inkscape:window-y="0"
     inkscape:window-maximized="1"
     inkscape:current-layer="svg10" />
  <g
     clip-rule="evenodd"
     fill-rule="evenodd"
     id="g10">
    <path
       d="m 84.052446,37.866088 c 6.597372,6.597372 17.293904,6.597372 23.891064,0 6.59716,-6.597372 6.59716,-17.294107 0,-23.891058 -6.59737,-6.5975815 -17.293902,-6.5975815 -23.891064,0 -6.597582,6.597372 -6.597582,17.294108 0,23.891058 z"
       fill="#ff837d"
       id="path2"
       style="stroke-width:2.10235" />
    <path
       d="m 84.052446,178.02528 c 6.597372,6.59716 17.293904,6.59716 23.891064,0 6.59716,-6.59926 6.59716,-17.296 0,-23.89316 -6.59737,-6.59717 -17.293902,-6.59717 -23.891064,0 -6.597582,6.59716 -6.597582,17.2939 0,23.89316 z"
       fill="#b1b5bd"
       id="path3"
       style="stroke-width:2.10235" />
    <path
       d="m 119.09225,143.0002 c 6.59716,6.59716 17.29389,6.59716 23.89316,0 6.59716,-6.59926 6.59716,-17.296 0,-23.89316 -6.59927,-6.59717 -17.296,-6.59717 -23.89316,0 -6.59716,6.59716 -6.59716,17.2939 0,23.89316 z"
       fill="#bd9aff"
       id="path4"
       style="stroke-width:2.10235" />
    <path
       d="m 154.13835,107.9541 c 6.59716,6.59715 17.2939,6.59715 23.89107,0 6.59715,-6.59843 6.59715,-17.294953 0,-23.893166 -6.59717,-6.597371 -17.29391,-6.597371 -23.89107,0 -6.59716,6.597582 -6.59716,17.294106 0,23.893166 z"
       fill="#f9de81"
       id="path5"
       style="stroke-width:2.10235" />
    <path
       d="m 49.010545,143.0002 c 6.597372,6.59716 17.294108,6.59716 23.891059,0 6.597372,-6.59926 6.597372,-17.296 0,-23.89316 -6.597372,-6.59717 -17.294108,-6.59717 -23.891059,0 -6.596951,6.59716 -6.597371,17.2939 0,23.89316 z"
       fill="#96dfd3"
       id="path6"
       style="stroke-width:2.10235" />
    <path
       d="m 84.052446,107.9541 c 6.597372,6.59715 17.293904,6.59715 23.891064,0 6.59716,-6.59843 6.59716,-17.294953 0,-23.893166 -6.59737,-6.597371 -17.293902,-6.597371 -23.891064,0 -6.597582,6.597582 -6.597582,17.294106 0,23.893166 z"
       fill="#9abeff"
       id="path7"
       style="stroke-width:2.10235" />
    <path
       d="m 119.09225,72.907989 c 6.59716,6.597372 17.29389,6.597372 23.89316,0 6.59716,-6.597582 6.59716,-17.294107 0,-23.891058 -6.59927,-6.597582 -17.296,-6.597582 -23.89316,0 -6.59716,6.597372 -6.59716,17.293898 0,23.891058 z"
       fill="#f8c18c"
       id="path8"
       style="stroke-width:2.10235" />
    <path
       d="m 13.970747,107.9541 c 6.597582,6.59715 17.294107,6.59715 23.891058,0 6.597582,-6.59843 6.597582,-17.294953 0,-23.893166 -6.597372,-6.597371 -17.293897,-6.597371 -23.891058,0 -6.5973719,6.597582 -6.5973719,17.294106 0,23.893166 z"
       fill="#d3b69a"
       id="path9"
       style="stroke-width:2.10235" />
    <path
       d="m 49.010545,72.907989 c 6.597372,6.597372 17.294108,6.597372 23.891059,0 6.597372,-6.597582 6.597372,-17.294107 0,-23.891058 -6.597372,-6.597582 -17.294108,-6.597582 -23.891059,0 -6.597371,6.597372 -6.597371,17.293898 0,23.891058 z"
       fill="#98dc9a"
       id="path10"
       style="stroke-width:2.10235" />
  </g>
</svg>
