<?xml version="1.0" encoding="UTF-8" standalone="no"?>
<svg
   width="192"
   height="192"
   version="1.1"
   viewBox="0 0 192 192"
   id="svg2"
   sodipodi:docname="gameboy-color.svg"
   inkscape:version="1.4.4 (dcaf3e7d9e, 2026-05-05)"
   xmlns:inkscape="http://www.inkscape.org/namespaces/inkscape"
   xmlns:sodipodi="http://sodipodi.sourceforge.net/DTD/sodipodi-0.dtd"
   xmlns="http://www.w3.org/2000/svg"
   xmlns:svg="http://www.w3.org/2000/svg">
  <defs
     id="defs2" />
  <sodipodi:namedview
     id="namedview2"
     pagecolor="#ffffff"
     bordercolor="#000000"
     borderopacity="0.25"
     inkscape:showpageshadow="2"
     inkscape:pageopacity="0.0"
     inkscape:pagecheckerboard="true"
     inkscape:deskcolor="#d1d1d1"
     inkscape:zoom="3.1009579"
     inkscape:cx="68.204731"
     inkscape:cy="102.54896"
     inkscape:window-width="1920"
     inkscape:window-height="1048"
     inkscape:window-x="0"
     inkscape:window-y="0"
     inkscape:window-maximized="1"
     inkscape:current-layer="svg2" />
  <path
     d="m 33,16.798711 c 0,-5.5205 4.4729,-9.9957997 10.001,-9.9957997 H 147.68559 C 156.52975,6.8029113 159,11.142849 159,17.294355 V 170.80271 c 0,5.31383 -4.49566,9.9967 -9.992,9.9967 -34.8972,6.05808 -69.924763,5.66578 -106.0203,0 0,0 -9.992465,-4.476 -9.9923,-9.9958 z"
     style="fill:#f9de81;fill-rule:evenodd"
     id="path1"
     sodipodi:nodetypes="csccsccsc" />
  <path
     d="m 40.524391,21.917957 c 0,-4.861136 3.938661,-8.80191 8.806489,-8.80191 h 92.18115 c 7.78782,0 9.96303,3.821579 9.96303,9.238355 V 93.52767 c 0,4.679147 -3.9587,8.8027 -8.79856,8.8027 -30.72911,5.33451 -61.573014,4.98906 -93.357331,0 0,0 -8.799103,-3.941391 -8.798828,-8.801908 z"
     style="fill:#56595b;fill-rule:evenodd;stroke-width:0.880561"
     id="path4"
     sodipodi:nodetypes="csccsccsc" />
  <rect
     style="fill:#98dc9a;stroke-width:5.6;stroke-linecap:round"
     id="rect2"
     width="73.848152"
     height="59.658985"
     x="59.075924"
     y="28.115925" />
  <circle
     style="fill:#56595b;stroke-width:4.42673;stroke-linecap:round"
     id="path3"
     cx="138.9893"
     cy="120.34549"
     r="6.8827596" />
  <rect
     style="fill:#56595b;stroke-width:3.56789;stroke-linecap:round"
     id="rect3"
     width="10.384214"
     height="32.976871"
     x="54.685413"
     y="110.7588" />
  <rect
     style="fill:#56595b;stroke-width:3.56789;stroke-linecap:round"
     id="rect4"
     width="10.384214"
     height="32.976871"
     x="122.05513"
     y="-76.365959"
     transform="rotate(90)" />
  <circle
     style="fill:#56595b;stroke-width:4.42673;stroke-linecap:round"
     id="circle4"
     cx="118.98976"
     cy="130.34576"
     r="6.8827596" />
  <ellipse
     style="fill:#56595b;stroke-width:5.6;stroke-linecap:round"
     id="path5"
     cx="81.000267"
     cy="162.35629"
     rx="10.147268"
     ry="3.192399" />
  <ellipse
     style="fill:#56595b;stroke-width:5.6;stroke-linecap:round"
     id="ellipse5"
     cx="111.00027"
     cy="162.35629"
     rx="10.147268"
     ry="3.192399" />
</svg>
