<?xml version="1.0" encoding="UTF-8" standalone="no"?>
<svg
   width="192"
   height="192"
   version="1.1"
   viewBox="0 0 192 192"
   id="svg2"
   sodipodi:docname="bottles.svg"
   inkscape:version="1.4.4 (dcaf3e7d9e, 2026-05-05)"
   xml:space="preserve"
   xmlns:inkscape="http://www.inkscape.org/namespaces/inkscape"
   xmlns:sodipodi="http://sodipodi.sourceforge.net/DTD/sodipodi-0.dtd"
   xmlns="http://www.w3.org/2000/svg"
   xmlns:svg="http://www.w3.org/2000/svg"><defs
     id="defs2" /><sodipodi:namedview
     id="namedview2"
     pagecolor="#ffffff"
     bordercolor="#000000"
     borderopacity="0.25"
     inkscape:showpageshadow="2"
     inkscape:pageopacity="0.0"
     inkscape:pagecheckerboard="true"
     inkscape:deskcolor="#d1d1d1"
     inkscape:zoom="3.1009579"
     inkscape:cx="62.077592"
     inkscape:cy="105.45129"
     inkscape:window-width="1920"
     inkscape:window-height="1048"
     inkscape:window-x="0"
     inkscape:window-y="0"
     inkscape:window-maximized="1"
     inkscape:current-layer="svg2" /><path
     id="rect2"
     style="fill:#ff837d;fill-rule:evenodd"
     d="m 131.18987,57 h 27.63491 C 164.47583,57 172,65.733 172,71.273 V 162 c 0,5.54 -4.46,10 -10,10 H 117.14 V 71.273 C 117.14,65.732998 125.64987,57 131.18987,57 Z"
     sodipodi:nodetypes="ssssscss"
     inkscape:label="red bottle" /><path
     id="path10"
     style="fill:#ba6561;fill-rule:evenodd"
     d="M 172,156.78013 V 162 c 0,5.54 -4.46,10 -10,10 h -44.8602 l 2e-4,-5.867 h 44.22079 c 5.86023,0 8.13264,-5.01136 10.63921,-9.35287 z"
     sodipodi:nodetypes="csscczc"
     inkscape:label="red-shadow" /><rect
     style="opacity:1;fill:#ececec;stroke:none;stroke-width:5;stroke-linecap:round;stroke-linejoin:round;stroke-dashoffset:16.6"
     id="rect3"
     width="17.786211"
     height="6.72684"
     x="154.21379"
     y="147.76247"
     rx="0"
     inkscape:label="bottle detail" /><path
     id="rect5"
     style="opacity:1;fill:#ececec;stroke-width:4.81357;stroke-linecap:round;stroke-linejoin:round;stroke-dashoffset:16.6"
     d="m 130.21272,43.915089 h 28.71455 v 13.085155 l -28.71455,-4.88e-4 z"
     sodipodi:nodetypes="ccccc"
     inkscape:label="cap" /><path
     id="path3"
     style="opacity:1;fill:#ffffff;fill-rule:evenodd"
     d="m 109.97214,38.135 -2.8e-4,-7.982 H 81.571815 l 3.7e-4,7.982 C 78.590711,49.26201 74.404,63.753963 74.404,71.273 V 172 H 117.14 V 71.273 c 0,-5.21625 -5.11439,-25.474323 -7.16786,-33.138 z"
     sodipodi:nodetypes="ccccsccsc"
     inkscape:label="milk" /><path
     id="rect10"
     style="opacity:1;fill:#ececec;stroke-width:5;stroke-linecap:round;stroke-linejoin:round;stroke-dashoffset:16.6"
     d="M 74.403845,166.133 H 117.14 V 172 H 74.404154 Z"
     sodipodi:nodetypes="ccccc"
     inkscape:label="milk-shadow" /><path
     id="rect4"
     style="display:inline;opacity:1;fill:#728dbe;stroke-width:5;stroke-linecap:round;stroke-linejoin:round;stroke-dashoffset:16.6"
     d="m 74.404,97.938243 h 10.536616 c 0,-4.060744 -0.47345,-13.193071 10.831354,-13.225653 11.3048,-0.03258 10.83136,9.526874 10.83136,13.225653 H 117.14 V 119.48694 H 74.404 Z"
     sodipodi:nodetypes="cczccccc"
     inkscape:label="milk-sticker" /><path
     style="opacity:1;fill:#ffffff;stroke:none;stroke-width:5;stroke-linecap:round;stroke-linejoin:round;stroke-dashoffset:16.6"
     d="m 95.774832,87.911903 c -7.39591,7.395914 -8.56373,17.038217 0,17.038217 8.563748,0 7.380188,-9.658036 0,-17.038217 z"
     id="path5"
     sodipodi:nodetypes="czc"
     inkscape:label="milkdrop" /><path
     id="rect9"
     style="display:inline;opacity:1;fill:#ececec;stroke:none;stroke-width:5;stroke-linecap:round;stroke-linejoin:round;stroke-dashoffset:16.6"
     d="m 81.572266,30.152344 v 7.982422 C 79.7892,44.789255 77.575852,52.647792 76.083984,59.498047 h 39.109376 c -1.6691,-7.683227 -3.99206,-16.777893 -5.2207,-21.363281 v -7.982422 z"
     inkscape:label="milk-cap-shadow" /><path
     id="rect6"
     style="opacity:1;fill:#54688c;stroke-width:5;stroke-linecap:round;stroke-linejoin:round;stroke-dashoffset:16.6"
     d="m 81.5715,30.153 h 28.401 l -5e-4,7.982 h -28.4 z"
     sodipodi:nodetypes="ccccc"
     inkscape:label="milk-cap" /><path
     id="path2"
     style="fill:#f8c18c;fill-rule:evenodd"
     d="M 56.565,30.314697 V 19.673 L 37.073,19.672824 V 30.314697 C 34.411629,34.924327 19.543801,57.106633 19.543801,71.273 V 162 c 0,5.54 4.46,10 10,10 H 74.404 V 71.273 c 0,-14.166369 -15.242208,-36.460527 -17.839,-40.958303 z"
     sodipodi:nodetypes="ccccssscsc"
     inkscape:label="orange juice" /><circle
     style="opacity:1;fill:#98dc9a;stroke:none;stroke-width:5;stroke-linecap:round;stroke-linejoin:round;stroke-dashoffset:16.6"
     id="path4"
     cx="46.9739"
     cy="96.114014"
     r="15.277909"
     inkscape:label="orange" /><path
     id="rect8"
     style="display:inline;opacity:1;fill:#ececec;stroke:none;stroke-width:5;stroke-linecap:round;stroke-linejoin:round;stroke-dashoffset:16.6"
     d="m 37.072266,19.671875 v 10.642578 c -0.727443,1.259968 -2.366757,3.832136 -4.365235,7.195313 h 28.28125 C 58.945123,34.126755 57.277652,31.549749 56.564453,30.314453 V 19.673828 Z"
     inkscape:label="oj-cap-shadow" /><path
     id="rect7"
     style="display:inline;opacity:1;fill:#98dc9a;stroke-width:5;stroke-linecap:round;stroke-linejoin:round;stroke-dashoffset:16.6"
     d="m 37.073,19.673 h 19.492 l 0,6.832541 H 37.073 Z"
     sodipodi:nodetypes="ccccc"
     inkscape:label="oj-cap" /><path
     id="path9"
     style="fill:#d3b69a;fill-rule:evenodd"
     d="M 19.543801,156.78013 V 162 c 0,5.54 4.46,10 10,10 H 74.404 v -5.867 c 0,0 -38.360758,0 -44.220987,0 -5.86023,0 -8.132642,-5.01136 -10.639212,-9.35287 z"
     sodipodi:nodetypes="csscczc"
     inkscape:label="oj-shadow" /></svg>
