<?xml version="1.0" encoding="UTF-8" standalone="no"?>
<svg
   viewBox="0 0 192 192"
   version="1.1"
   id="svg3"
   sodipodi:docname="copoyq.svg"
   inkscape:version="1.4.4 (dcaf3e7d9e, 2026-05-05)"
   xmlns:inkscape="http://www.inkscape.org/namespaces/inkscape"
   xmlns:sodipodi="http://sodipodi.sourceforge.net/DTD/sodipodi-0.dtd"
   xmlns="http://www.w3.org/2000/svg"
   xmlns:svg="http://www.w3.org/2000/svg">
  <defs
     id="defs1" />
  <sodipodi:namedview
     id="namedview3"
     pagecolor="#505050"
     bordercolor="#ffffff"
     borderopacity="1"
     inkscape:showpageshadow="0"
     inkscape:pageopacity="0"
     inkscape:pagecheckerboard="1"
     inkscape:deskcolor="#505050"
     inkscape:zoom="2.9941553"
     inkscape:cx="83.996979"
     inkscape:cy="94.851459"
     inkscape:window-width="1920"
     inkscape:window-height="1048"
     inkscape:window-x="0"
     inkscape:window-y="0"
     inkscape:window-maximized="1"
     inkscape:current-layer="svg3"
     showgrid="false" />
  <path
     d="m 7.4679632,4.2456918 a 3.2699957,3.2699957 0 1 1 -6.53999136,0 3.2699957,3.2699957 0 1 1 6.53999136,0 z"
     transform="matrix(-7.4092904,0,0,7.4092904,160.80961,31.899335)"
     id="path3807"
     style="display:inline;fill:none;stroke:#56595b;stroke-width:4.37256;stroke-linecap:butt;stroke-linejoin:round;stroke-miterlimit:4;stroke-dasharray:none;stroke-dashoffset:0;stroke-opacity:1"
     inkscape:connector-curvature="0"
     inkscape:label="Gray" />
  <path
     d="m 8.2176707,1043.1885 c -5.8306739,3.1677 -2.3576257,7.3714 -2.3576257,7.3714 1.0551556,-2.1255 3.5999494,-6.2732 3.5999494,-6.2732 0,0 -0.9210244,-0.7529 -1.2423237,-1.0982 z"
     id="path3809"
     style="display:inline;fill:none;fill-opacity:1;stroke:#56595b;stroke-width:1.3;stroke-miterlimit:4;stroke-dasharray:none;stroke-opacity:1"
     inkscape:connector-curvature="0"
     transform="matrix(10.799181,0,0,10.799181,9.6179424,-11176.9)"
     inkscape:label="Gray" />
  <path
     d="m 7.4679632,4.2456918 a 3.2699957,3.2699957 0 1 1 -6.53999136,0 3.2699957,3.2699957 0 1 1 6.53999136,0 z"
     transform="matrix(7.4092904,0,0,7.4092904,31.190387,31.899335)"
     id="path3805"
     style="display:inline;fill:none;stroke:#56595b;stroke-width:4.37256;stroke-linecap:butt;stroke-linejoin:round;stroke-miterlimit:4;stroke-dasharray:none;stroke-dashoffset:0;stroke-opacity:1"
     inkscape:connector-curvature="0"
     inkscape:label="Gray" />
  <path
     d="m 8.2176707,1043.1885 c -5.8306739,3.1677 -2.3576257,7.3714 -2.3576257,7.3714 1.0551556,-2.1255 3.5999494,-6.2732 3.5999494,-6.2732 0,0 -0.9210244,-0.7529 -1.2423237,-1.0982 z"
     id="path3811"
     style="display:inline;fill:#ffffff;fill-opacity:1;stroke:none"
     inkscape:connector-curvature="0"
     inkscape:label="left snip"
     transform="matrix(10.799181,0,0,10.799181,9.6179424,-11176.9)" />
  <path
     d="m 7.7802226,1043.1885 c 5.8306744,3.1677 2.3576254,7.3714 2.3576254,7.3714 -1.0551554,-2.1255 -3.5999493,-6.2732 -3.5999493,-6.2732 0,0 0.9210245,-0.7529 1.2423239,-1.0982 z"
     id="path3024"
     style="fill:none;fill-opacity:1;stroke:#56595b;stroke-width:1.3;stroke-miterlimit:4;stroke-dasharray:none;stroke-opacity:1"
     inkscape:connector-curvature="0"
     transform="matrix(10.799181,0,0,10.799181,9.6179424,-11176.9)"
     inkscape:label="Gray" />
  <path
     d="m 7.7802226,1043.1885 c 5.8306744,3.1677 2.3576254,7.3714 2.3576254,7.3714 -1.0551554,-2.1255 -3.5999493,-6.2732 -3.5999493,-6.2732 0,0 0.9210245,-0.7529 1.2423239,-1.0982 z"
     id="path3846"
     style="display:inline;fill:#ffffff;fill-opacity:1;stroke:none"
     inkscape:connector-curvature="0"
     inkscape:label="right snip"
     transform="matrix(10.799181,0,0,10.799181,9.6179424,-11176.9)" />
  <path
     d="m 7.4679632,4.2456918 a 3.2699957,3.2699957 0 1 1 -6.53999136,0 3.2699957,3.2699957 0 1 1 6.53999136,0 z"
     transform="matrix(-7.4092904,0,0,7.4092904,160.80961,31.899335)"
     id="path3813"
     style="display:inline;fill:none;stroke:#98dc9a;stroke-width:2.67028;stroke-linecap:butt;stroke-linejoin:round;stroke-miterlimit:4;stroke-dasharray:none;stroke-dashoffset:0;stroke-opacity:1"
     inkscape:connector-curvature="0"
     inkscape:label="right handle" />
  <path
     d="m 7.4679632,4.2456918 a 3.2699957,3.2699957 0 1 1 -6.53999136,0 3.2699957,3.2699957 0 1 1 6.53999136,0 z"
     transform="matrix(7.4092904,0,0,7.4092904,31.190387,31.899335)"
     id="path3025"
     style="display:inline;fill:none;stroke:#98dc9a;stroke-width:2.67028;stroke-linecap:butt;stroke-linejoin:round;stroke-miterlimit:4;stroke-dasharray:none;stroke-dashoffset:0;stroke-opacity:1"
     inkscape:connector-curvature="0"
     inkscape:label="left handle" />
</svg>
