<?xml version="1.0" encoding="UTF-8" standalone="no"?>
<svg
   viewBox="0 0 192 192"
   version="1.1"
   id="svg3"
   sodipodi:docname="flameshot.svg"
   inkscape:version="1.4.4 (dcaf3e7d9e, 2026-05-05)"
   xml:space="preserve"
   xmlns:inkscape="http://www.inkscape.org/namespaces/inkscape"
   xmlns:sodipodi="http://sodipodi.sourceforge.net/DTD/sodipodi-0.dtd"
   xmlns="http://www.w3.org/2000/svg"
   xmlns:svg="http://www.w3.org/2000/svg"><defs
     id="defs1" /><sodipodi:namedview
     id="namedview3"
     pagecolor="#505050"
     bordercolor="#ffffff"
     borderopacity="1"
     inkscape:showpageshadow="0"
     inkscape:pageopacity="0"
     inkscape:pagecheckerboard="1"
     inkscape:deskcolor="#505050"
     inkscape:zoom="2.9941553"
     inkscape:cx="100.52919"
     inkscape:cy="72.307539"
     inkscape:window-width="1920"
     inkscape:window-height="1048"
     inkscape:window-x="0"
     inkscape:window-y="0"
     inkscape:window-maximized="1"
     inkscape:current-layer="svg3"
     showgrid="false" /><circle
     class="a"
     cx="96"
     cy="96"
     r="88"
     id="circle1"
     style="opacity:1;stroke:none;fill:#8c72bd"
     inkscape:label="circle" /><g
     id="flameshot-Copy"
     transform="matrix(0.64205996,0,0,0.64205996,48.072928,45.58422)"><path
       d="M 56.333,42.4132 C 123.747,29.4008 126.337,0 126.337,0 c 0,0 -5.309,91.1176 -54.5763,95.9384 C 9.32758,102.047 0,131.5 0,131.5 c 0,0 16.6961,-81.4361 56.333,-89.0868 z"
       transform="translate(22.95459,25.263733)"
       id="Shape"
       fill="#ff0066"
       fill-rule="evenodd"
       stroke="none"
       style="fill:#ff837d" /><path
       d="M 19.8032,63.6564 C 76.9256,39.4645 71.6937,0 71.6937,0 c 0,0 31.5373,80.5099 -15.7413,99.2794 C 3.13699,120.247 5.48706,156.062 5.48706,156.062 c 0,0 -19.23256,-78.1974 14.31614,-92.4056 z"
       transform="translate(18.807129)"
       id="path1"
       fill="#ff6600"
       fill-rule="evenodd"
       stroke="none"
       style="fill:#f8c18c" /><path
       d="M 4.95781,72.0008 C 37.051,29.6815 29.8325,0 29.8325,0 c 0,0 41.1182,51.5593 13.1385,83.4933 -31.2563,35.6737 -17.6441,60.4917 -17.6441,60.4917 0,0 -38.7766,-47.7115 -20.36909,-71.9842 z"
       transform="translate(0,13.058838)"
       id="path2"
       fill="#ffcc00"
       fill-rule="evenodd"
       stroke="none"
       style="fill:#f9de81" /></g></svg>
