<?xml version="1.0" encoding="UTF-8" standalone="no"?>
<svg
   viewBox="0 0 192 192"
   version="1.1"
   id="svg3"
   sodipodi:docname="forgejo.svg"
   inkscape:version="1.4.4 (dcaf3e7d9e, 2026-05-05)"
   xml:space="preserve"
   xmlns:inkscape="http://www.inkscape.org/namespaces/inkscape"
   xmlns:sodipodi="http://sodipodi.sourceforge.net/DTD/sodipodi-0.dtd"
   xmlns="http://www.w3.org/2000/svg"
   xmlns:svg="http://www.w3.org/2000/svg"><defs
     id="defs1" /><sodipodi:namedview
     id="namedview3"
     pagecolor="#505050"
     bordercolor="#ffffff"
     borderopacity="1"
     inkscape:showpageshadow="0"
     inkscape:pageopacity="0"
     inkscape:pagecheckerboard="1"
     inkscape:deskcolor="#505050"
     inkscape:zoom="2.9941553"
     inkscape:cx="83.162019"
     inkscape:cy="101.36415"
     inkscape:window-width="1920"
     inkscape:window-height="1048"
     inkscape:window-x="0"
     inkscape:window-y="0"
     inkscape:window-maximized="1"
     inkscape:current-layer="svg3"
     showgrid="false" /><g
     id="g2"
     inkscape:label="orange"><path
       d="M 58,168 V 70 a 50,50 0 0 1 50,-50 h 20"
       class="orange"
       id="path1"
       style="fill:none;stroke:#f8c18c;stroke-width:25"
       transform="matrix(0.83886256,0,0,0.83886256,12.113744,12.113744)"
       inkscape:label="orange-line" /><circle
       cx="142"
       cy="20"
       r="18"
       class="orange"
       id="circle2-2"
       style="fill:none;stroke:#f8c18c;stroke-width:15"
       transform="matrix(0.83886256,0,0,0.83886256,12.113744,12.113744)"
       inkscape:label="orange-dot" /></g><g
     id="g1"
     inkscape:label="red"><path
       d="m 58,168 v -30 a 50,50 0 0 1 50,-50 h 20"
       class="red"
       id="path2"
       style="fill:none;stroke:#ff837d;stroke-width:25"
       transform="matrix(0.83886256,0,0,0.83886256,12.113744,12.113744)"
       inkscape:label="red-line" /><circle
       cx="142"
       cy="88"
       r="18"
       class="red"
       id="circle3"
       style="fill:none;stroke:#ff837d;stroke-width:15"
       transform="matrix(0.83886256,0,0,0.83886256,12.113744,12.113744)"
       inkscape:label="red-dot" /><circle
       cx="58"
       cy="180"
       r="18"
       class="red"
       id="circle4"
       style="fill:none;stroke:#ff837d;stroke-width:15"
       transform="matrix(0.83886256,0,0,0.83886256,12.113744,12.113744)"
       inkscape:label="start-red-dot" /></g></svg>
