<?xml version="1.0" encoding="UTF-8" standalone="no"?>
<svg
   width="192"
   height="192"
   version="1.1"
   viewBox="0 0 192 192"
   id="svg1"
   sodipodi:docname="freeCAD.svg"
   inkscape:version="1.4.4 (dcaf3e7d9e, 2026-05-05)"
   xmlns:inkscape="http://www.inkscape.org/namespaces/inkscape"
   xmlns:sodipodi="http://sodipodi.sourceforge.net/DTD/sodipodi-0.dtd"
   xmlns="http://www.w3.org/2000/svg"
   xmlns:svg="http://www.w3.org/2000/svg">
  <defs
     id="defs1" />
  <sodipodi:namedview
     id="namedview1"
     pagecolor="#ffffff"
     bordercolor="#000000"
     borderopacity="0.25"
     inkscape:showpageshadow="2"
     inkscape:pageopacity="0.0"
     inkscape:pagecheckerboard="0"
     inkscape:deskcolor="#d1d1d1"
     inkscape:zoom="2.1927083"
     inkscape:cx="70.916866"
     inkscape:cy="77.985749"
     inkscape:window-width="1920"
     inkscape:window-height="1048"
     inkscape:window-x="0"
     inkscape:window-y="0"
     inkscape:window-maximized="1"
     inkscape:current-layer="svg1" />
  <path
     d="M 159.33333,45.333334 134,70.666665 H 83.333336 V 89.666667 H 108.66667 V 114.99999 H 83.333336 v 31.66667 L 58.000003,172 H 83.65241 c 1.920646,0 3.62197,-1.23672 4.215402,-3.06337 l 4.585271,-14.11244 c 0.438266,-1.34957 1.49777,-2.40559 2.84734,-2.84411 l 3.524881,-1.14546 c 1.349626,-0.43889 2.828276,-0.20582 3.976446,0.62827 l 12.00147,8.72209 c 1.55377,1.12878 3.65985,1.12878 5.2136,0 l 10.7578,-7.81882 c 1.55395,-1.12886 2.20375,-3.12828 1.61025,-4.95501 l -4.58527,-14.11251 c -0.4389,-1.34963 -0.20266,-2.82828 0.63143,-3.97643 l 2.17976,-2.99796 c 0.83402,-1.14805 2.16467,-1.82938 3.58371,-1.82951 l 14.83899,0.003 c 1.92078,6e-5 3.62198,-1.23988 4.21542,-3.0666 l 4.1107,-12.64622 c 0.59343,-1.82664 -0.0571,-3.82945 -1.61024,-4.95836 l -12.00478,-8.72201 c -1.1481,-0.834162 -1.82621,-2.164606 -1.82621,-3.58378 v -3.708102 c 1.2e-4,-1.419111 0.67804,-2.752974 1.82621,-3.587011 l 13.76227,-9.998497 c 1.14829,-0.834036 1.82647,-2.167773 1.82647,-3.586882 z"
     style="fill:#9abeff;fill-opacity:1;fill-rule:evenodd;stroke:none;stroke-width:0;stroke-linecap:square;stroke-dasharray:none"
     id="path8-4" />
  <path
     id="path7-7"
     style="display:inline;fill:#ff837d;fill-opacity:1;fill-rule:evenodd;stroke:none;stroke-width:0;stroke-linecap:square;stroke-dasharray:none"
     d="M 134,19.999999 108.66667,45.333333 H 134 V 70.666665 L 159.33333,45.333334 V 19.999999 Z M 58.000003,121.33333 32.666669,146.66666 V 172 H 58.000003 L 83.333336,146.66666 H 58.000003 Z" />
  <path
     d="M 58.000003,19.999999 32.666669,45.333334 V 146.66666 L 58.000003,121.33333 V 45.333334 H 108.66667 L 134,20 Z"
     style="fill:#ba6561;fill-rule:evenodd;stroke:none;stroke-width:0;stroke-linecap:square;stroke-dasharray:none"
     id="path3-1" />
  <path
     d="M 58.000003,146.66666 H 83.333336 V 114.99999 H 108.66667 V 89.666667 H 83.333336 V 70.666665 H 134 V 45.333334 H 58.000003 Z"
     style="fill:#ffffff;fill-opacity:1;fill-rule:evenodd;stroke:none;stroke-width:0;stroke-linecap:square;stroke-dasharray:none"
     id="path9-4" />
</svg>
