<?xml version="1.0" encoding="UTF-8" standalone="no"?>
<svg
   width="192"
   height="192"
   version="1.1"
   viewBox="0 0 192 192"
   id="svg1"
   sodipodi:docname="ghostty.svg"
   inkscape:version="1.4.4 (dcaf3e7d9e, 2026-05-05)"
   xmlns:inkscape="http://www.inkscape.org/namespaces/inkscape"
   xmlns:sodipodi="http://sodipodi.sourceforge.net/DTD/sodipodi-0.dtd"
   xmlns="http://www.w3.org/2000/svg"
   xmlns:svg="http://www.w3.org/2000/svg">
  <defs
     id="defs1" />
  <sodipodi:namedview
     id="namedview1"
     pagecolor="#ffffff"
     bordercolor="#000000"
     borderopacity="0.25"
     inkscape:showpageshadow="2"
     inkscape:pageopacity="0.0"
     inkscape:pagecheckerboard="0"
     inkscape:deskcolor="#d1d1d1"
     inkscape:zoom="3.1009578"
     inkscape:cx="69.172176"
     inkscape:cy="109.96602"
     inkscape:window-width="1920"
     inkscape:window-height="1048"
     inkscape:window-x="0"
     inkscape:window-y="0"
     inkscape:window-maximized="1"
     inkscape:current-layer="svg1" />
  <path
     d="m 131.70526,177.21615 c -6.35466,0 -12.59003,-1.90401 -17.84979,-5.41458 -5.25976,3.51057 -11.5068,5.41458 -17.849785,5.41458 -6.342474,0 -12.590026,-1.90401 -17.849483,-5.41458 -5.224026,3.51057 -11.269147,5.36687 -17.635529,5.41458 h -0.190351 c -8.639266,0 -16.743014,-3.43899 -22.847626,-9.67436 -6.009437,-6.14045 -9.317574,-14.22044 -9.317574,-22.75271 V 82.612532 c 0.01168,-37.400901 30.439662,-67.828685 67.840563,-67.828685 37.401055,0 67.829195,30.427784 67.829195,67.828685 v 62.200408 c 0,17.21884 -13.32808,31.4276 -30.34439,32.3555 -0.59541,0.0355 -1.19032,0.0457 -1.78523,0.0457 z"
     fill="#3551f3"
     id="path2"
     style="stroke-width:5.07601;fill:#9abeff" />
  <path
     d="m 131.70526,170.07624 c -5.67599,0 -11.22153,-1.95122 -15.63614,-5.49732 -0.76191,-0.61927 -1.5827,-0.73805 -2.13041,-0.73805 -0.8685,0 -1.74918,0.30963 -2.47505,0.89236 -4.37908,3.45118 -9.86472,5.35519 -15.457975,5.35519 -5.592747,0 -11.078391,-1.90401 -15.457464,-5.35519 -0.70252,-0.55938 -1.535493,-0.84465 -2.39207,-0.84465 -0.856779,0 -1.689753,0.29746 -2.391815,0.84465 -4.391053,3.46285 -9.67457,5.30748 -15.279348,5.35519 h -0.166493 c -6.675815,0 -12.970828,-2.66592 -17.718826,-7.52062 -4.688507,-4.79581 -7.282703,-11.10275 -7.282703,-17.75486 V 82.63639 c 0,-33.485776 27.22675,-60.712526 60.688821,-60.712526 33.462573,0 60.689273,27.22675 60.689273,60.689176 v 62.1999 c 0,13.423 -10.3647,24.5019 -23.59735,25.22777 -0.46395,0.0254 -0.9284,0.0355 -1.39235,0.0355 z"
     fill="#000000"
     id="path3"
     style="stroke-width:5.07601;fill:#56595b" />
  <path
     d="m 149.55454,82.61304 v 62.20041 c 0,9.51954 -7.34245,17.57568 -16.85032,18.09952 -4.61714,0.24974 -8.87693,-1.24971 -12.17329,-3.90345 -3.95066,-3.17707 -9.50787,-3.03444 -13.49457,0.10711 -3.03444,2.39181 -6.86581,3.8202 -11.042857,3.8202 -4.177049,0 -7.996746,-1.42839 -11.031184,-3.8202 -4.033905,-3.17708 -9.591222,-3.17708 -13.625228,0 -3.010683,2.36846 -6.794797,3.79634 -10.912152,3.8202 -9.888726,0.0711 -17.968668,-8.25867 -17.968668,-18.14724 V 82.61304 c 0,-29.571106 23.978105,-53.549211 53.548907,-53.549211 29.571312,0 53.549362,23.978105 53.549362,53.549211 z"
     fill="#ffffff"
     id="path4"
     style="stroke-width:5.07601" />
  <path
     d="M 85.438956,77.912148 65.483132,66.393159 c -2.594196,-1.499352 -5.92614,-0.607091 -7.425491,1.987258 -1.499403,2.594348 -0.606888,5.926241 1.987257,7.425694 l 11.804616,6.818604 -11.804616,6.818603 c -2.594145,1.498946 -3.48666,4.819164 -1.987257,7.425187 1.499351,2.594349 4.819417,3.486715 7.425491,1.987258 L 85.438956,87.336774 c 3.617672,-2.094361 3.617672,-7.318083 0,-9.412952 z"
     fill="#000000"
     id="path5"
     style="stroke-width:5.07601;fill:#56595b" />
  <path
     d="m 130.62255,77.174603 h -26.21556 c -2.9984,0 -5.43793,2.427348 -5.43793,5.437929 0,3.010582 2.42735,5.438437 5.43793,5.438437 h 26.21556 c 2.9989,0 5.43793,-2.427855 5.43793,-5.438437 0,-3.010581 -2.42735,-5.437929 -5.43793,-5.437929 z"
     fill="#000000"
     id="path6"
     style="stroke-width:5.07601;fill:#56595b" />
</svg>
