<?xml version="1.0" encoding="UTF-8" standalone="no"?>
<svg
   width="64"
   height="64"
   version="1.1"
   id="svg13"
   sodipodi:docname="kitty.svg"
   inkscape:version="1.4.3 (0d15f75042, 2025-12-25)"
   xmlns:inkscape="http://www.inkscape.org/namespaces/inkscape"
   xmlns:sodipodi="http://sodipodi.sourceforge.net/DTD/sodipodi-0.dtd"
   xmlns="http://www.w3.org/2000/svg"
   xmlns:svg="http://www.w3.org/2000/svg">
  <defs
     id="defs13" />
  <sodipodi:namedview
     id="namedview13"
     pagecolor="#ffffff"
     bordercolor="#000000"
     borderopacity="0.25"
     inkscape:showpageshadow="2"
     inkscape:pageopacity="0.0"
     inkscape:pagecheckerboard="0"
     inkscape:deskcolor="#d1d1d1"
     inkscape:zoom="9.3028736"
     inkscape:cx="17.360227"
     inkscape:cy="31.173164"
     inkscape:window-width="1920"
     inkscape:window-height="1048"
     inkscape:window-x="0"
     inkscape:window-y="0"
     inkscape:window-maximized="1"
     inkscape:current-layer="svg13" />
  <path
     style="display:none;opacity:0.2"
     d="m 12.660156,5 c -1.4,1.4 7.81e-4,2.799609 -0.699218,5.599609 -0.54482,2.17928 -1.446334,5.200565 -1.822266,7.75586 L 7.4003906,16.300781 a 1.50015,1.50015 0 0 0 -0.9804687,-0.3125 1.50015,1.50015 0 0 0 -0.8203125,2.710938 L 10.001953,22 H 6.5 C 5.669,22 5,22.669 5,23.5 5,24.331 5.669,25 6.5,25 h 2.7695312 l -3.5644531,2.228516 a 1.50015,1.50015 0 1 0 1.5898438,2.542968 L 11.681641,27.029297 C 11.787035,27.208896 11.886555,27.393932 12,27.566406 v 1.453125 A 4.2,4.125 0 0 0 9.25,30.404297 5.6,8.9375 0 0 0 4,39.3125 5.6,8.9375 0 0 0 6.8085938,47.048828 4.2,4.125 0 0 0 11,51 4.2,4.125 0 0 0 12,50.876953 V 59 c 0,1.108 0.892,2 2,2 h 36 c 1.108,0 2,-0.892 2,-2 V 50.876953 A 4.2,4.125 0 0 0 53,51 4.2,4.125 0 0 0 57.191406,47.048828 5.6,8.9375 0 0 0 60,39.3125 5.6,8.9375 0 0 0 54.75,30.404297 4.2,4.125 0 0 0 52,29.025391 v -1.519532 c 0.10315,-0.159097 0.194666,-0.329027 0.291016,-0.49414 l 4.414062,2.759765 a 1.50015,1.50015 0 1 0 1.589844,-2.542968 L 54.730469,25 H 57.5 C 58.331,25 59,24.331 59,23.5 59,22.669 58.331,22 57.5,22 h -3.501953 l 4.402344,-3.300781 a 1.50015,1.50015 0 0 0 -0.865235,-2.712891 1.50015,1.50015 0 0 0 -0.935547,0.314453 l -2.77539,2.082031 C 53.450817,15.821689 52.546801,12.786813 52,10.599609 51.3,7.799609 52.700781,6.4 51.300781,5 c -3.5,0 -7.49287,3.333667 -11.77539,2.699219 C 34.800391,6.999219 32,7 32,7 32,7 29.199609,6.999219 24.474609,7.699219 20.192089,8.333667 16.160156,5 12.660156,5 Z"
     id="path1" />
  <path
     style="display:inline;fill:#d3b69a"
     d="m 12.66,4 c -1.4,1.4 0,2.8 -0.7,5.6 -0.7,2.8 -2,7 -2,9.8 C 9.96,34.8 32,35 32,35 32,35 54,34.8 54,19.4 54,16.6 52.7,12.4 52,9.6 51.3,6.8 52.7,5.4 51.3,4 47.8,4 43.80752,7.3344478 39.525,6.7 34.8,6 32,6 32,6 32,6 29.2,6 24.475,6.7 20.19248,7.3344478 16.16,4 12.66,4 Z"
     id="path2" />
  <path
     style="display:none;opacity:0.2"
     d="M 22.5,12 C 19.462434,12 17,14.462434 17,17.5 17,20.537566 19.462434,23 22.5,23 25.537566,23 28,20.537566 28,17.5 28,14.462434 25.537566,12 22.5,12 Z m 19,0 C 38.462434,12 36,14.462434 36,17.5 36,20.537566 38.462434,23 41.5,23 44.537566,23 47,20.537566 47,17.5 47,14.462434 44.537566,12 41.5,12 Z"
     id="path3" />
  <path
     style="display:none;opacity:0.1;fill:#ffffff"
     d="M 12.660156,4 C 11.971594,4.6885618 11.961825,5.3792524 12.044922,6.234375 12.102398,5.8026914 12.260935,5.3992209 12.660156,5 c 3.5,0 7.531933,3.3336666 11.814453,2.6992188 C 29.199609,6.9992188 32,7 32,7 32,7 34.800391,6.9992187 39.525391,7.6992188 43.807911,8.3336666 47.800781,5 51.300781,5 51.69647,5.395689 51.857039,5.7953585 51.916016,6.2226562 51.997805,5.3731993 51.986053,4.6852721 51.300781,4 c -3.5,0 -7.49287,3.3336665 -11.77539,2.6992188 C 34.800391,5.9992187 32,6 32,6 32,6 29.199609,5.9992188 24.474609,6.6992188 20.192089,7.3336666 16.160156,4 12.660156,4 Z m -0.517578,4.3515625 c -0.02388,0.3870051 -0.06791,0.7931376 -0.18164,1.2480469 -0.7,2.7999996 -2.0000005,7.0007816 -2.0000005,9.8007816 0,0.183487 0.017254,0.354006 0.023437,0.533203 0.1243775,-2.784969 1.3133145,-6.680991 1.9765635,-9.333985 0.218977,-0.8759077 0.223668,-1.603286 0.18164,-2.2480465 z m 39.673828,0.00391 C 51.77469,8.9992965 51.78147,9.72549 52,10.599609 c 0.663248,2.652994 1.852186,6.549016 1.976562,9.333985 C 53.982734,19.754397 54,19.583878 54,19.400391 c 0,-2.8 -1.3,-7.000782 -2,-9.8007816 C 51.886661,9.1462543 51.840438,8.7413625 51.816406,8.3554688 Z"
     id="path4" />
  <path
     style="display:inline;fill:#ffffff"
     d="M 22.5,11 C 19.462434,11 17,13.462434 17,16.5 17,19.537566 19.462434,22 22.5,22 25.537566,22 28,19.537566 28,16.5 28,13.462434 25.537566,11 22.5,11 Z m 19,0 C 38.462434,11 36,13.462434 36,16.5 36,19.537566 38.462434,22 41.5,22 44.537566,22 47,19.537566 47,16.5 47,13.462434 44.537566,11 41.5,11 Z"
     id="path5" />
  <path
     style="display:inline;fill:#8e6f60"
     d="m 57.535156,14.986328 a 1.50015,1.50015 0 0 0 -0.935547,0.314453 l -8,6 a 1.50015,1.50015 0 0 0 -0.128906,0.109375 c -0.02287,0.02159 -0.04494,0.04342 -0.06641,0.06641 a 1.50015,1.50015 0 0 0 -0.128906,0.160157 c -0.0127,0.01803 -0.02519,0.03608 -0.03711,0.05469 a 1.50015,1.50015 0 0 0 -0.109375,0.203125 c -0.0085,0.01927 -0.01573,0.03891 -0.02344,0.05859 a 1.50015,1.50015 0 0 0 -0.07031,0.228516 c -0.0032,0.01479 -0.0051,0.02997 -0.0078,0.04492 a 1.50015,1.50015 0 0 0 -0.02539,0.25 C 48.001829,22.484557 48,22.491974 48,22.5 c 0,0.0134 0.0036,0.02575 0.0039,0.03906 a 1.50015,1.50015 0 0 0 0.02539,0.248047 c 0.0027,0.01395 0.0067,0.02721 0.0098,0.04102 a 1.50015,1.50015 0 0 0 0.07227,0.234375 c 0.0084,0.0207 0.01809,0.04032 0.02734,0.06055 a 1.50015,1.50015 0 0 0 0.109375,0.201172 c 0.01059,0.0161 0.02202,0.03122 0.0332,0.04687 a 1.50015,1.50015 0 0 0 0.146484,0.177734 c 0.01622,0.01658 0.03381,0.03106 0.05078,0.04687 a 1.50015,1.50015 0 0 0 0.148437,0.121094 c 0.01826,0.0131 0.03582,0.02678 0.05469,0.03906 a 1.50015,1.50015 0 0 0 0.02344,0.01563 l 8,5 A 1.50015,1.50015 0 1 0 58.29495,26.228514 L 54.730469,24 H 57.5 C 58.331,24 59,23.331 59,22.5 59,21.669 58.331,21 57.5,21 h -3.501953 l 4.402344,-3.300781 a 1.50015,1.50015 0 0 0 -0.865235,-2.712891 z m -51.1152341,0.002 A 1.50015,1.50015 0 0 0 5.5996094,17.699219 L 10.001953,21 H 6.5 C 5.669,21 5,21.669 5,22.5 5,23.331 5.669,24 6.5,24 h 2.7695312 l -3.5644531,2.228516 a 1.50015,1.50015 0 1 0 1.5898438,2.542968 l 8.0000001,-5 a 1.50015,1.50015 0 0 0 0.01953,-0.01367 c 0.02054,-0.01329 0.04072,-0.02676 0.06055,-0.04102 a 1.50015,1.50015 0 0 0 0.154297,-0.126953 1.50015,1.50015 0 0 0 0.002,-0.002 c 0.02689,-0.02548 0.05124,-0.05267 0.07617,-0.08008 a 1.50015,1.50015 0 0 0 0.117187,-0.144531 1.50015,1.50015 0 0 0 0.002,-0.002 c 0.01513,-0.02156 0.02897,-0.04403 0.04297,-0.06641 a 1.50015,1.50015 0 0 0 0.08984,-0.169922 1.50015,1.50015 0 0 0 0.01367,-0.02539 c 0.0087,-0.01988 0.01561,-0.04022 0.02344,-0.06055 a 1.50015,1.50015 0 0 0 0.06641,-0.21875 1.50015,1.50015 0 0 0 0.002,-0.0059 c 0.0027,-0.01288 0.0035,-0.02606 0.0059,-0.03906 A 1.50015,1.50015 0 0 0 16,22.503906 1.50015,1.50015 0 0 0 16,22.5 c 0,-0.0034 -0.0019,-0.0064 -0.002,-0.0098 a 1.50015,1.50015 0 0 0 -0.0293,-0.283203 c -0.002,-0.0099 -0.0037,-0.01944 -0.0059,-0.0293 a 1.50015,1.50015 0 0 0 -0.07031,-0.230468 1.50015,1.50015 0 0 0 -0.0059,-0.01563 c -0.0077,-0.01877 -0.01699,-0.03631 -0.02539,-0.05469 a 1.50015,1.50015 0 0 0 -0.0957,-0.177734 c -0.01734,-0.02743 -0.03565,-0.0539 -0.05469,-0.08008 a 1.50015,1.50015 0 0 0 -0.113282,-0.138672 c -0.02458,-0.02647 -0.04974,-0.05154 -0.07617,-0.07617 a 1.50015,1.50015 0 0 0 -0.121093,-0.103516 l -0.06055,-0.04492 -7.9394534,-5.955078 a 1.50015,1.50015 0 0 0 -0.9804687,-0.3125 z"
     id="path6" />
  <path
     style="fill:#f8c18c"
     d="M 22.5 15 A 1.5 3 0 0 0 21 18 A 1.5 3 0 0 0 22.5 21 A 1.5 3 0 0 0 24 18 A 1.5 3 0 0 0 22.5 15 z M 41.5 15 A 1.5 3 0 0 0 40 18 A 1.5 3 0 0 0 41.5 21 A 1.5 3 0 0 0 43 18 A 1.5 3 0 0 0 41.5 15 z"
     id="path7" />
  <rect
     style="fill:#56595b"
     width="40"
     height="40"
     x="12"
     y="20"
     rx="2"
     ry="2"
     id="rect7" />
  <path
     style="display:none;opacity:0.1;fill:#ffffff"
     d="m 14,20 c -1.108,0 -2,0.892 -2,2 v 1 c 0,-1.108 0.892,-2 2,-2 h 36 c 1.108,0 2,0.892 2,2 v -1 c 0,-1.108 -0.892,-2 -2,-2 z"
     id="path8" />
  <path
     style="display:none;opacity:0.2"
     d="M 12.400391,29 A 4.2,4.125 0 0 0 12,29.019531 V 50.876953 A 4.2,4.125 0 0 0 15.199219,46.875 4.2,4.125 0 0 0 14.253906,44.269531 5.6,8.9375 0 0 0 14.330078,44.087891 4.2,4.125 0 0 0 18,40 4.2,4.125 0 0 0 15.265625,36.134766 4.2,4.125 0 0 0 16.599609,33.125 4.2,4.125 0 0 0 12.400391,29 Z m 39.199218,0 a 4.2,4.125 0 0 0 -4.199218,4.125 4.2,4.125 0 0 0 1.333984,3.009766 A 4.2,4.125 0 0 0 46,40 a 4.2,4.125 0 0 0 3.669922,4.087891 5.6,8.9375 0 0 0 0.07617,0.18164 A 4.2,4.125 0 0 0 48.800781,46.875 4.2,4.125 0 0 0 52,50.876953 V 29.025391 A 4.2,4.125 0 0 0 51.599609,29 Z m -31.701171,0.980469 a 2.0002,2.0002 0 0 0 -1.392579,3.347656 L 25.324219,41 l -6.81836,7.671875 a 2.0002,2.0002 0 1 0 2.988282,2.65625 l 8,-9 a 2.0002,2.0002 0 0 0 0,-2.65625 l -8,-9 A 2.0002,2.0002 0 0 0 19.898438,29.980469 Z M 32,48 a 2.0002,2.0002 0 1 0 0,4 h 12 a 2.0002,2.0002 0 1 0 0,-4 z"
     id="path9" />
  <path
     style="display:inline;fill:none;stroke:#f2f2f2;stroke-width:4;stroke-linecap:round;stroke-linejoin:round"
     d="m 20,31 8,9 -8,9"
     id="path10" />
  <path
     style="display:inline;fill:none;stroke:#f2f2f2;stroke-width:4;stroke-linecap:round;stroke-linejoin:round"
     d="M 44,49 H 32"
     id="path11" />
  <path
     style="display:inline;fill:#8e6f60"
     d="M 12.400391,28 A 4.2,4.125 0 0 0 9.25,29.404297 5.6,8.9375 0 0 0 4,38.3125 5.6,8.9375 0 0 0 6.8085938,46.048828 4.2,4.125 0 0 0 11,50 4.2,4.125 0 0 0 15.199219,45.875 4.2,4.125 0 0 0 14.253906,43.269531 5.6,8.9375 0 0 0 14.330078,43.087891 4.2,4.125 0 0 0 18,39 4.2,4.125 0 0 0 15.265625,35.134766 4.2,4.125 0 0 0 16.599609,32.125 4.2,4.125 0 0 0 12.400391,28 Z m 39.199218,0 a 4.2,4.125 0 0 0 -4.199218,4.125 4.2,4.125 0 0 0 1.333984,3.009766 A 4.2,4.125 0 0 0 46,39 a 4.2,4.125 0 0 0 3.669922,4.087891 5.6,8.9375 0 0 0 0.07617,0.18164 A 4.2,4.125 0 0 0 48.800781,45.875 4.2,4.125 0 0 0 53,50 4.2,4.125 0 0 0 57.191406,46.048828 5.6,8.9375 0 0 0 60,38.3125 5.6,8.9375 0 0 0 54.75,29.404297 4.2,4.125 0 0 0 51.599609,28 Z"
     id="path12" />
  <path
     style="display:none;opacity:0.1;fill:#f9f9f9"
     d="M 12.400391,28 A 4.2,4.125 0 0 0 9.25,29.404297 5.6,8.9375 0 0 0 4,38.3125 5.6,8.9375 0 0 0 4.015625,38.810547 5.6,8.9375 0 0 1 9.25,30.404297 4.2,4.125 0 0 1 12.400391,29 4.2,4.125 0 0 1 16.566406,32.636719 4.2,4.125 0 0 0 16.599609,32.125 4.2,4.125 0 0 0 12.400391,28 Z m 39.199218,0 a 4.2,4.125 0 0 0 -4.199218,4.125 4.2,4.125 0 0 0 0.03516,0.501953 A 4.2,4.125 0 0 1 51.599609,29 4.2,4.125 0 0 1 54.75,30.404297 5.6,8.9375 0 0 1 59.986328,38.873047 5.6,8.9375 0 0 0 60,38.3125 5.6,8.9375 0 0 0 54.75,29.404297 4.2,4.125 0 0 0 51.599609,28 Z m -35.720703,7.421875 a 4.2,4.125 0 0 1 -0.613281,0.712891 4.2,4.125 0 0 1 2.699219,3.367187 A 4.2,4.125 0 0 0 18,39 4.2,4.125 0 0 0 15.878906,35.421875 Z m 32.240235,0.002 A 4.2,4.125 0 0 0 46,39 a 4.2,4.125 0 0 0 0.0332,0.492188 4.2,4.125 0 0 1 2.701172,-3.357422 4.2,4.125 0 0 1 -0.615234,-0.710938 z m 1.138671,8.585938 a 4.2,4.125 0 0 0 -0.457031,1.865234 4.2,4.125 0 0 0 0.03516,0.503906 4.2,4.125 0 0 1 0.910156,-2.109375 5.6,8.9375 0 0 1 -0.07617,-0.18164 4.2,4.125 0 0 1 -0.41211,-0.07813 z m -34.515624,0.0059 a 4.2,4.125 0 0 1 -0.41211,0.07227 5.6,8.9375 0 0 1 -0.07617,0.18164 4.2,4.125 0 0 1 0.910156,2.103516 4.2,4.125 0 0 0 0.03516,-0.498047 4.2,4.125 0 0 0 -0.457031,-1.859375 z"
     id="path13" />
</svg>
