<?xml version="1.0" encoding="UTF-8" standalone="no"?>
<svg
   version="1.1"
   viewBox="0 0 192 192"
   id="svg4"
   sodipodi:docname="obs-studio.svg"
   inkscape:version="1.4.4 (dcaf3e7d9e, 2026-05-05)"
   xmlns:inkscape="http://www.inkscape.org/namespaces/inkscape"
   xmlns:sodipodi="http://sodipodi.sourceforge.net/DTD/sodipodi-0.dtd"
   xmlns="http://www.w3.org/2000/svg"
   xmlns:svg="http://www.w3.org/2000/svg">
  <defs
     id="defs4">
    <radialGradient
       id="radial-gradient-7"
       cx="578.89001"
       cy="473.32001"
       r="353.94"
       gradientTransform="matrix(0.16892821,0,0,0.18533114,9.495325,2.4760104)"
       gradientUnits="userSpaceOnUse">
      <stop
         stop-color="#c2c0c2"
         offset="0"
         id="stop13" />
      <stop
         stop-color="#ebebeb"
         offset="1"
         id="stop14" />
    </radialGradient>
  </defs>
  <sodipodi:namedview
     id="namedview4"
     pagecolor="#ffffff"
     bordercolor="#000000"
     borderopacity="0.25"
     inkscape:showpageshadow="2"
     inkscape:pageopacity="0.0"
     inkscape:pagecheckerboard="0"
     inkscape:deskcolor="#d1d1d1"
     inkscape:zoom="3.1009579"
     inkscape:cx="75.944275"
     inkscape:cy="102.54896"
     inkscape:window-width="1920"
     inkscape:window-height="1048"
     inkscape:window-x="0"
     inkscape:window-y="0"
     inkscape:window-maximized="1"
     inkscape:current-layer="svg4" />
  <circle
     style="fill:#56595b;stroke:#ffffff;stroke-width:5.57465;stroke-linecap:round;stroke-opacity:1"
     id="path1"
     cx="96"
     cy="96"
     r="85.712677" />
  <path
     class="cls-9"
     d="M 124.22852,71.857369 A 33.657257,33.657257 0 0 1 77.394848,83.759375 34.250194,34.250194 0 0 1 69.807775,77.37845 33.6032,33.6032 0 0 1 61.378589,53.537612 c 0.04792,-0.978028 0.129843,-1.953318 0.257925,-2.924148 0.126234,-0.956809 0.294928,-1.909396 0.502999,-2.850495 q 0.320385,-1.449151 0.768152,-2.865361 0.434477,-1.378421 0.99051,-2.715182 c 0.384238,-0.926588 0.812627,-1.833548 1.274813,-2.723459 0.486714,-0.937147 1.025919,-1.848921 1.601645,-2.733936 q 0.796482,-1.224511 1.69671,-2.375469 c 0.651108,-0.836329 1.342985,-1.643198 2.072924,-2.411619 q 1.105076,-1.163509 2.30908,-2.223433 c 0.817358,-0.72009 1.674477,-1.393623 2.557571,-2.030853 q 0.682845,-0.492764 1.391358,-0.948011 A 41.284367,41.284367 0 0 0 58.375591,81.382234 q 0.138612,0.287854 0.281682,0.573545 0.065,0.129754 0.130886,0.259052 a 0.77713734,0.77713734 0 0 0 0.07937,0.154928 c 0.05466,0.06062 0.06842,0.05046 0.152015,0.04894 0.435502,-0.0079 0.871355,-0.0059 1.306796,0.0035 q 1.206895,0.02606 2.409927,0.137626 a 33.714693,33.714693 0 0 1 30.096252,28.104595 34.010317,34.010317 0 0 1 0.108345,10.16373 33.574483,33.574483 0 0 1 -7.797903,17.20702 34.155595,34.155595 0 0 1 -8.40874,7.05851 33.761992,33.761992 0 0 1 -20.972429,4.47558 34.304251,34.304251 0 0 1 -3.919643,-0.68076 c -0.836937,-0.19654 -1.665621,-0.42756 -2.485107,-0.68775 a 40.981983,40.981983 0 0 0 11.579521,3.20508 41.732026,41.732026 0 0 0 11.218524,-0.13483 41.139086,41.139086 0 0 0 18.357428,-7.58267 41.563097,41.563097 0 0 0 10.090605,-10.65498 q 0.17589,-0.26811 0.34759,-0.53892 c 0.0444,-0.0701 0.14371,-0.18056 0.13081,-0.25489 a 1.4349607,1.4349607 0 0 0 -0.17747,-0.32852 q -0.33833,-0.63472 -0.6493,-1.28355 -0.624693,-1.30348 -1.135513,-2.65757 a 33.451164,33.451164 0 0 1 -1.577935,-5.63664 33.93261,33.93261 0 0 1 0.007,-12.49731 33.427516,33.427516 0 0 1 3.607808,-10.009843 33.630229,33.630229 0 0 1 29.23978,-17.409734 q 1.2394,-0.0086 2.477,0.07171 1.19365,0.07939 2.37986,0.239523 1.17439,0.160616 2.33577,0.404398 1.13696,0.240013 2.25604,0.555807 1.09621,0.31098 2.16954,0.695681 1.08802,0.390663 2.14674,0.855435 1.0793,0.471343 2.12191,1.021323 1.04154,0.547801 2.04403,1.16677 c 0.62733,0.388113 1.24405,0.794807 1.84351,1.224933 q 0.9274,0.665442 1.81193,1.386579 c 0.60865,0.495095 1.19603,1.016745 1.76733,1.554478 q 0.91233,0.858763 1.7582,1.784389 0.84427,0.920202 1.61666,1.903818 c 0.57436,0.729485 1.12139,1.481859 1.63192,2.257383 0.52443,0.796719 1.02021,1.614187 1.47783,2.451997 a 33.821117,33.821117 0 0 1 1.70076,3.609323 34.963071,34.963071 0 0 1 1.34683,4.11695 41.174563,41.174563 0 0 0 -8.72987,-20.430178 41.498904,41.498904 0 0 0 -12.67164,-10.554973 41.025906,41.025906 0 0 0 -16.20832,-4.781344 q -0.72082,-0.05767 -1.44336,-0.09025 z"
     shape-rendering="geometricPrecision"
     id="path18"
     style="fill:#ffffff;stroke-width:0.168928" />
</svg>
