<?xml version="1.0" encoding="UTF-8" standalone="no"?>
<svg
   viewBox="0 0 192 192"
   version="1.1"
   id="svg3"
   sodipodi:docname="pulsar-edit.svg"
   inkscape:version="1.4.4 (dcaf3e7d9e, 2026-05-05)"
   xml:space="preserve"
   xmlns:inkscape="http://www.inkscape.org/namespaces/inkscape"
   xmlns:sodipodi="http://sodipodi.sourceforge.net/DTD/sodipodi-0.dtd"
   xmlns="http://www.w3.org/2000/svg"
   xmlns:svg="http://www.w3.org/2000/svg"><defs
     id="defs1"><inkscape:path-effect
       effect="mirror_symmetry"
       start_point="96,0"
       end_point="96,192"
       center_point="96,96"
       id="path-effect4"
       is_visible="true"
       lpeversion="1.2"
       lpesatellites=""
       mode="vertical"
       discard_orig_path="false"
       fuse_paths="false"
       oposite_fuse="false"
       split_items="true"
       split_open="false"
       link_styles="false" /></defs><sodipodi:namedview
     id="namedview3"
     pagecolor="#505050"
     bordercolor="#ffffff"
     borderopacity="1"
     inkscape:showpageshadow="0"
     inkscape:pageopacity="0"
     inkscape:pagecheckerboard="1"
     inkscape:deskcolor="#505050"
     inkscape:zoom="2.9941553"
     inkscape:cx="65.293874"
     inkscape:cy="102.19911"
     inkscape:window-width="1920"
     inkscape:window-height="1048"
     inkscape:window-x="0"
     inkscape:window-y="0"
     inkscape:window-maximized="1"
     inkscape:current-layer="svg3"
     showgrid="false" /><circle
     class="a"
     cx="96"
     cy="96"
     r="88"
     id="circle1"
     style="opacity:1;stroke:none;fill:#8c72bd"
     inkscape:label="background" /><ellipse
     style="display:inline;fill:none;stroke:#ffffff;stroke-width:4;stroke-linecap:round;stroke-linejoin:round;stroke-dasharray:none;stroke-dashoffset:16.6"
     id="path1"
     cx="0.22887771"
     cy="-135.25415"
     rx="42.98428"
     ry="28.273085"
     transform="rotate(135)"
     inkscape:label="orbit" /><ellipse
     style="display:inline;fill:none;stroke:#ffffff;stroke-width:4;stroke-linecap:round;stroke-linejoin:round;stroke-dasharray:none;stroke-dashoffset:16.6"
     id="ellipse1"
     cx="-135.25415"
     cy="-0.22887771"
     rx="42.98428"
     ry="28.273085"
     transform="rotate(-135)"
     inkscape:label="orbit" /><circle
     style="display:inline;fill:#ffffff;stroke:none;stroke-width:4.69267;stroke-linecap:round;stroke-linejoin:round;stroke-dasharray:none;stroke-dashoffset:16.6"
     id="path2"
     cx="-4.043894e-07"
     cy="-135.89095"
     r="10.528193"
     transform="rotate(135)"
     inkscape:label="inner core" /><circle
     style="display:inline;fill:none;stroke:#ffffff;stroke-width:4;stroke-linecap:round;stroke-linejoin:round;stroke-dasharray:none;stroke-dashoffset:16.6"
     id="circle3"
     cx="-4.043894e-07"
     cy="-135.89095"
     r="17.537743"
     transform="rotate(135)"
     inkscape:label="outer core" /><path
     id="path3"
     style="display:inline;fill:#ffffff;stroke:#8c72bd;stroke-width:1.22138;stroke-linecap:round;stroke-linejoin:round;stroke-dasharray:none;stroke-dashoffset:16.6"
     d="M 115.01875,81.451292 137.7704,54.229603 110.51329,76.510636 c -1.3468,3.294698 -2.2922,4.958423 -3.31458,5.308382 a 2.9064366,2.9064366 0 0 0 -1.78801,0.840029 2.9064366,2.9064366 0 0 0 0,4.109062 2.9064366,2.9064366 0 0 0 4.10906,0 2.9064366,2.9064366 0 0 0 0.85015,-2.122004 c 0.26596,-0.881644 0.97979,-1.499228 4.64884,-3.194813 z"
     inkscape:label="spear" /><path
     id="path4"
     d="m 81.451293,115.01875 -27.22169,22.75165 22.281032,-27.25711 c 3.2947,-1.3468 4.958424,-2.2922 5.308382,-3.31458 a 2.9064366,2.9064366 0 0 1 0.84003,-1.78801 2.9064366,2.9064366 0 0 1 4.109061,0 2.9064366,2.9064366 0 0 1 0,4.10906 2.9064366,2.9064366 0 0 1 -2.122003,0.85015 c -0.881645,0.26596 -1.499229,0.97979 -3.194812,4.64884 z"
     style="display:inline;fill:#ffffff;stroke:#8c72bd;stroke-width:1.22138;stroke-linecap:round;stroke-linejoin:round;stroke-dasharray:none;stroke-dashoffset:16.6"
     inkscape:label="spear" /></svg>
