<?xml version="1.0" encoding="UTF-8" standalone="no"?>
<svg
   width="1024"
   height="1024"
   style="isolation:isolate"
   viewBox="0 0 1024 1024"
   version="1.1"
   id="svg6"
   sodipodi:docname="vesktop.svg"
   inkscape:version="1.4.4 (dcaf3e7d9e, 2026-05-05)"
   xmlns:inkscape="http://www.inkscape.org/namespaces/inkscape"
   xmlns:sodipodi="http://sodipodi.sourceforge.net/DTD/sodipodi-0.dtd"
   xmlns="http://www.w3.org/2000/svg"
   xmlns:svg="http://www.w3.org/2000/svg">
  <defs
     id="defs6" />
  <sodipodi:namedview
     id="namedview6"
     pagecolor="#ffffff"
     bordercolor="#000000"
     borderopacity="0.25"
     inkscape:showpageshadow="2"
     inkscape:pageopacity="0.0"
     inkscape:pagecheckerboard="0"
     inkscape:deskcolor="#d1d1d1"
     inkscape:zoom="0.5814296"
     inkscape:cx="564.98672"
     inkscape:cy="369.77822"
     inkscape:window-width="1920"
     inkscape:window-height="1048"
     inkscape:window-x="0"
     inkscape:window-y="0"
     inkscape:window-maximized="1"
     inkscape:current-layer="svg6" />
  <path
     fill="#eb7396"
     d="m 336.23,886.35 c 56.07,31.62 150.18,51.4 247.12,37.3 C 816.1,889.78 977.57,673.33 943.7,440.57 909.85,207.83 693.41,46.36 460.65,80.22 227.9,114.08 66.43,330.53 100.3,563.28 c 6.86,47.2 21.23,91.46 29.65,108.01 6.67,13.1 9.03,35.28 5.28,49.5 l -26.8,101.43 c -16.75,63.41 21.03,100.93 84.32,83.73 l 94.59,-25.7 c 14.18,-3.86 36.1,-1.12 48.9,6.1 z"
     style="display:inline;isolation:isolate;fill:#ffd6d4"
     id="path1" />
  <path
     d="M494.586 109.162c-3.861.14-7.743.508-11.621 1.004-72.122 6.505-117.149 63.067-128.176 116.693l-17.812 86.508-35.555-76.785v-.002c-23.455-50.637-77.415-90.65-141.998-81.877-32.285 4.386-60.608 22.22-76.123 48.385-13.722 23.14-16.564 52.439-7.66 78.943v1.608l157.394 336.037c24.863 53.102 81.404 87.116 143.43 78.681 61.475-8.36 109.47-52.362 123.914-110.074l91.158-364.25c7.385-29.508 1.643-63.11-20.129-86.328-19.05-20.315-47.417-29.61-76.822-28.543"
     style="isolation:isolate;display:inline;baseline-shift:baseline;overflow:visible;opacity:1;vector-effect:none;fill:#56595b;stop-color:#000;stop-opacity:1"
     id="path2" />
  <path
     fill="#fff"
     d="m118.49 274.1 153.35 327.4c16 34.18 58.517 59.883 98.852 54.398s78.958-41.418 88.118-78.018l91.16-364.25c9.16-36.6-14.593-67.398-62.253-60.918-51.41 4.189-83.357 45.818-90.957 82.778l-37.84 183.78c-3.42 16.62-11.98 17.61-19.1 2.22l-77.28-166.9c-15.86-34.24-55.539-63.108-97.349-57.428S102.48 239.92 118.49 274.09Z"
     style="isolation:isolate;display:inline;fill:#ffffff;fill-opacity:1"
     id="path3" />
  <path
     d="M701.543 396.742a266.4 266.4 0 0 0-100.73 17.746l-.004.002h-.002a271.8 271.8 0 0 0-81.118 48.942 275 275 0 0 0-59.822 74.15v.002a277 277 0 0 0-31.572 93.527v.006l-.002.006c-1.984 13.48-3.023 27.136-3.024 40.893v.014a275.13 275.13 0 0 0 64.01 176.617l.004.004.002.004a269.5 269.5 0 0 0 72.846 61.008l.02.011.02.012a266.5 266.5 0 0 0 93.054 32.19l.017.002a266.3 266.3 0 0 0 114.906-8.061l.02-.006.02-.006a270.3 270.3 0 0 0 67.706-30.816l.004-.002c34.575-21.867 52.68-62.732 45.645-103.032-7.032-40.29-37.897-72.6-77.82-81.47a101.46 101.46 0 0 0-76.338 13.314l-.024.016-.023.015a67 67 0 0 1-16.83 7.67 63.3 63.3 0 0 1-17.957 2.6h-.081a63.86 63.86 0 0 1-31.726-8.37 67 67 0 0 1-17.951-15.042l-.006-.008a72.44 72.44 0 0 1-16.838-46.524v-.016a76.6 76.6 0 0 1 9.367-36.642 72.5 72.5 0 0 1 15.688-19.395l.012-.012.011-.011a69.3 69.3 0 0 1 20.617-12.455 63.97 63.97 0 0 1 59.061 6.896 68.5 68.5 0 0 1 19.91 21.201h.002v.002c28.529 47.605 91.489 63.35 139.068 34.78l.01-.006.01-.006c47.508-28.562 63.227-91.41 34.76-138.975l-.013-.025-.016-.026a271.8 271.8 0 0 0-79.111-84.105l-.026-.02-.027-.017a266.5 266.5 0 0 0-111.506-43.725 266 266 0 0 0-34.223-2.857"
     style="isolation:isolate;display:inline;baseline-shift:baseline;overflow:visible;opacity:1;vector-effect:none;fill:#ffffff;stop-color:#000;stop-opacity:1"
     id="path4" />
  <path
     fill="#1d2021"
     d="m 751.65,766.94 a 59.8,59.8 0 0 1 45.03,-7.85 c 23.607,5.237 41.724,24.197 45.882,48.018 4.157,23.821 -6.465,47.797 -26.902,60.722 a 228.7,228.7 0 0 1 -57.33,26.1 224.7,224.7 0 0 1 -96.97,6.8 224.9,224.9 0 0 1 -78.56,-27.17 227.9,227.9 0 0 1 -61.6,-51.59 233.5,233.5 0 0 1 -54.33,-149.94 c 0,-11.67 0.88,-23.3 2.58,-34.85 a 235.4,235.4 0 0 1 26.83,-79.48 233.4,233.4 0 0 1 50.78,-62.94 230.2,230.2 0 0 1 68.7,-41.45 224.8,224.8 0 0 1 113.91,-12.56 c 33.75,5 65.94,17.62 94.1,36.9 a 230.15,230.15 0 0 1 67,71.23 c 16.936,28.299 7.765,64.967 -20.5,81.96 -28.294,16.99 -65.005,7.81 -81.97,-20.5 a 110.1,110.1 0 0 0 -32.08,-34.14 105.7,105.7 0 0 0 -97.52,-11.4 110.9,110.9 0 0 0 -33.05,19.96 114,114 0 0 0 -24.79,30.69 118.2,118.2 0 0 0 -14.51,56.66 114.07,114.07 0 0 0 26.51,73.24 108.6,108.6 0 0 0 29.24,24.5 105.5,105.5 0 0 0 52.45,13.85 c 10.08,0 20.12,-1.45 29.8,-4.32 a 108.6,108.6 0 0 0 27.3,-12.44"
     style="isolation:isolate;display:inline;fill:#56595b"
     id="path5" />
</svg>
