<?xml version="1.0" encoding="UTF-8" standalone="no"?>
<svg
   width="192"
   height="192"
   version="1.1"
   viewBox="0 0 192 192"
   id="svg1"
   sodipodi:docname="winrar.svg"
   inkscape:version="1.4.4 (dcaf3e7d9e, 2026-05-05)"
   xml:space="preserve"
   xmlns:inkscape="http://www.inkscape.org/namespaces/inkscape"
   xmlns:sodipodi="http://sodipodi.sourceforge.net/DTD/sodipodi-0.dtd"
   xmlns="http://www.w3.org/2000/svg"
   xmlns:svg="http://www.w3.org/2000/svg"><defs
     id="defs1"><inkscape:path-effect
       effect="mirror_symmetry"
       start_point="95.993491,-0.86810112"
       end_point="95.993491,191.1319"
       center_point="95.993491,95.131899"
       id="path-effect11"
       is_visible="true"
       lpeversion="1.2"
       lpesatellites=""
       mode="vertical"
       discard_orig_path="false"
       fuse_paths="true"
       oposite_fuse="true"
       split_items="false"
       split_open="false"
       link_styles="false" /></defs><sodipodi:namedview
     id="namedview1"
     pagecolor="#ffffff"
     bordercolor="#000000"
     borderopacity="0.25"
     inkscape:showpageshadow="2"
     inkscape:pageopacity="0.0"
     inkscape:pagecheckerboard="0"
     inkscape:deskcolor="#d1d1d1"
     inkscape:zoom="2.1927083"
     inkscape:cx="75.021379"
     inkscape:cy="95.771973"
     inkscape:window-width="1920"
     inkscape:window-height="1048"
     inkscape:window-x="0"
     inkscape:window-y="0"
     inkscape:window-maximized="1"
     inkscape:current-layer="svg1" /><path
     id="rect1"
     style="display:inline;fill:#ff837d;stroke-width:0.287;stroke-linecap:round;stroke-linejoin:round;stroke-dashoffset:135.5"
     d="M 15.954606,26.179266 H 175.80258 c 1.93465,15.429929 1.71745,30.859858 0,46.289787 H 15.954606 c -1.504163,-15.322489 -1.505659,-30.752311 0,-46.289787 z"
     sodipodi:nodetypes="ccccc" /><path
     id="path8"
     style="display:inline;fill:#9abeff;stroke-width:0.287001;stroke-linecap:round;stroke-linejoin:round;stroke-dashoffset:135.5"
     d="M 15.954611,72.469101 H 175.80332 c 1.93466,15.43 1.71746,30.859999 0,46.289999 H 15.954611 c -1.50417,-15.32256 -1.505666,-30.752452 0,-46.289999 z"
     sodipodi:nodetypes="ccccc" /><path
     id="path9"
     style="display:inline;fill:#98dc9a;stroke-width:0.287001;stroke-linecap:round;stroke-linejoin:round;stroke-dashoffset:135.5"
     d="M 15.954611,118.7591 H 175.80332 c 1.93466,15.43 1.71746,30.86 0,46.29 H 15.954611 c -1.50417,-15.32256 -1.505666,-30.75245 0,-46.29 z"
     sodipodi:nodetypes="ccccc" /><rect
     style="display:inline;fill:#f8c18c;stroke:none;stroke-width:0.287;stroke-linecap:round;stroke-linejoin:round;stroke-dashoffset:135.5"
     id="rect9"
     width="46.114784"
     height="145.11646"
     x="72.942612"
     y="23.441772"
     ry="3.9503915" /><rect
     style="fill:#d3b69a;stroke:none;stroke-width:0.287;stroke-linecap:round;stroke-linejoin:round;stroke-dashoffset:135.5"
     id="rect10"
     width="49.482185"
     height="19.04038"
     x="71.258911"
     y="51.71846"
     ry="2.696233" /><path
     style="fill:#ffffff;stroke:none;stroke-width:0.287;stroke-linecap:round;stroke-linejoin:round;stroke-dashoffset:135.5"
     d="m 92.002179,124.11751 h 7.866979 l 1.710222,-15.04988 c 1.05134,-8.85226 -12.225989,-8.5271 -11.401429,0 z"
     id="path10"
     sodipodi:nodetypes="ccccc" /><path
     style="fill:#ffffff;stroke:none;stroke-width:0.287;stroke-linecap:round;stroke-linejoin:round;stroke-dashoffset:135.5"
     d="m 70.220703,81.292969 c -1.31031,0 -2.493167,0.817744 -2.623047,3.078125 l -1.36914,39.105466 c 0,3.50241 2.643082,9.1211 9.007812,9.1211 H 95.994141 116.75 c 6.36473,0 9.00781,-5.61869 9.00781,-9.1211 l -1.36914,-39.105466 c -0.12988,-2.260381 -1.31078,-3.078125 -2.62109,-3.078125 h -2.73633 l -0.11523,34.146481 c 0.0649,2.59042 -1.07218,4.04688 -3.19141,4.04688 l -19.730469,0.27539 -19.732422,-0.27539 c -2.11923,0 -3.256306,-1.45646 -3.191407,-4.04688 L 72.957031,81.292969 Z"
     id="path11"
     sodipodi:nodetypes="cccccccccc"
     transform="translate(0.0065092,0.86810112)" /></svg>
