<?xml version="1.0" encoding="UTF-8" standalone="no"?>
<svg
   width="192"
   height="192"
   version="1.1"
   viewBox="0 0 192 192"
   id="svg1"
   sodipodi:docname="category-multimedia.svg"
   inkscape:version="1.4.4 (dcaf3e7d9e, 2026-05-05)"
   xmlns:inkscape="http://www.inkscape.org/namespaces/inkscape"
   xmlns:sodipodi="http://sodipodi.sourceforge.net/DTD/sodipodi-0.dtd"
   xmlns="http://www.w3.org/2000/svg"
   xmlns:svg="http://www.w3.org/2000/svg">
  <defs
     id="defs1" />
  <sodipodi:namedview
     id="namedview1"
     pagecolor="#ffffff"
     bordercolor="#000000"
     borderopacity="0.25"
     inkscape:showpageshadow="2"
     inkscape:pageopacity="0.0"
     inkscape:pagecheckerboard="0"
     inkscape:deskcolor="#d1d1d1"
     inkscape:zoom="3.1009579"
     inkscape:cx="56.917896"
     inkscape:cy="93.197009"
     inkscape:window-width="1920"
     inkscape:window-height="1048"
     inkscape:window-x="0"
     inkscape:window-y="0"
     inkscape:window-maximized="1"
     inkscape:current-layer="svg1" />
  <rect
     x="20.322481"
     y="20"
     width="152"
     height="152"
     rx="10"
     style="fill:#8c72bd;fill-rule:evenodd"
     id="rect1" />
  <path
     d="m 63.72193,74.541294 c 0,-3.101791 2.510866,-5.616371 5.616033,-5.616371 h 53.323847 c 3.10168,0 5.61604,2.521106 5.61604,5.616371 v 42.916286 c 0,3.10179 -2.51087,5.61637 -5.61604,5.61637 H 69.337963 c -3.101679,0 -5.616033,-2.5211 -5.616033,-5.61637 z m 82.34688,-16.233547 c 1.86448,0 3.37554,1.515791 3.37554,3.385552 V 130.3067 c 0,1.87978 -1.51129,3.38555 -3.37554,3.38555 H 45.931186 c -1.864472,0 -3.375538,-1.51579 -3.375538,-3.38555 V 61.693299 c 0,-1.879775 1.511291,-3.385552 3.375538,-3.385552 z m -4.16043,58.395993 h -6.09422 c -1.22967,0 -2.24443,1.00811 -2.24443,2.25174 v 6.11414 c 0,1.2336 1.00484,2.25174 2.24443,2.25174 h 6.09422 c 1.22966,0 2.24443,-1.00813 2.24443,-2.25174 v -6.11414 c 0,-1.2336 -1.00484,-2.25174 -2.24443,-2.25174 z m -85.722313,0 h -6.094219 c -1.229667,0 -2.244433,1.00811 -2.244433,2.25174 v 6.11414 c 0,1.2336 1.004842,2.25174 2.244433,2.25174 h 6.094219 c 1.229668,0 2.244433,-1.00813 2.244433,-2.25174 v -6.11414 c 0,-1.2336 -1.004842,-2.25174 -2.244433,-2.25174 z M 141.90838,99.715218 h -6.09422 c -1.22967,0 -2.24443,1.008112 -2.24443,2.251742 v 6.11414 c 0,1.2336 1.00484,2.25174 2.24443,2.25174 h 6.09422 c 1.22966,0 2.24443,-1.00812 2.24443,-2.25174 v -6.11414 c 0,-1.2336 -1.00484,-2.251742 -2.24443,-2.251742 z m -85.722313,0 h -6.094219 c -1.229667,0 -2.244433,1.008112 -2.244433,2.251742 v 6.11414 c 0,1.2336 1.004842,2.25174 2.244433,2.25174 h 6.094219 c 1.229668,0 2.244433,-1.00812 2.244433,-2.25174 v -6.11414 c 0,-1.2336 -1.004842,-2.251742 -2.244433,-2.251742 z M 141.90838,82.726701 h -6.09422 c -1.22967,0 -2.24443,1.008127 -2.24443,2.251747 v 6.114133 c 0,1.233606 1.00484,2.251747 2.24443,2.251747 h 6.09422 c 1.22966,0 2.24443,-1.008128 2.24443,-2.251747 v -6.114133 c 0,-1.233606 -1.00484,-2.251747 -2.24443,-2.251747 z m -85.722313,0 h -6.094219 c -1.229667,0 -2.244433,1.008127 -2.244433,2.251747 v 6.114133 c 0,1.233606 1.004842,2.251747 2.244433,2.251747 h 6.094219 c 1.229668,0 2.244433,-1.008128 2.244433,-2.251747 v -6.114133 c 0,-1.233606 -1.004842,-2.251747 -2.244433,-2.251747 z M 141.90838,65.738184 h -6.09422 c -1.22967,0 -2.24443,1.008127 -2.24443,2.251746 v 6.114134 c 0,1.233605 1.00484,2.251746 2.24443,2.251746 h 6.09422 c 1.22966,0 2.24443,-1.008127 2.24443,-2.251746 V 67.98993 c 0,-1.233605 -1.00484,-2.251746 -2.24443,-2.251746 z m -85.722313,0 h -6.094219 c -1.229667,0 -2.244433,1.008127 -2.244433,2.251746 v 6.114134 c 0,1.233605 1.004842,2.251746 2.244433,2.251746 h 6.094219 c 1.229668,0 2.244433,-1.008127 2.244433,-2.251746 V 67.98993 c 0,-1.233605 -1.004842,-2.251746 -2.244433,-2.251746 z"
     style="fill:#bd9aff;fill-rule:evenodd;stroke-width:1.12514"
     id="path2-6" />
  <path
     d="m 135.53713,89.739882 -7.08887,3.451854 9.3e-4,49.211224 c 0,8.33467 -6.66615,15.1154 -14.96802,15.32172 l -0.39033,0.005 c -8.48205,-2.8e-4 -15.357594,-6.86248 -15.357594,-15.32685 0,-8.46436 6.876064,-15.32684 15.357594,-15.32684 2.09335,0 4.08879,0.41796 5.90725,1.17483 l -3.4e-4,-42.43949 14.25667,-6.431621 c 5.11377,-1.933113 9.36042,7.160025 2.28269,10.360283 z"
     style="fill:#bd9aff;fill-rule:evenodd;stroke:#8c72bd;stroke-width:5;stroke-dasharray:none"
     id="path2"
     sodipodi:nodetypes="cccccsscccc" />
</svg>
