<?xml version="1.0" encoding="UTF-8" standalone="no"?>
<svg
   width="192"
   height="192"
   version="1.1"
   viewBox="0 0 192 192"
   id="svg1"
   sodipodi:docname="category-setings.svg"
   inkscape:version="1.4.4 (dcaf3e7d9e, 2026-05-05)"
   xmlns:inkscape="http://www.inkscape.org/namespaces/inkscape"
   xmlns:sodipodi="http://sodipodi.sourceforge.net/DTD/sodipodi-0.dtd"
   xmlns="http://www.w3.org/2000/svg"
   xmlns:svg="http://www.w3.org/2000/svg">
  <defs
     id="defs1" />
  <sodipodi:namedview
     id="namedview1"
     pagecolor="#ffffff"
     bordercolor="#000000"
     borderopacity="0.25"
     inkscape:showpageshadow="2"
     inkscape:pageopacity="0.0"
     inkscape:pagecheckerboard="0"
     inkscape:deskcolor="#d1d1d1"
     inkscape:zoom="3.1009579"
     inkscape:cx="95.293135"
     inkscape:cy="74.815592"
     inkscape:window-width="1920"
     inkscape:window-height="1048"
     inkscape:window-x="0"
     inkscape:window-y="0"
     inkscape:window-maximized="1"
     inkscape:current-layer="svg1" />
  <rect
     x="20.322481"
     y="20"
     width="152"
     height="152"
     rx="10"
     style="fill:#979797;fill-rule:evenodd"
     id="rect1" />
  <path
     d="m 76.59,180.38 c -2.0481,1.8561 -5.7137,2.3651 -8.1884,1.1364 l -18.924,-9.3953 c -2.4743,-1.2284 -4.3392,-4.4543 -4.1649,-7.2156 l 0.6855,-10.856 c 0.17407,-2.7566 -1.0851,-6.7349 -2.8099,-8.8825 l -5.0767,-6.3212 c -1.726,-2.1491 -5.3267,-4.2495 -8.0689,-4.6958 l -9.8047,-1.5957 c -2.7304,-0.44437 -5.3997,-2.9939 -5.9614,-5.6902 L 9.753,105.1461 c -0.56202,-2.6983 0.81887,-6.1696 3.0798,-7.7502 l 7.2847,-5.0929 c 2.263,-1.5821 4.5788,-5.0584 5.1688,-7.747 l 1.9146,-8.7259 c 0.59166,-2.6965 -0.02712,-6.8375 -1.3756,-9.2379 l -3.8487,-6.8507 c -1.3514,-2.4055 -1.029,-6.0909 0.71804,-8.2291 l 14.659,-17.941 c 1.748,-2.1394 5.3165,-3.2375 7.9605,-2.4558 l 6.6115,1.9547 c 2.6485,0.78303 6.808,0.43088 9.2913,-0.78694 l 9.0086,-4.4179 c 2.4829,-1.2176 5.3398,-4.2832 6.3759,-6.8347 l 2.45,-6.0333 c 1.0384,-2.5571 4.1239,-4.6393 6.8815,-4.6507 l 23.404,-0.09693 c 2.7622,-0.01144 5.8455,2.0581 6.8842,4.6161 l 2.3982,5.9058 c 1.0399,2.5608 3.9057,5.6107 6.3903,6.8069 l 9.5562,4.601 c 2.4893,1.1985 6.663,1.5328 9.3011,0.75287 l 6.646,-1.9649 c 2.6475,-0.78273 6.2173,0.30689 7.9801,2.4419 l 14.458,17.511 c 1.7598,2.1314 2.0878,5.8148 0.73536,8.222 l -3.7727,6.7152 c -1.3537,2.4095 -1.9672,6.5486 -1.372,9.2375 l 2.2072,9.9709 c 0.59597,2.6922 2.9091,6.154 5.1722,7.7362 l 7.2387,5.0607 c 2.2605,1.5804 3.6309,5.0596 3.0634,7.7591 l -4.4391,21.113 c -0.56869,2.7048 -3.2472,5.2584 -5.9665,5.701 l -9.7909,1.5935 c -2.7265,0.44375 -6.3414,2.5347 -8.0841,4.6827 l -5.7441,7.0799 c -1.7382,2.1424 -3.0062,6.1139 -2.8326,8.8633 l 0.67756,10.73 c 0.17382,2.7526 -1.7034,5.9672 -4.1747,7.1712 l -18.772,9.1453 c -2.4795,1.208 -6.152,0.68046 -8.1974,-1.1731 l -8.3991,-7.6118 c -2.0478,-1.8558 -5.9493,-3.2287 -8.6948,-3.0674 l 1.1817,-0.0694 c -2.7542,0.16175 -7.2114,0.15327 -9.9826,-0.0207 l 0.60463,0.0379 c -2.759,-0.17316 -6.6496,1.1853 -8.704,3.0472 l -8.3153,7.5358 z"
     fill="#b1b5bd"
     id="path1"
     transform="matrix(0.57300263,0,0,0.57300263,39.851762,40.819614)"
     style="display:inline;fill:#56595b" />
  <circle
     cx="98.5"
     cy="96.5"
     r="53.5"
     stroke="#f9de81"
     stroke-width="10"
     id="circle2-5"
     transform="matrix(0.57300263,0,0,0.57300263,39.851762,40.819614)"
     style="display:inline;stroke:none;fill:#979797" />
  <circle
     cx="98"
     cy="96"
     r="35"
     fill="#4a4a4a"
     id="circle1"
     transform="matrix(0.57300263,0,0,0.57300263,39.851762,40.819614)"
     style="display:none" />
</svg>
