<?xml version="1.0" encoding="UTF-8" standalone="no"?>
<svg
   width="192"
   height="192"
   version="1.1"
   viewBox="0 0 192 192"
   id="svg1"
   sodipodi:docname="category-privacy.svg"
   inkscape:version="1.4.4 (dcaf3e7d9e, 2026-05-05)"
   xmlns:inkscape="http://www.inkscape.org/namespaces/inkscape"
   xmlns:sodipodi="http://sodipodi.sourceforge.net/DTD/sodipodi-0.dtd"
   xmlns="http://www.w3.org/2000/svg"
   xmlns:svg="http://www.w3.org/2000/svg">
  <defs
     id="defs1" />
  <sodipodi:namedview
     id="namedview1"
     pagecolor="#ffffff"
     bordercolor="#000000"
     borderopacity="0.25"
     inkscape:showpageshadow="2"
     inkscape:pageopacity="0.0"
     inkscape:pagecheckerboard="0"
     inkscape:deskcolor="#d1d1d1"
     inkscape:zoom="3.1009579"
     inkscape:cx="75.621794"
     inkscape:cy="107.06369"
     inkscape:window-width="1920"
     inkscape:window-height="1048"
     inkscape:window-x="0"
     inkscape:window-y="0"
     inkscape:window-maximized="1"
     inkscape:current-layer="svg1" />
  <rect
     x="20"
     y="20"
     width="152"
     height="152"
     rx="10"
     style="fill-rule:evenodd;fill:#8c72bd"
     id="rect1" />
  <g
     transform="matrix(0.5668244,0,0,0.5668244,41.584744,-446.09237)"
     id="g2">
    <path
       d="m 91.428,870.27 c -23.685,23.173 -53.662,33.776 -66.548,37.503 -3.4869,1.0082 -6.3686,4.5956 -6.3023,8.2254 1.3626,74.599 26.322,100 71.749,126.98 3.1215,1.8537 8.2257,1.8537 11.347,0 45.426,-26.976 70.386,-52.378 71.749,-126.98 0.0663,-3.6298 -2.8154,-7.2172 -6.3024,-8.2254 -12.887,-3.7263 -42.864,-14.33 -66.548,-37.503 -2.5946,-2.5386 -6.5484,-2.5385 -9.1431,9e-5 z"
       style="fill:#bd9aff"
       id="path1" />
    <g
       transform="matrix(0.98603,0,0,0.98603,1.3412,15.506)"
       style="fill:#8c72bd"
       id="g1">
      <circle
         cx="96"
         cy="950.35999"
         r="20.837999"
         style="fill:#8c72bd;stop-color:#000000"
         id="circle1" />
      <rect
         x="88.521004"
         y="949.91998"
         width="14.958"
         height="39.207001"
         rx="4.2371001"
         ry="4.2371001"
         style="fill:#8c72bd;stop-color:#000000"
         id="rect1-5" />
    </g>
  </g>
</svg>
