<?xml version="1.0" encoding="UTF-8" standalone="no"?>
<svg
   width="192"
   height="192"
   version="1.1"
   viewBox="0 0 192 192"
   id="svg1"
   sodipodi:docname="category-internet.svg"
   inkscape:version="1.4.4 (dcaf3e7d9e, 2026-05-05)"
   xmlns:inkscape="http://www.inkscape.org/namespaces/inkscape"
   xmlns:sodipodi="http://sodipodi.sourceforge.net/DTD/sodipodi-0.dtd"
   xmlns="http://www.w3.org/2000/svg"
   xmlns:svg="http://www.w3.org/2000/svg">
  <defs
     id="defs1" />
  <sodipodi:namedview
     id="namedview1"
     pagecolor="#ffffff"
     bordercolor="#000000"
     borderopacity="0.25"
     inkscape:showpageshadow="2"
     inkscape:pageopacity="0.0"
     inkscape:pagecheckerboard="0"
     inkscape:deskcolor="#d1d1d1"
     inkscape:zoom="3.1009579"
     inkscape:cx="75.621794"
     inkscape:cy="107.06369"
     inkscape:window-width="1920"
     inkscape:window-height="1048"
     inkscape:window-x="0"
     inkscape:window-y="0"
     inkscape:window-maximized="1"
     inkscape:current-layer="svg1" />
  <rect
     x="20"
     y="20"
     width="152"
     height="152"
     rx="10"
     style="fill-rule:evenodd;fill:#9abeff"
     id="rect1" />
  <path
     d="m 95.999998,58.060573 c 10.457892,0 19.395532,3.70878 26.812912,11.126519 7.41738,7.417739 11.12652,16.355019 11.12652,26.812905 0,10.457893 -3.70914,19.395533 -11.12652,26.812913 -7.41738,7.41738 -16.35502,11.12652 -26.81291,11.12652 -10.457893,0 -19.39553,-3.70914 -26.812911,-11.12652 -7.417651,-7.41738 -11.12652,-16.35502 -11.12652,-26.812913 0,-10.457886 3.70878,-19.395523 11.12652,-26.812905 7.417738,-7.41765 16.355018,-11.126519 26.812909,-11.126519 z m -4.012831,70.224547 c 0.243169,-0.48652 0.577572,-1.15515 1.003208,-2.00678 0.425636,-0.85073 0.760038,-1.51936 1.003208,-2.00588 0.24317,-0.48651 0.364843,-1.00338 0.364843,-1.5506 0,-0.54722 -0.304051,-1.06409 -0.912064,-1.55061 -1.945623,-1.70236 -3.344025,-2.97892 -4.195208,-3.83054 -0.24317,-0.24282 -0.608013,-0.94179 -1.094441,-2.09783 -0.486338,-1.15515 -0.668805,-1.85412 -0.54713,-2.09694 0.608012,-1.09444 1.09435,-2.55399 1.459195,-4.37776 0.364754,-1.45955 -0.425636,-2.79681 -2.371259,-4.01265 -0.851183,-0.48652 -1.702365,-1.09444 -2.553547,-1.82467 -0.851272,-0.72933 -1.793687,-1.51936 -2.827247,-2.37099 -1.033648,-0.850733 -1.85439,-1.519803 -2.462402,-2.006233 -2.188882,-1.58087 -3.404819,-2.73601 -3.648077,-3.46561 -1.094352,-3.16165 -1.702365,-4.8641 -1.82395,-5.10727 -1.094441,-1.580781 -1.763246,-3.252794 -2.006416,-5.01604 -0.243258,-1.763246 -0.182467,-3.617636 0.182377,-5.563259 0,-0.851183 -0.121585,-2.37117 -0.364842,-4.559963 -5.107184,5.83687 -7.66082,12.889587 -7.66082,21.158592 0,8.998343 3.16156,16.659433 9.484859,22.982373 5.228857,5.22939 11.552333,8.32971 18.969715,9.30275 z m 26.995023,-9.30275 c 4.25636,-4.25547 7.11387,-9.24115 8.57342,-14.95706 l -3.46633,-0.36422 c -2.5531,-2.91911 -3.95195,-5.654673 -4.19476,-8.208313 -0.12141,-1.09435 -0.183,-2.7968 -0.183,-5.10718 0,-2.310464 -0.12141,-4.073621 -0.36422,-5.289647 -0.2437,-1.094441 -1.06409,-2.614428 -2.46294,-4.560051 -1.39795,-1.945624 -2.21923,-3.222442 -2.46204,-3.830454 -0.36512,-0.851183 -0.94269,-2.128001 -1.73272,-3.830365 -0.79093,-1.702454 -1.4292,-2.979272 -1.91572,-3.830454 0.1223,0 0.33476,0.06079 0.63917,0.182377 0.30352,0.121674 0.51687,0.243258 0.63827,0.364843 1.21585,-0.243169 2.06659,-0.364843 2.55311,-0.364843 -3.89125,-2.796806 -8.51183,-4.559963 -13.86263,-5.28956 v 1.459195 l 0.73023,1.641572 -2.55382,2.371259 L 97.276639,68.822248 95.4526,66.99821 93.628651,64.809417 91.075015,63.897443 c -2.553636,0.364754 -5.289649,1.155144 -8.20804,2.371169 v 1.276818 c 0.364754,-0.243169 1.03356,-0.486428 2.006416,-0.729597 0.972767,-0.24317 1.702364,-0.486428 2.188793,-0.729598 0.243169,-0.121584 1.216025,0.425547 2.91839,1.641573 -0.121585,0.121584 -0.79039,0.699246 -2.006416,1.732805 -1.216025,1.033648 -1.884831,1.732805 -2.006415,2.097649 0,0.121584 0.212818,0.395195 0.638453,0.82083 0.425547,0.425547 0.638365,0.759949 0.638365,1.003208 0,0.364754 -0.03035,0.881534 -0.09114,1.550339 -0.06088,0.668805 -0.09123,1.185674 -0.09123,1.550428 2.553636,-2.553636 3.891246,-3.830364 4.012831,-3.830364 1.094352,-0.243259 2.431962,0.273521 4.012831,1.550339 1.58078,1.276818 2.492754,2.340818 2.736013,3.192089 0.121585,0.364755 -0.121585,0.881534 -0.729597,1.550339 -0.608013,0.668806 -1.58087,1.550429 -2.91848,2.64487 -1.33761,1.094351 -2.128,1.763157 -2.37117,2.006415 -0.243258,0.24317 -0.79039,0.638365 -1.641661,1.185585 -0.851182,0.547221 -1.459195,1.064 -1.823949,1.550428 -0.364844,0.486339 -0.425636,1.03356 -0.182467,1.641573 1.216026,2.432046 1.520077,3.891246 0.912064,4.377676 -0.243258,0.24317 -0.54722,0.27361 -0.912064,0.0911 -0.364754,-0.18238 -0.638364,-0.3952 -0.820741,-0.63837 -0.182466,-0.24326 -0.425636,-0.54722 -0.729598,-0.91206 -0.304051,-0.36475 -0.516869,-0.60792 -0.638453,-0.7296 -0.729598,-0.85118 -3.039975,-1.27682 -6.931222,-1.27682 0,3.89125 0.911975,6.50568 2.736013,7.84329 4.985688,3.648163 7.843286,5.654043 8.572883,6.019163 0.729598,0.36511 2.188793,0.36511 4.377586,0 2.188792,-0.36512 3.587195,-0.30352 4.195208,0.1821 4.012482,2.79681 6.870882,4.56077 8.573242,5.2901 1.09444,0.36511 2.31029,1.1855 3.64754,2.46205 1.33815,1.27744 1.70237,2.34153 1.09444,3.19226 -1.58095,2.4317 -2.43169,3.83055 -2.5531,4.19566 -0.97303,2.06658 -2.18888,3.58684 -3.64843,4.55987 -1.58096,1.21585 -2.85751,2.97892 -3.83054,5.2892 6.56664,-1.33725 12.16025,-4.31616 16.78083,-8.93763 z"
     clip-rule="evenodd"
     fill="#71A372"
     fill-rule="evenodd"
     style="fill:#54688c;stroke-width:0.892692"
     id="path2-6" />
</svg>
