<?xml version="1.0" encoding="UTF-8" standalone="no"?>
<svg
   width="192"
   height="192"
   version="1.1"
   viewBox="0 0 192 192"
   id="svg1"
   sodipodi:docname="package-manager.svg"
   inkscape:version="1.4.4 (dcaf3e7d9e, 2026-05-05)"
   xmlns:inkscape="http://www.inkscape.org/namespaces/inkscape"
   xmlns:sodipodi="http://sodipodi.sourceforge.net/DTD/sodipodi-0.dtd"
   xmlns="http://www.w3.org/2000/svg"
   xmlns:svg="http://www.w3.org/2000/svg">
  <defs
     id="defs1">
    <rect
       x="47"
       y="82.75"
       width="106.75"
       height="52.25"
       id="rect2" />
    <inkscape:path-effect
       effect="mirror_symmetry"
       start_point="96.000001,-28.51016"
       end_point="96.000001,211.98522"
       center_point="96.000001,91.737532"
       id="path-effect4"
       is_visible="true"
       lpeversion="1.2"
       lpesatellites=""
       mode="vertical"
       discard_orig_path="false"
       fuse_paths="false"
       oposite_fuse="false"
       split_items="false"
       split_open="false"
       link_styles="false" />
  </defs>
  <sodipodi:namedview
     id="namedview1"
     pagecolor="#ffffff"
     bordercolor="#000000"
     borderopacity="0.25"
     inkscape:showpageshadow="2"
     inkscape:pageopacity="0.0"
     inkscape:pagecheckerboard="0"
     inkscape:deskcolor="#d1d1d1"
     inkscape:zoom="4"
     inkscape:cx="93.875"
     inkscape:cy="78.25"
     inkscape:window-width="1920"
     inkscape:window-height="1048"
     inkscape:window-x="0"
     inkscape:window-y="0"
     inkscape:window-maximized="1"
     inkscape:current-layer="svg1" />
  <rect
     x="20"
     y="20"
     width="152"
     height="152"
     rx="10"
     style="fill-rule:evenodd;fill:#d3b69a"
     id="rect1"
     inkscape:label="box itself" />
  <path
     style="fill:#d3b69a;stroke:#8e6f60;stroke-width:7;stroke-linecap:round;stroke-linejoin:round;stroke-dasharray:none;stroke-dashoffset:135.5"
     d="M 30.239069,33.094931 H 161.76093 Z"
     id="path5"
     inkscape:label="the dark part of the box, yknow what I mean :P" />
  <rect
     style="fill:none;stroke:#8e6f60;stroke-width:5.26528;stroke-linecap:round;stroke-linejoin:round;stroke-dasharray:21.0612, 10.5306, 5.26528, 10.5306;stroke-dashoffset:43.7019;stroke-opacity:1"
     id="rect5"
     width="119.78512"
     height="45.742119"
     x="-66.163483"
     y="118.64308"
     ry="5.7588997"
     transform="rotate(-45)"
     inkscape:label="the stamp" />
  <path
     style="fill:#fcecdc;stroke:none;stroke-width:3;stroke-linecap:round;stroke-linejoin:bevel;stroke-dashoffset:135.5"
     d="m 78.756718,20 v 41.111638 l 16.64608,-16.64608 7.257372,27.084886 6.0156,-22.450536 4.56751,7.911163 V 20 Z"
     id="path4"
     sodipodi:nodetypes="cccccccc"
     inkscape:label="tape" />
  <path
     style="font-weight:900;font-size:4px;font-family:'Now Alt';-inkscape-font-specification:'Now Alt Heavy';white-space:pre;fill:#8e6f60;stroke-width:7;stroke-linecap:round;stroke-linejoin:round;stroke-dashoffset:16.6"
     d="m 48.255,86.233894 c 0.575,0 1.07,-0.335 1.07,-0.91 0,-1.14 -1.36,-0.855 -1.36,-1.31 0,-0.13 0.1,-0.19 0.22,-0.19 0.15,0 0.315,0.09 0.475,0.26 l 0.5,-0.485 c -0.235,-0.275 -0.59,-0.445 -0.965,-0.445 -0.475,0 -1,0.275 -1,0.915 0,1.04 1.365,0.79 1.365,1.245 0,0.12 -0.1,0.205 -0.295,0.205 -0.26,0 -0.47,-0.14 -0.575,-0.365 l -0.625,0.39 c 0.2,0.38 0.64,0.69 1.19,0.69 z m 2.724998,0 c 0.72,0 1.285,-0.435 1.285,-0.995 v -2.045 h -0.765 v 1.9 c 0,0.265 -0.23,0.475 -0.52,0.475 -0.29,0 -0.52,-0.21 -0.52,-0.475 v -1.9 h -0.765 v 2.045 c 0,0.56 0.565,0.995 1.285,0.995 z m 1.819996,-0.04 h 1.04 c 0.825,0 1.5,-0.67 1.5,-1.5 0,-0.83 -0.675,-1.5 -1.5,-1.5 h -1.04 z m 0.765,-0.665 v -1.67 h 0.275 c 0.415,0 0.74,0.365 0.74,0.835 0,0.47 -0.325,0.835 -0.74,0.835 z m 3.655001,0.705 c 0.85,0 1.54,-0.69 1.54,-1.54 0,-0.85 -0.69,-1.54 -1.54,-1.54 -0.855,0 -1.54,0.69 -1.54,1.54 0,0.85 0.685,1.54 1.54,1.54 z m 0,-0.75 c -0.455,0 -0.795,-0.335 -0.795,-0.79 0,-0.455 0.34,-0.79 0.795,-0.79 0.45,0 0.79,0.335 0.79,0.79 0,0.455 -0.34,0.79 -0.79,0.79 z"
     id="text1"
     transform="matrix(6.4681756,-6.4681756,6.4681756,6.4681756,-794.06231,-101.06153)"
     aria-label="SUDO" />
</svg>
