<?xml version="1.0" encoding="UTF-8"?>
<svg version="1.1" viewBox="0 0 192 192" xml:space="preserve" xmlns="http://www.w3.org/2000/svg"><g clip-rule="evenodd" stroke-linecap="round" stroke-linejoin="round" stroke-width=".18037"><path d="m63.332 15.915h65.336c7.494 0 16.607 5.2612 20.354 11.751l32.668 56.583c3.7475 6.4899 3.7475 17.012 0 23.502l-32.668 56.583c-3.7469 6.4899-12.859 11.751-20.354 11.751h-65.336c-7.494 0-16.607-5.2612-20.354-11.751l-32.668-56.583c-3.7469-6.4899-3.7469-17.012 0-23.502l32.668-56.583c3.7469-6.4899 12.859-11.751 20.354-11.751" fill="#728dbe"/><path d="m129.29 42.555 29.637 51.334c0.67316 1.1659 0.67316 3.0563 0 4.2222l-29.637 51.334c-0.67316 1.1659-2.3102 2.1111-3.6566 2.1111h-59.275c-1.3463 0-2.9834-0.94517-3.6566-2.1111l-29.638-51.334c-0.67316-1.1659-0.67316-3.0563 0-4.2222l29.638-51.334c0.67316-1.1659 2.3102-2.1111 3.6566-2.1111h59.275c1.3463 0 2.9834 0.94516 3.6566 2.1111" fill="#54688c"/><path d="m66.852 36.471c-2.8851 0-6.3923 2.0276-7.8349 4.5261l-29.142 50.477c-1.4426 2.4987-1.4426 6.5539 0 9.0526l29.142 50.477c1.4426 2.4986 4.9497 4.5261 7.8349 4.5261h1.1273c1.594 0 2.886-1.292 2.886-2.886v-38.206c0-1.1955 0.96915-2.1645 2.1645-2.1645h79.963c1.2895 0 2.8542-0.89844 3.5117-2.0124l5.6198-9.7345c1.4426-2.4987 1.4426-6.5539 0-9.0526l-0.86237-1.4881c-0.63222-1.0947-2.1686-1.9841-3.4329-1.9841h-84.799c-1.1953 0-2.1645-0.96898-2.1645-2.1645v-23.201c0-1.1953 0.96915-2.1645 2.1645-2.1645h67.319c2.1398 0 3.0097-1.5014 1.9446-3.3537l-9.3119-16.121c-1.4426-2.4986-4.9498-4.5261-7.8349-4.5261z" fill="#fff"/></g></svg>
