<?xml version="1.0" encoding="UTF-8" standalone="no"?>
<svg
   version="1.1"
   viewBox="0 0 192 192"
   id="svg4"
   sodipodi:docname="zen-browser.svg.svg"
   inkscape:version="1.4.4 (dcaf3e7d9e, 2026-05-05)"
   xmlns:inkscape="http://www.inkscape.org/namespaces/inkscape"
   xmlns:sodipodi="http://sodipodi.sourceforge.net/DTD/sodipodi-0.dtd"
   xmlns="http://www.w3.org/2000/svg"
   xmlns:svg="http://www.w3.org/2000/svg">
  <defs
     id="defs4" />
  <sodipodi:namedview
     id="namedview4"
     pagecolor="#ffffff"
     bordercolor="#000000"
     borderopacity="0.25"
     inkscape:showpageshadow="2"
     inkscape:pageopacity="0.0"
     inkscape:pagecheckerboard="0"
     inkscape:deskcolor="#d1d1d1"
     inkscape:zoom="3.1009579"
     inkscape:cx="58.852783"
     inkscape:cy="95.776858"
     inkscape:window-width="1920"
     inkscape:window-height="1048"
     inkscape:window-x="0"
     inkscape:window-y="0"
     inkscape:window-maximized="1"
     inkscape:current-layer="svg4" />
  <path
     fill-rule="evenodd"
     clip-rule="evenodd"
     d="m 95.999996,130.11911 c 18.799064,0 34.038484,-15.24945 34.038484,-34.060884 0,-18.811151 -15.23942,-34.060878 -34.038484,-34.060878 -18.798782,0 -34.038482,15.249727 -34.038482,34.060878 0,18.811434 15.2397,34.060884 34.038482,34.060884 z M 123.23089,96.058226 c 0,15.049094 -12.1917,27.248814 -27.230894,27.248814 -15.039192,0 -27.230896,-12.19972 -27.230896,-27.248814 0,-15.049087 12.191704,-27.248813 27.230896,-27.248813 15.039194,0 27.230894,12.199726 27.230894,27.248813 z"
     fill="currentColor"
     id="path1-3"
     style="fill:#f8c18c;stroke-width:2.76653" />
  <path
     fill-rule="evenodd"
     clip-rule="evenodd"
     d="m 154.9999,96.058226 c 0,32.606314 -26.41503,59.038724 -58.999904,59.038724 -32.584868,0 -58.999905,-26.43241 -58.999905,-59.038724 0,-32.606308 26.415037,-59.038725 58.999905,-59.038725 32.584874,0 58.999904,26.432417 58.999904,59.038725 z M 95.999996,143.74351 c 26.318514,0 47.653934,-21.34945 47.653934,-47.685284 0,-26.335834 -21.33542,-47.685285 -47.653934,-47.685285 -26.318517,0 -47.65393,21.349451 -47.65393,47.685285 0,26.335834 21.335413,47.685284 47.65393,47.685284 z"
     fill="currentColor"
     id="path2"
     style="fill:#f8c18c;stroke-width:2.76653" />
  <path
     fill-rule="evenodd"
     clip-rule="evenodd"
     d="m 184.5,96.058226 c 0,48.909324 -39.62284,88.558234 -88.500004,88.558234 C 47.122831,184.61646 7.5,144.96755 7.5,96.058226 7.5,47.148901 47.122831,7.5 95.999996,7.5 144.87716,7.5 184.5,47.148901 184.5,96.058226 Z M 95.999996,168.72136 c 40.104324,0 72.615354,-32.53242 72.615354,-72.663134 0,-40.130714 -32.51103,-72.663159 -72.615354,-72.663159 -40.104327,0 -72.615408,32.532446 -72.615408,72.663159 0,40.130714 32.511082,72.663134 72.615408,72.663134 z"
     fill="currentColor"
     id="path3"
     style="fill:#f8c18c;stroke-width:2.76653" />
</svg>
