<?xml version="1.0" encoding="UTF-8" standalone="no"?>
<svg
   width="192"
   height="192"
   version="1.1"
   viewBox="0 0 192 192"
   id="svg3"
   sodipodi:docname="application-x-blender.svg"
   inkscape:version="1.4.4 (dcaf3e7d9e, 2026-05-05)"
   xmlns:inkscape="http://www.inkscape.org/namespaces/inkscape"
   xmlns:sodipodi="http://sodipodi.sourceforge.net/DTD/sodipodi-0.dtd"
   xmlns="http://www.w3.org/2000/svg"
   xmlns:svg="http://www.w3.org/2000/svg">
  <defs
     id="defs3">
    <inkscape:perspective
       sodipodi:type="inkscape:persp3d"
       inkscape:vp_x="-315.56005 : 105.18668 : 0"
       inkscape:vp_y="0 : 3287.0837 : 0"
       inkscape:vp_z="315.56004 : 105.18668 : 0"
       inkscape:persp3d-origin="138.92658 : 213.38506 : 1"
       id="perspective3" />
  </defs>
  <sodipodi:namedview
     id="namedview3"
     pagecolor="#ffffff"
     bordercolor="#000000"
     borderopacity="0.25"
     inkscape:showpageshadow="2"
     inkscape:pageopacity="0.0"
     inkscape:pagecheckerboard="0"
     inkscape:deskcolor="#d1d1d1"
     inkscape:zoom="4.3854167"
     inkscape:cx="83.800474"
     inkscape:cy="115.61045"
     inkscape:window-width="1920"
     inkscape:window-height="1048"
     inkscape:window-x="0"
     inkscape:window-y="0"
     inkscape:window-maximized="1"
     inkscape:current-layer="g20" />
  <g
     sodipodi:type="inkscape:box3d"
     id="g20"
     style="fill:#f9de81;stroke:#8e6f60;stroke-width:11.464;stroke-linecap:round;stroke-dasharray:232.998"
     inkscape:perspectiveID="#perspective3"
     inkscape:corner0="0.37626601 : -0.032118136 : 0 : 1"
     inkscape:corner7="0.12235608 : -0.062300213 : 0.25373664 : 1">
    <path
       sodipodi:type="inkscape:box3dside"
       id="path23"
       style="fill:#f9de81;fill-rule:evenodd;stroke:none;stroke-linejoin:round"
       inkscape:box3dsidetype="14"
       d="m 100.31589,71.319711 v 99.211009 l 80.06914,-26.68971 V 44.629997 Z"
       points="100.31589,170.53072 180.38503,143.84101 180.38503,44.629997 100.31589,71.319711 " />
    <path
       sodipodi:type="inkscape:box3dside"
       id="path22"
       style="fill:#ffffff;fill-rule:evenodd;stroke:none;stroke-linejoin:round"
       inkscape:box3dsidetype="3"
       d="M 20.192059,44.611769 100.31589,71.319711 V 170.53072 L 20.192059,143.82278 Z"
       points="100.31589,71.319711 100.31589,170.53072 20.192059,143.82278 20.192059,44.611769 " />
    <path
       sodipodi:type="inkscape:box3dside"
       id="path21"
       style="fill:#f8c18c;stroke:none;stroke-width:11.464;stroke-linecap:round;stroke-dasharray:232.998;fill-rule:evenodd;stroke-linejoin:round"
       inkscape:box3dsidetype="5"
       d="M 20.192059,44.611769 100.31589,71.319711 180.38503,44.629997 100.2612,17.922054 Z"
       points="100.31589,71.319711 180.38503,44.629997 100.2612,17.922054 20.192059,44.611769 " />
  </g>
  <ellipse
     cx="73.492142"
     cy="86.879585"
     rx="19.760368"
     ry="19.257488"
     style="fill:#ffffff;fill-rule:evenodd;stroke-width:0.445264"
     id="ellipse1"
     transform="matrix(0.9339835,0.35731614,0,1,0,0)" />
  <g
     transform="matrix(0.39577666,0.15141315,0,0.46786897,15.195945,-72.736001)"
     style="fill:#728dbe;stroke-width:0"
     id="g1">
    <path
       d="m 112.87,349.25 c 0.328,-5.895 3.219,-11.094 7.574,-14.781 4.278,-3.621 10.032,-5.828 16.309,-5.832 6.277,0.004 12.031,2.211 16.309,5.832 4.355,3.687 7.246,8.886 7.578,14.781 0.332,6.062 -2.102,11.699 -6.379,15.871 -4.356,4.246 -10.563,6.914 -17.504,6.914 -6.945,0 -13.156,-2.668 -17.516,-6.914 -4.273,-4.172 -6.707,-9.809 -6.371,-15.871 z"
       style="fill:#728dbe"
       id="path1-3" />
  </g>
  <path
     d="m 44.811122,107.58353 c 0.01546,1.08248 0.30922,3.29324 0.745165,5.10271 0.918368,3.82012 2.47674,7.62777 4.647214,11.28875 2.226245,3.75762 4.964223,7.14257 8.130444,10.00966 3.328486,3.01713 6.935586,5.28701 10.675269,6.70881 3.74128,1.42397 7.346411,1.89867 10.674897,1.41754 3.163437,-0.46379 5.901418,-1.7594 8.126081,-3.82174 2.167281,-2.0127 3.722673,-4.63424 4.642467,-7.753 0.465421,-1.57646 0.754348,-3.24428 0.873479,-4.98409 0.115959,-1.7139 0.06655,-3.49667 -0.143674,-5.33673 -0.412796,-3.58836 -1.417674,-7.19312 -2.961993,-10.71936 -1.418071,-3.23789 -3.239027,-6.29587 -5.406707,-9.1136 l 0.0036,-0.002 -21.87139,-28.222343 c -0.01819,-0.02566 -0.03673,-0.05101 -0.05537,-0.07638 -1.439438,-1.84996 -3.851315,-2.768934 -5.428082,-2.067298 -1.598542,0.709703 -1.777823,2.821386 -0.360159,4.743489 l -0.0044,0.002 9.123045,12.262766 -27.809632,-10.604567 -0.03863,-0.01478 c -2.297366,-0.87702 -4.505129,0.06418 -4.944039,2.147661 -0.446805,2.124897 1.114668,4.624625 3.503255,5.549196 l -0.0031,0.0099 14.094793,5.35956 -25.153583,13.198156 c -0.03091,0.0171 -0.06495,0.0317 -0.09586,0.0489 -2.370033,1.2408 -3.13839,4.51997 -1.644958,7.35206 1.518191,2.87993 4.741402,4.11492 7.139408,2.74078 l 13.727004,-8.02626 c 0,0 -0.199422,1.71655 -0.183989,2.80045 z m 35.272003,19.4945 c -2.827431,2.3286 -6.785196,2.74442 -11.072252,1.1132 -4.288634,-1.63126 -8.247979,-5.06154 -11.077389,-9.54541 -1.382047,-2.1878 -2.397608,-4.47913 -3.025308,-6.75309 -0.612269,-2.23018 -0.851903,-4.43849 -0.694239,-6.51447 0.153091,-2.03233 0.674054,-3.82519 1.516659,-5.30646 0.827177,-1.456306 1.963448,-2.622646 3.36569,-3.442076 2.748655,-1.598448 6.247327,-1.693031 9.911429,-0.296865 3.664101,1.396855 7.161185,4.156381 9.911428,7.847311 1.400663,1.88472 2.536934,3.91485 3.362532,6.0002 0.842607,2.1241 1.365028,4.31242 1.519775,6.46252 0.155936,2.19595 -0.0819,4.22159 -0.695784,5.98409 -0.626112,1.7966 -1.640476,3.31464 -3.022541,4.45105 z"
     style="fill:#f9de81;stroke-width:0"
     id="path2-6" />
</svg>
