<?xml version="1.0" encoding="UTF-8"?>
<svg width="192" height="192" version="1.1" viewBox="0 0 192 192" xmlns="http://www.w3.org/2000/svg">
 <path d="m33 18.996c0-5.5205 4.4729-9.9958 10.001-9.9958h80.821l35.178 35v129c0 5.5209-4.4844 9.9965-9.9923 9.9965h-106.02c-5.5186 0-9.9923-4.476-9.9923-9.9958z" fill="#ececec" fill-rule="evenodd"/>
 <path d="m120 13.998c0-5.5218 3.1644-6.8337 7.0694-2.9287l29.861 29.861c3.9043 3.9043 2.5878 7.0694-2.9287 7.0694h-24.004c-5.5218 0-9.998-4.4815-9.998-9.998z" fill="#56595b" fill-rule="evenodd"/>
 <path class="st0" transform="matrix(.14812 0 0 .14812 58.081 69.368)" d="m497.57 215.17-55.345-13.064c-4.032-13.946-9.495-27.27-16.376-39.732l29.85-48.303c4.57-7.397 3.452-16.946-2.688-23.086l-31.99-31.99c-6.129-6.129-15.678-7.248-23.076-2.678l-48.292 29.851c-12.462-6.882-25.785-12.344-39.732-16.377l-13.064-55.368c-2-8.441-9.55-14.419-18.226-14.419h-45.237c-8.678 0-16.227 5.978-18.227 14.419l-13.064 55.368c-13.946 4.032-27.27 9.484-39.732 16.377l-48.303-29.872c-7.387-4.549-16.946-3.441-23.086 2.699l-31.991 31.979c-6.13 6.14-7.248 15.709-2.689 23.087l29.862 48.313c-6.882 12.462-12.344 25.786-16.367 39.721l-55.378 13.065c-8.44 2.009-14.418 9.548-14.418 18.236v45.226c0 8.678 5.978 16.237 14.419 18.226l55.378 13.065c4.032 13.946 9.485 27.259 16.367 39.71l-29.872 48.324c-4.549 7.398-3.441 16.957 2.699 23.098l31.979 31.979c6.14 6.14 15.709 7.257 23.087 2.688l48.323-29.872c12.463 6.882 25.786 12.344 39.722 16.366l13.064 55.366c2 8.463 9.549 14.431 18.227 14.431h45.237c8.677 0 16.226-5.968 18.226-14.431l13.064-55.366c13.937-4.021 27.259-9.484 39.712-16.366l48.312 29.861c7.398 4.57 16.947 3.452 23.087-2.688l31.989-31.99c6.13-6.129 7.248-15.688 2.678-23.087l-29.861-48.302c6.893-12.452 12.345-25.774 16.377-39.721l55.366-13.065c8.463-2.001 14.42-9.539 14.42-18.226v-45.238c0-8.666-5.968-16.215-14.431-18.214zm-241.56 87.937c-26.002 0-47.098-21.097-47.098-47.108s21.097-47.108 47.098-47.108c26.011 0 47.108 21.097 47.108 47.108s-21.097 47.108-47.108 47.108z" fill="#56595b"/>
</svg>
