<?xml version="1.0" encoding="UTF-8"?>
<svg width="192" height="192" version="1.1" viewBox="0 0 192 192" xmlns="http://www.w3.org/2000/svg">
 <path d="m33 18.996c0-5.5205 4.4729-9.9958 10.001-9.9958h80.821l35.178 35v129c0 5.5209-4.4844 9.9965-9.9923 9.9965h-106.02c-5.5186 0-9.9923-4.476-9.9923-9.9958z" fill="#bd9aff" fill-rule="evenodd"/>
 <path id="bg" d="m54.536 65.823h69.659a13.268 13.268 0 0 1 13.268 13.268v56.391a13.268 13.268 0 0 1-13.268 13.268h-56.391a13.268 13.268 0 0 1-13.268-13.268z" display="none" fill="#8c72bd" stroke-width=".082927"/>
 <path id="fg" d="m84.233 142.12c-5.3264-5e-3 -8.6128-3.0044-8.5498-8.5241v-13.964c0-2.798 0.81932-4.9259 2.458-6.3821 2.9431-2.8353 9.7713-3.0078 12.654 0.0431 1.7763 1.5665 2.4464 4.7666 2.2871 7.7529h-6.1134c0.04644-1.1734-0.01576-2.9506-0.70571-3.6198-0.89644-1.2132-3.264-1.0706-3.8901 0.19239-0.38478 0.68498-0.57717 1.6992-0.57717 3.0409v12.122c0 2.5417 0.88318 3.8271 2.6504 3.8553 0.82596 0 1.4537-0.30019 1.8808-0.89975 0.59625-0.71152 0.68913-2.2871 0.64103-3.4266h6.1134c0.41795 5.8107-3.0119 9.8816-8.8492 9.8095zm19.408 0c-5.9019 0.0813-8.5423-4.1182-8.379-9.8095h5.7709c-0.16005 2.4812 0.69245 4.741 2.7358 4.5834 0.91137 0 1.5532-0.28527 1.9239-0.85664 0.70489-1.0441 0.83674-4.0593-0.17083-5.2261-0.70405-1.1237-3.2366-2.1155-4.5743-2.7839-1.9098-0.91386-3.2847-1.9986-4.1256-3.2557-1.8965-2.7897-1.7207-8.913 0.94039-11.394 2.5857-3.0617 9.3384-3.2026 11.927-0.0639 1.5964 1.6179 2.2938 4.8015 2.1586 7.7313h-5.5578c0.0473-1.2041-0.0663-3.1471-0.53405-3.8553-0.32756-0.59957-0.94786-0.89976-1.8592-0.89976-1.6245 0-2.4364 0.97108-2.4364 2.9124 0.0174 2.0616 0.82098 2.9074 2.6935 3.769 2.4248 0.94205 5.508 2.5508 6.6259 4.498 3.3337 5.9326 1.0465 14.995-7.1392 14.649zm18.639 0c-5.9019 0.0813-8.5423-4.1182-8.379-9.8095h5.7709c-0.16005 2.4812 0.69244 4.741 2.7358 4.5834 0.91138 0 1.5532-0.28527 1.9239-0.85664 0.70488-1.0441 0.83673-4.0593-0.17083-5.2261-0.70405-1.1237-3.2366-2.1155-4.5743-2.7839-1.9098-0.91386-3.2848-1.9986-4.1256-3.2557-1.8965-2.7897-1.7207-8.913 0.9404-11.394 2.5857-3.0617 9.3384-3.2026 11.927-0.0639 1.5964 1.6179 2.2938 4.8015 2.1586 7.7313h-5.5578c0.0472-1.2041-0.0663-3.1471-0.53405-3.8553-0.32756-0.59957-0.94786-0.89977-1.8592-0.89977-1.6246 0-2.4364 0.97108-2.4364 2.9124 0.0174 2.0616 0.82098 2.9074 2.6935 3.769 2.4248 0.94204 5.508 2.5508 6.6259 4.498 3.3337 5.9326 1.0465 14.995-7.1392 14.649z" display="none" fill="#fff" stroke-width=".082927"/>
 <path d="m120 13.998c0-5.5218 3.1644-6.8337 7.0694-2.9287l29.861 29.861c3.9043 3.9043 2.5878 7.0694-2.9287 7.0694h-24.004c-5.5218 0-9.998-4.4815-9.998-9.998z" fill="#8c72bd" fill-rule="evenodd"/>
 <path d="m69.582 176.99c-7.3845-7e-3 -11.941-4.1653-11.853-11.818v-19.36c0-3.8791 1.1359-6.8292 3.4077-8.8481 4.0803-3.9308 13.547-4.17 17.543 0.0598 2.4626 2.1718 3.3917 6.6084 3.1708 10.749h-8.4755c0.06438-1.6268-0.02185-4.0907-0.97839-5.0184-1.2428-1.682-4.5252-1.4843-5.3932 0.26672-0.53346 0.94965-0.80018 2.3558-0.80018 4.2159v16.806c0 3.5238 1.2244 5.3058 3.6745 5.3449 1.1451 0 2.0154-0.41618 2.6075-1.2474 0.82663-0.98644 0.9554-3.1708 0.88872-4.7506h8.4755c0.57944 8.0559-4.1757 13.7-12.268 13.6zm26.907 0c-8.1823 0.11271-11.843-5.7094-11.617-13.6h8.0007c-0.22189 3.4399 0.96 6.5729 3.7929 6.3544 1.2635 0 2.1533-0.3955 2.6673-1.1876 0.97724-1.4475 1.16-5.6278-0.23684-7.2454-0.97608-1.5579-4.4872-2.9329-6.3418-3.8596-2.6477-1.267-4.5539-2.7708-5.7197-4.5137-2.6293-3.8676-2.3856-12.357 1.3037-15.796 3.5848-4.2447 12.947-4.44 16.535-0.0886 2.2132 2.243 3.1801 6.6567 2.9927 10.719h-7.7053c0.0656-1.6694-0.0919-4.3631-0.7404-5.3449-0.45413-0.83124-1.3141-1.2474-2.5776-1.2474-2.2522 0-3.3778 1.3463-3.3778 4.0377 0.0241 2.8582 1.1382 4.0308 3.7342 5.2253 3.3617 1.306 7.6362 3.5364 9.1861 6.236 4.6218 8.2249 1.4509 20.789-9.8977 20.309zm25.841 0c-8.1823 0.11271-11.843-5.7094-11.617-13.6h8.0007c-0.22189 3.4399 0.95999 6.5729 3.7929 6.3544 1.2635 0 2.1533-0.3955 2.6673-1.1876 0.97724-1.4475 1.16-5.6278-0.23684-7.2454-0.97608-1.5579-4.4872-2.9329-6.3418-3.8596-2.6477-1.267-4.554-2.7708-5.7197-4.5137-2.6293-3.8676-2.3856-12.357 1.3038-15.796 3.5848-4.2447 12.947-4.44 16.535-0.0886 2.2132 2.243 3.1801 6.6567 2.9926 10.719h-7.7053c0.0654-1.6694-0.0919-4.3631-0.7404-5.3449-0.45413-0.83124-1.3141-1.2474-2.5776-1.2474-2.2523 0-3.3778 1.3463-3.3778 4.0377 0.0241 2.8582 1.1382 4.0308 3.7342 5.2253 3.3617 1.306 7.6362 3.5364 9.1861 6.236 4.6218 8.2249 1.4509 20.789-9.8977 20.309z" fill="#fff" stroke-width=".082927"/>
</svg>
