<?xml version="1.0" encoding="UTF-8"?>
<svg width="192" height="192" version="1.1" viewBox="0 0 192 192" xmlns="http://www.w3.org/2000/svg">
 <path d="m33 18.996c0-5.5205 4.4729-9.9958 10.001-9.9958h80.821l35.178 35v129c0 5.5209-4.4844 9.9965-9.9923 9.9965h-106.02c-5.5186 0-9.9923-4.476-9.9923-9.9958z" fill="#ccc" fill-rule="evenodd"/>
 <path d="m120 13.998c0-5.5218 3.1644-6.8337 7.0694-2.9287l29.861 29.861c3.9043 3.9043 2.5878 7.0694-2.9287 7.0694h-24.004c-5.5218 0-9.998-4.4815-9.998-9.998z" fill="#83868c" fill-rule="evenodd"/>
 <g transform="matrix(2.361 0 0 1.873 39.163 57.327)">
  <g transform="translate(.01853 20.002)">
   <path d="m23.941 8.037c-7.6251 0-13.825 2.1304-13.825 5.4752v6.5578c0 3.3447 6.2001 5.6479 13.825 5.6479s14.072-2.3032 14.072-5.6479v-6.5578c0-3.3447-6.447-5.4752-14.072-5.4752z" color="#000000" display="block" fill="#83868c"/>
   <ellipse transform="matrix(1.0373 0 0 .95462 -.89498 -.075721)" cx="24" cy="14.071" rx="12.857" ry="5.5" color="#000000" display="block" fill="#ccc" stroke="#83868c" stroke-miterlimit="10" stroke-width="1.0049"/>
  </g>
  <g transform="translate(-.0012642 9.9604)">
   <path d="m23.941 8.0359c-7.6251 0-13.825 2.1315-13.825 5.4763v6.5578c0 3.3447 6.2001 5.6479 13.825 5.6479s14.072-2.3032 14.072-5.6479v-6.5578c0-3.3447-6.447-5.4763-14.072-5.4763z" color="#000000" display="block" fill="#83868c"/>
   <ellipse transform="matrix(1.0373 0 0 .95462 -.89498 -.075721)" cx="24" cy="14.071" rx="12.857" ry="5.5" color="#000000" display="block" fill="#ccc" stroke="#83868c" stroke-miterlimit="10" stroke-width="1.0049"/>
  </g>
  <path d="m23.941 8.0373c-7.6251 0-13.825 2.1301-13.825 5.4749v6.5578c0 3.3447 6.2001 5.6479 13.825 5.6479s14.072-2.3032 14.072-5.6479v-6.5578c0-3.3447-6.447-5.4749-14.072-5.4749z" color="#000000" display="block" fill="#83868c"/>
  <ellipse transform="matrix(1.0373 0 0 .95462 -.89498 -.075721)" cx="24" cy="14.071" rx="12.857" ry="5.5" color="#000000" display="block" fill="#ccc" stroke="#83868c" stroke-miterlimit="10" stroke-width="1.0049"/>
 </g>
</svg>
