<?xml version="1.0" encoding="UTF-8" standalone="no"?>
<svg
   width="192"
   height="192"
   version="1.1"
   viewBox="0 0 192 192"
   id="svg1"
   sodipodi:docname="application-x-deb.svg"
   inkscape:version="1.4.4 (dcaf3e7d9e, 2026-05-05)"
   xmlns:inkscape="http://www.inkscape.org/namespaces/inkscape"
   xmlns:sodipodi="http://sodipodi.sourceforge.net/DTD/sodipodi-0.dtd"
   xmlns="http://www.w3.org/2000/svg"
   xmlns:svg="http://www.w3.org/2000/svg">
  <defs
     id="defs1">
    <inkscape:path-effect
       effect="mirror_symmetry"
       start_point="101.47268,71.372924"
       end_point="101.47268,120.54884"
       center_point="101.47268,95.960882"
       id="path-effect8"
       is_visible="true"
       lpeversion="1.2"
       lpesatellites=""
       mode="free"
       discard_orig_path="false"
       fuse_paths="false"
       oposite_fuse="false"
       split_items="false"
       split_open="false"
       link_styles="false" />
    <inkscape:path-effect
       effect="mirror_symmetry"
       start_point="101.47268,71.372925"
       end_point="101.47268,120.54884"
       center_point="101.47268,95.960882"
       id="path-effect7"
       is_visible="true"
       lpeversion="1.2"
       lpesatellites=""
       mode="free"
       discard_orig_path="false"
       fuse_paths="false"
       oposite_fuse="false"
       split_items="false"
       split_open="false"
       link_styles="false" />
  </defs>
  <sodipodi:namedview
     id="namedview1"
     pagecolor="#ffffff"
     bordercolor="#000000"
     borderopacity="0.25"
     inkscape:showpageshadow="2"
     inkscape:pageopacity="0.0"
     inkscape:pagecheckerboard="0"
     inkscape:deskcolor="#d1d1d1"
     inkscape:zoom="4"
     inkscape:cx="77.875"
     inkscape:cy="107.5"
     inkscape:window-width="1920"
     inkscape:window-height="1048"
     inkscape:window-x="0"
     inkscape:window-y="0"
     inkscape:window-maximized="1"
     inkscape:current-layer="svg1" />
  <rect
     x="20"
     y="20"
     width="152"
     height="152"
     rx="10"
     style="fill-rule:evenodd;fill:#ff837d"
     id="rect1" />
  <g
     id="g1"
     inkscape:label="gray zip">
    <rect
       style="fill:#d8d8d8;stroke:none;stroke-width:19.7495;stroke-linecap:round;stroke-dasharray:401.398"
       id="rect2"
       width="10"
       height="10"
       x="119.75"
       y="20"
       rx="0" />
    <rect
       style="fill:#d8d8d8;stroke:none;stroke-width:19.7495;stroke-linecap:round;stroke-dasharray:401.398"
       id="rect3"
       width="10"
       height="10"
       x="129.75"
       y="29.999523"
       rx="0" />
    <rect
       style="fill:#d8d8d8;stroke:none;stroke-width:19.7495;stroke-linecap:round;stroke-dasharray:401.398"
       id="rect4"
       width="10"
       height="10"
       x="119.75"
       y="39.999523"
       rx="0" />
    <rect
       style="fill:#d8d8d8;stroke:none;stroke-width:19.7495;stroke-linecap:round;stroke-dasharray:401.398"
       id="rect5"
       width="10"
       height="10"
       x="129.75"
       y="49.999523"
       rx="0" />
    <rect
       style="fill:#d8d8d8;stroke:none;stroke-width:19.7495;stroke-linecap:round;stroke-dasharray:401.398"
       id="rect6"
       width="10"
       height="10"
       x="119.75"
       y="59.999523"
       rx="0" />
    <path
       id="rect7"
       style="fill:#d8d8d8;stroke-width:12.1506;stroke-linecap:round;stroke-dasharray:246.954"
       d="M 89.855998,71.372925 H 101.47268 V 120.54884 H 82.351703 c -3.545266,0 -3.356099,-2.32125 -3.220604,-3.28494 l 6.219673,-41.291902 c 0.467245,-3.032995 0.3037,-4.599073 4.505226,-4.599073 z m 23.233362,0 h -11.61668 v 49.175915 h 19.12098 c 3.54526,0 3.3561,-2.32125 3.2206,-3.28494 l -6.21967,-41.291902 c -0.46725,-3.032995 -0.3037,-4.599073 -4.50523,-4.599073 z"
       inkscape:path-effect="#path-effect8"
       inkscape:original-d="M 89.855998,71.372925 H 101.47268 V 120.54884 H 82.351703 c -3.545266,0 -3.356099,-2.32125 -3.220604,-3.28494 l 6.219673,-41.291902 c 0.467245,-3.032995 0.3037,-4.599073 4.505226,-4.599073 z"
       sodipodi:nodetypes="ccccccc"
       transform="translate(28.27732)" />
  </g>
  <rect
     style="fill:#ff837d;stroke:none;stroke-width:13.0314;stroke-linecap:round;stroke-dasharray:264.854"
     id="rect8"
     width="29.610096"
     height="10.16466"
     x="114.94495"
     y="106.68473"
     rx="1.4705244"
     ry="5.0823302" />
  <path
     d="M 64.680223,165.50379 C 52.773984,160.97969 45.657752,155.49461 37.927268,143.28324 A 38.505155,40.236495 0 0 1 32.668717,122.52465 C 32.362211,112.66563 37.074773,101.35501 45.96333,95.379732 A 29.893983,31.238132 0 0 1 72.103001,91.376116 23.553803,24.612874 0 0 1 86.9875,108.95169 c 1.84867,7.00642 -0.07664,18.73679 -9.358158,23.51135 A 17.969331,18.777301 0 0 1 63.4056,133.59411 15.009483,15.684367 0 0 1 54.785034,123.49495 c -2.241348,-9.29844 4.49228,-14.4634 7.509484,-14.95341 12.059324,-4.28393 18.19895,15.59427 4.090016,17.29614 6.417592,2.26204 13.064993,-4.68425 11.829705,-11.80074 -0.22988,-7.00642 -8.419437,-14.01285 -17.47134,-11.14974 a 16.522832,17.265762 0 0 0 -8.73557,6.30574 17.557568,18.347023 0 0 0 -2.557483,15.75423 20.028145,20.928688 0 0 0 11.982781,14.13334 23.544114,24.602749 0 0 0 18.850017,-1.3212 c 12.135863,-6.29573 14.607409,-21.64953 12.212403,-30.13764 A 29.61689,30.948581 0 0 0 73.960874,85.841543 35.909595,37.524231 0 0 0 42.726001,90.445703 C 32.285632,97.452143 26.55777,111.29442 27.026695,122.47454 a 44.137102,46.121677 0 0 0 6.024816,23.75131 c 8.89834,14.13334 19.022476,18.58696 31.608852,19.3078 z"
     style="fill:#ffffff;fill-rule:evenodd;stroke-width:0.979145"
     id="path1-5"
     inkscape:label="debian" />
</svg>
