<?xml version="1.0" encoding="UTF-8" standalone="no"?>
<svg
   width="192"
   height="192"
   version="1.1"
   viewBox="0 0 192 192"
   xml:space="preserve"
   id="svg4"
   sodipodi:docname="go.svg"
   inkscape:version="1.4.4 (dcaf3e7d9e, 2026-05-05)"
   xmlns:inkscape="http://www.inkscape.org/namespaces/inkscape"
   xmlns:sodipodi="http://sodipodi.sourceforge.net/DTD/sodipodi-0.dtd"
   xmlns="http://www.w3.org/2000/svg"
   xmlns:svg="http://www.w3.org/2000/svg"><defs
     id="defs4" /><sodipodi:namedview
     id="namedview4"
     pagecolor="#ffffff"
     bordercolor="#000000"
     borderopacity="0.25"
     inkscape:showpageshadow="2"
     inkscape:pageopacity="0.0"
     inkscape:pagecheckerboard="0"
     inkscape:deskcolor="#d1d1d1"
     inkscape:zoom="0.38761973"
     inkscape:cx="-3.869772"
     inkscape:cy="-185.74906"
     inkscape:window-width="1920"
     inkscape:window-height="1048"
     inkscape:window-x="0"
     inkscape:window-y="0"
     inkscape:window-maximized="1"
     inkscape:current-layer="svg4" /><path
     d="m33 18.996c0-5.5205 4.4729-9.9958 10.001-9.9958h80.821l35.178 35v129c0 5.5209-4.4844 9.9965-9.9923 9.9965h-106.02c-5.5186 0-9.9923-4.476-9.9923-9.9958z"
     fill="#73ada4"
     fill-rule="evenodd"
     id="path1"
     style="fill:#ececec" /><path
     d="m120 13.998c0-5.5218 3.1644-6.8337 7.0694-2.9287l29.861 29.861c3.9043 3.9043 2.5878 7.0694-2.9287 7.0694h-24.004c-5.5218 0-9.998-4.4815-9.998-9.998z"
     fill="#96dfd3"
     fill-rule="evenodd"
     id="path2"
     style="fill:#728dbe" /><g
     transform="matrix(.68158 0 0 .68158 30.393 39.81)"
     fill="#96dfd3"
     id="g4"
     style="fill:#9abeff"><path
       class="st4"
       transform="translate(-58.394 -17.233)"
       d="m153.1 99.3c-6.3 1.6-10.6 2.8-16.8 4.4-1.5 0.4-1.6 0.5-2.9-1-1.5-1.7-2.6-2.8-4.7-3.8-6.3-3.1-12.4-2.2-18.1 1.5-6.8 4.4-10.3 10.9-10.2 19 0.1 8 5.6 14.6 13.5 15.7 6.8 0.9 12.5-1.5 17-6.6 0.9-1.1 1.7-2.3 2.7-3.7h-19.3c-2.1 0-2.6-1.3-1.9-3 1.3-3.1 3.7-8.3 5.1-10.9 0.3-0.6 1-1.6 2.5-1.6h36.4c-0.2 2.7-0.2 5.4-0.6 8.1-1.1 7.2-3.8 13.8-8.2 19.6-7.2 9.5-16.6 15.4-28.5 17-9.8 1.3-18.9-0.6-26.9-6.6-7.4-5.6-11.6-13-12.7-22.2-1.3-10.9 1.9-20.7 8.5-29.3 7.1-9.3 16.5-15.2 28-17.3 9.4-1.7 18.4-0.6 26.5 4.9 5.3 3.5 9.1 8.3 11.6 14.1 0.6 0.9 0.2 1.4-1 1.7z"
       id="path3"
       style="fill:#9abeff" /><path
       class="st4"
       transform="translate(-58.394 -17.233)"
       d="m186.2 154.6c-9.1-0.2-17.4-2.8-24.4-8.8-5.9-5.1-9.6-11.6-10.8-19.3-1.8-11.3 1.3-21.3 8.1-30.2 7.3-9.6 16.1-14.6 28-16.7 10.2-1.8 19.8-0.8 28.5 5.1 7.9 5.4 12.8 12.7 14.1 22.3 1.7 13.5-2.2 24.5-11.5 33.9-6.6 6.7-14.7 10.9-24 12.8-2.7 0.5-5.4 0.6-8 0.9zm23.8-40.4c-0.1-1.3-0.1-2.3-0.3-3.3-1.8-9.9-10.9-15.5-20.4-13.3-9.3 2.1-15.3 8-17.5 17.4-1.8 7.8 2 15.7 9.2 18.9 5.5 2.4 11 2.1 16.3-0.6 7.9-4.1 12.2-10.5 12.7-19.1z"
       id="path4"
       style="fill:#9abeff" /></g><style
     type="text/css"
     id="style4">
	.st0{fill:#2DBCAF;}
	.st1{fill:#5DC9E1;}
	.st2{fill:#FDDD00;}
	.st3{fill:#CE3262;}
	.st4{fill:#00ACD7;}
	.st5{fill:#FFFFFF;}
</style></svg>
