<?xml version="1.0" encoding="UTF-8"?>
<svg width="192" height="192" version="1.1" viewBox="0 0 192 192" xmlns="http://www.w3.org/2000/svg">
 <path d="m33 18.996c0-5.5205 4.4729-9.9958 10.001-9.9958h80.821l35.178 35v129c0 5.5209-4.4844 9.9965-9.9923 9.9965h-106.02c-5.5186 0-9.9923-4.476-9.9923-9.9958z" fill="#f9de81" fill-rule="evenodd"/>
 <path d="m120 13.998c0-5.5218 3.1644-6.8337 7.0694-2.9287l29.861 29.861c3.9043 3.9043 2.5878 7.0694-2.9287 7.0694h-24.004c-5.5218 0-9.998-4.4815-9.998-9.998z" fill="#c39a54" fill-rule="evenodd"/>
 <path d="m65.634 167.45 7.0502-4.2667c1.3601 2.4115 2.5975 4.4519 5.5652 4.4519 2.8447 0 4.6383-1.1128 4.6383-5.4413v-29.436h8.6575v29.559c0 8.967-5.2561 13.048-12.925 13.048-6.9258 0-10.946-3.5869-12.987-7.9155" fill="#56595b" stroke-width=".14623"/>
 <path d="m96.251 166.53 7.0493-4.0815c1.8557 3.0305 4.2674 5.2568 8.5343 5.2568 3.5872 0 5.8747-1.7936 5.8747-4.2672 0-2.9683-2.3497-4.0197-6.3078-5.7508l-2.1639-0.92819c-6.2463-2.6587-10.39-5.998-10.39-13.048 0-6.4933 4.9472-11.441 12.677-11.441 5.5038 0 9.4616 1.9172 12.306 6.9265l-6.7408 4.3286c-1.4843-2.6589-3.0918-3.7101-5.5652-3.7101-2.5355 0-4.1435 1.6078-4.1435 3.7101 0 2.5975 1.608 3.6489 5.318 5.2569l2.1643 0.92749c7.3591 3.154 11.503 6.3695 11.503 13.605 0 7.7923-6.1222 12.059-14.347 12.059-8.0393 0-13.233-3.8339-15.769-8.8433" fill="#56595b" stroke-width=".14623"/>
</svg>
