<?xml version="1.0" encoding="UTF-8"?>
<svg width="192" height="192" version="1.1" viewBox="0 0 192 192" xmlns="http://www.w3.org/2000/svg" xmlns:xlink="http://www.w3.org/1999/xlink">
 <defs>
  <linearGradient id="linearGradient3005" x1="-666.12" x2="-553.27" y1="413.04" y2="525.91" gradientTransform="matrix(.99884 0 0 .9987 689.01 -388.84)" gradientUnits="userSpaceOnUse">
   <stop stop-color="#56595b" offset="0"/>
   <stop stop-color="#fff" offset="1"/>
  </linearGradient>
  <linearGradient id="linearGradient3002" x1="-553.27" x2="-666.12" y1="525.91" y2="413.05" gradientTransform="matrix(.99884 0 0 .9987 689.01 -388.84)" gradientUnits="userSpaceOnUse">
   <stop stop-color="#56595b" offset="0"/>
   <stop stop-color="#fff" offset="1"/>
  </linearGradient>
 </defs>
 <g fill-rule="evenodd">
  <path d="m33 18.996c0-5.5205 4.4729-9.9958 10.001-9.9958h80.821l35.178 35v129c0 5.5209-4.4844 9.9965-9.9923 9.9965h-106.02c-5.5186 0-9.9923-4.476-9.9923-9.9958z" fill="#fff"/>
  <path d="m120 13.998c0-5.5218 3.1644-6.8337 7.0694-2.9287l29.861 29.861c3.9043 3.9043 2.5878 7.0694-2.9287 7.0694h-24.004c-5.5218 0-9.998-4.4815-9.998-9.998z" fill="#83868c"/>
  <g transform="matrix(.51113 0 0 .51113 55.814 59.11)">
   <path d="m79.865 119.1c35.398 48.255 70.04-13.469 69.989-50.587-0.0602-43.886-44.541-68.414-70.018-68.414-40.892 0-79.836 33.796-79.836 80.036 0 51.396 44.64 79.865 79.836 79.865-7.9645-1.1468-34.506-6.834-34.863-67.967-0.23987-41.347 13.488-57.866 34.805-50.599 0.47743 0.17707 23.514 9.2645 23.514 38.951 0 29.56-23.427 38.715-23.427 38.715z" color="#000000" fill="url(#linearGradient3005)"/>
   <path d="m79.823 41.401c-23.39-8.0619-52.043 11.216-52.043 49.829 0 63.048 46.721 68.77 52.384 68.77 40.892 0 79.836-33.796 79.836-80.036 0-51.396-44.64-79.865-79.836-79.865 9.7481-1.35 52.541 10.55 52.541 69.037 0 38.141-31.953 58.905-52.735 50.033-0.47743-0.17707-23.514-9.2645-23.514-38.951 0-29.56 23.367-38.818 23.367-38.818z" color="#000000" fill="url(#linearGradient3002)"/>
  </g>
 </g>
</svg>
