<?xml version="1.0" encoding="UTF-8" standalone="no"?>
<svg
   width="192"
   height="192"
   version="1.1"
   viewBox="0 0 192 192"
   id="svg2"
   sodipodi:docname="link-file.svg"
   inkscape:version="1.4.4 (dcaf3e7d9e, 2026-05-05)"
   xmlns:inkscape="http://www.inkscape.org/namespaces/inkscape"
   xmlns:sodipodi="http://sodipodi.sourceforge.net/DTD/sodipodi-0.dtd"
   xmlns="http://www.w3.org/2000/svg"
   xmlns:svg="http://www.w3.org/2000/svg">
  <defs
     id="defs2" />
  <sodipodi:namedview
     id="namedview2"
     pagecolor="#ffffff"
     bordercolor="#000000"
     borderopacity="0.25"
     inkscape:showpageshadow="2"
     inkscape:pageopacity="0.0"
     inkscape:pagecheckerboard="true"
     inkscape:deskcolor="#d1d1d1"
     inkscape:zoom="3.1009579"
     inkscape:cx="51.274479"
     inkscape:cy="87.876072"
     inkscape:window-width="1920"
     inkscape:window-height="1048"
     inkscape:window-x="0"
     inkscape:window-y="0"
     inkscape:window-maximized="1"
     inkscape:current-layer="svg2" />
  <path
     d="m33 18.996c0-5.5205 4.4729-9.9958 10.001-9.9958h80.821l35.178 35v129c0 5.5209-4.4844 9.9965-9.9923 9.9965h-106.02c-5.5186 0-9.9923-4.476-9.9923-9.9958z"
     style="fill-rule:evenodd;fill:#ececec"
     id="path1" />
  <path
     d="m120 13.998c0-5.5218 3.1644-6.8337 7.0694-2.9287l29.861 29.861c3.9043 3.9043 2.5878 7.0694-2.9287 7.0694h-24.004c-5.5218 0-9.998-4.4815-9.998-9.998z"
     style="fill-rule:evenodd;fill:#a0a5af"
     id="path2" />
  <rect
     style="fill:none;stroke:#a0a5af;stroke-width:6.99152;stroke-linecap:round;stroke-linejoin:round;stroke-dasharray:160.805, 55.9321;stroke-dashoffset:0"
     id="rect1"
     width="62.566013"
     height="62.566013"
     x="-122.43658"
     y="-145.79553"
     transform="scale(-1)" />
  <path
     id="path3"
     style="baseline-shift:baseline;display:inline;overflow:visible;opacity:1;vector-effect:none;fill:#a0a5af;stroke-width:1.3429;stroke-linecap:round;stroke-linejoin:round;stroke-dashoffset:163.5;enable-background:accumulate;stop-color:#000000;stop-opacity:1"
     d="m 100.73758,69.160013 c -1.854133,0 -3.357232,1.503083 -3.357232,3.357229 0,1.854147 1.503099,3.357228 3.357232,3.357228 h 26.648 l -37.124435,37.36347 v 0.003 c -3.10759,3.10615 1.644168,7.85089 4.747332,4.74732 L 132.13553,80.621759 v 26.650631 c 0,1.85414 1.5031,3.35723 3.35723,3.35723 1.85415,0 3.35723,-1.50309 3.35723,-3.35723 V 72.517242 c 0,-2.05977 -1.63164,-3.357229 -3.4569,-3.357229 z"
     sodipodi:nodetypes="ssscccccsssccs" />
</svg>
