<?xml version="1.0" encoding="UTF-8" standalone="no"?>
<svg
   width="192"
   height="192"
   version="1.1"
   viewBox="0 0 192 192"
   id="svg1"
   sodipodi:docname="application-x-rar.svg"
   inkscape:version="1.4.4 (dcaf3e7d9e, 2026-05-05)"
   xmlns:inkscape="http://www.inkscape.org/namespaces/inkscape"
   xmlns:sodipodi="http://sodipodi.sourceforge.net/DTD/sodipodi-0.dtd"
   xmlns="http://www.w3.org/2000/svg"
   xmlns:svg="http://www.w3.org/2000/svg">
  <defs
     id="defs1">
    <inkscape:path-effect
       effect="mirror_symmetry"
       start_point="101.47268,71.372924"
       end_point="101.47268,120.54884"
       center_point="101.47268,95.960882"
       id="path-effect8"
       is_visible="true"
       lpeversion="1.2"
       lpesatellites=""
       mode="free"
       discard_orig_path="false"
       fuse_paths="false"
       oposite_fuse="false"
       split_items="false"
       split_open="false"
       link_styles="false" />
    <inkscape:path-effect
       effect="mirror_symmetry"
       start_point="101.47268,71.372925"
       end_point="101.47268,120.54884"
       center_point="101.47268,95.960882"
       id="path-effect7"
       is_visible="true"
       lpeversion="1.2"
       lpesatellites=""
       mode="free"
       discard_orig_path="false"
       fuse_paths="false"
       oposite_fuse="false"
       split_items="false"
       split_open="false"
       link_styles="false" />
  </defs>
  <sodipodi:namedview
     id="namedview1"
     pagecolor="#ffffff"
     bordercolor="#000000"
     borderopacity="0.25"
     inkscape:showpageshadow="2"
     inkscape:pageopacity="0.0"
     inkscape:pagecheckerboard="0"
     inkscape:deskcolor="#d1d1d1"
     inkscape:zoom="2.8284271"
     inkscape:cx="66.998368"
     inkscape:cy="111.36932"
     inkscape:window-width="1920"
     inkscape:window-height="1048"
     inkscape:window-x="0"
     inkscape:window-y="0"
     inkscape:window-maximized="1"
     inkscape:current-layer="svg1" />
  <rect
     x="20"
     y="20"
     width="152"
     height="152"
     rx="10"
     style="fill-rule:evenodd;fill:#71a372"
     id="rect1" />
  <g
     id="g1"
     inkscape:label="gray zip">
    <rect
       style="fill:#d8d8d8;stroke:none;stroke-width:19.7495;stroke-linecap:round;stroke-dasharray:401.398"
       id="rect2"
       width="10"
       height="10"
       x="119.75"
       y="20"
       rx="0" />
    <rect
       style="fill:#d8d8d8;stroke:none;stroke-width:19.7495;stroke-linecap:round;stroke-dasharray:401.398"
       id="rect3"
       width="10"
       height="10"
       x="129.75"
       y="29.999523"
       rx="0" />
    <rect
       style="fill:#d8d8d8;stroke:none;stroke-width:19.7495;stroke-linecap:round;stroke-dasharray:401.398"
       id="rect4"
       width="10"
       height="10"
       x="119.75"
       y="39.999523"
       rx="0" />
    <rect
       style="fill:#d8d8d8;stroke:none;stroke-width:19.7495;stroke-linecap:round;stroke-dasharray:401.398"
       id="rect5"
       width="10"
       height="10"
       x="129.75"
       y="49.999523"
       rx="0" />
    <rect
       style="fill:#d8d8d8;stroke:none;stroke-width:19.7495;stroke-linecap:round;stroke-dasharray:401.398"
       id="rect6"
       width="10"
       height="10"
       x="119.75"
       y="59.999523"
       rx="0" />
    <path
       id="rect7"
       style="fill:#d8d8d8;stroke-width:12.1506;stroke-linecap:round;stroke-dasharray:246.954"
       d="M 89.855998,71.372925 H 101.47268 V 120.54884 H 82.351703 c -3.545266,0 -3.356099,-2.32125 -3.220604,-3.28494 l 6.219673,-41.291902 c 0.467245,-3.032995 0.3037,-4.599073 4.505226,-4.599073 z m 23.233362,0 h -11.61668 v 49.175915 h 19.12098 c 3.54526,0 3.3561,-2.32125 3.2206,-3.28494 l -6.21967,-41.291902 c -0.46725,-3.032995 -0.3037,-4.599073 -4.50523,-4.599073 z"
       inkscape:path-effect="#path-effect8"
       inkscape:original-d="M 89.855998,71.372925 H 101.47268 V 120.54884 H 82.351703 c -3.545266,0 -3.356099,-2.32125 -3.220604,-3.28494 l 6.219673,-41.291902 c 0.467245,-3.032995 0.3037,-4.599073 4.505226,-4.599073 z"
       sodipodi:nodetypes="ccccccc"
       transform="translate(28.27732)" />
  </g>
  <rect
     style="fill:#71a372;stroke:none;stroke-width:13.0314;stroke-linecap:round;stroke-dasharray:264.854"
     id="rect8"
     width="29.610096"
     height="10.16466"
     x="114.94495"
     y="106.68473"
     rx="1.4705244"
     ry="5.0823302" />
  <g
     id="g2"
     inkscape:label="winrar">
    <path
       id="rect1-1"
       style="display:inline;fill:#ff837d;stroke-width:0.126996;stroke-linecap:round;stroke-linejoin:round;stroke-dashoffset:135.5"
       d="m 26.073032,98.038953 h 70.73217 c 0.85607,6.827687 0.75996,13.655377 0,20.483067 h -70.73217 c -0.665587,-6.78015 -0.666249,-13.60779 0,-20.483067 z"
       sodipodi:nodetypes="ccccc" />
    <path
       id="path8"
       style="display:inline;fill:#9abeff;stroke-width:0.126997;stroke-linecap:round;stroke-linejoin:round;stroke-dashoffset:135.5"
       d="m 26.073034,118.52204 h 70.732498 c 0.85608,6.82772 0.75997,13.65544 0,20.48316 H 26.073034 c -0.66559,-6.78018 -0.666252,-13.60785 0,-20.48316 z"
       sodipodi:nodetypes="ccccc" />
    <path
       id="path9"
       style="display:inline;fill:#98dc9a;stroke-width:0.126997;stroke-linecap:round;stroke-linejoin:round;stroke-dashoffset:135.5"
       d="m 26.073034,139.0052 h 70.732498 c 0.85608,6.82772 0.75997,13.65544 0,20.48316 H 26.073034 c -0.66559,-6.78017 -0.666252,-13.60785 0,-20.48316 z"
       sodipodi:nodetypes="ccccc" />
    <rect
       style="display:inline;fill:#f8c18c;stroke:none;stroke-width:0.126996;stroke-linecap:round;stroke-linejoin:round;stroke-dashoffset:135.5"
       id="rect9"
       width="20.40563"
       height="64.213524"
       x="51.290028"
       y="96.827621"
       ry="1.7480344" />
    <rect
       style="fill:#d3b69a;stroke:none;stroke-width:0.126996;stroke-linecap:round;stroke-linejoin:round;stroke-dashoffset:135.5"
       id="rect10"
       width="21.895693"
       height="8.4253016"
       x="50.544994"
       y="109.33995"
       ry="1.1930736" />
    <path
       style="fill:#ffffff;stroke:none;stroke-width:0.126996;stroke-linecap:round;stroke-linejoin:round;stroke-dashoffset:135.5"
       d="m 59.723817,141.37628 h 3.481111 l 0.756766,-6.65952 c 0.465214,-3.91709 -5.409957,-3.77321 -5.045092,0 z"
       id="path10"
       sodipodi:nodetypes="ccccc" />
    <path
       style="fill:#ffffff;stroke:none;stroke-width:0.126996;stroke-linecap:round;stroke-linejoin:round;stroke-dashoffset:135.5"
       d="m 50.088469,122.8107 c -0.579807,0 -1.103219,0.36185 -1.16069,1.36206 l -0.60584,17.30403 c 0,1.54981 1.169558,4.03606 3.985929,4.03606 h 9.185258 9.184396 c 2.816371,0 3.98592,-2.48625 3.98592,-4.03606 l -0.605835,-17.30403 c -0.05747,-1.00021 -0.580016,-1.36206 -1.159823,-1.36206 h -1.210817 l -0.05099,15.1097 c 0.02872,1.14625 -0.474435,1.79073 -1.412187,1.79073 l -8.730665,0.12186 -8.731527,-0.12186 c -0.937752,0 -1.440905,-0.64448 -1.412187,-1.79073 l -0.05013,-15.1097 z"
       id="path11"
       sodipodi:nodetypes="cccccccccc" />
  </g>
</svg>
