<?xml version="1.0" encoding="UTF-8" standalone="no"?>
<svg
   width="192"
   height="192"
   version="1.1"
   viewBox="0 0 192 192"
   id="svg1"
   sodipodi:docname="application-x-rpm.svg"
   inkscape:version="1.4.4 (dcaf3e7d9e, 2026-05-05)"
   xmlns:inkscape="http://www.inkscape.org/namespaces/inkscape"
   xmlns:sodipodi="http://sodipodi.sourceforge.net/DTD/sodipodi-0.dtd"
   xmlns="http://www.w3.org/2000/svg"
   xmlns:svg="http://www.w3.org/2000/svg">
  <defs
     id="defs1">
    <inkscape:path-effect
       effect="mirror_symmetry"
       start_point="101.47268,71.372924"
       end_point="101.47268,120.54884"
       center_point="101.47268,95.960882"
       id="path-effect8"
       is_visible="true"
       lpeversion="1.2"
       lpesatellites=""
       mode="free"
       discard_orig_path="false"
       fuse_paths="false"
       oposite_fuse="false"
       split_items="false"
       split_open="false"
       link_styles="false" />
    <inkscape:path-effect
       effect="mirror_symmetry"
       start_point="101.47268,71.372925"
       end_point="101.47268,120.54884"
       center_point="101.47268,95.960882"
       id="path-effect7"
       is_visible="true"
       lpeversion="1.2"
       lpesatellites=""
       mode="free"
       discard_orig_path="false"
       fuse_paths="false"
       oposite_fuse="false"
       split_items="false"
       split_open="false"
       link_styles="false" />
  </defs>
  <sodipodi:namedview
     id="namedview1"
     pagecolor="#ffffff"
     bordercolor="#000000"
     borderopacity="0.25"
     inkscape:showpageshadow="2"
     inkscape:pageopacity="0.0"
     inkscape:pagecheckerboard="0"
     inkscape:deskcolor="#d1d1d1"
     inkscape:zoom="2.8284271"
     inkscape:cx="80.079843"
     inkscape:cy="107.12668"
     inkscape:window-width="1920"
     inkscape:window-height="1048"
     inkscape:window-x="0"
     inkscape:window-y="0"
     inkscape:window-maximized="1"
     inkscape:current-layer="svg1" />
  <rect
     x="20"
     y="20"
     width="152"
     height="152"
     rx="10"
     style="fill-rule:evenodd;fill:#ba6561"
     id="rect1" />
  <path
     class="a737459c-e8c7-4afa-8008-f6cfd15ccda2"
     d="m 77.881599,136.03557 c 5.318448,0 13.019558,-1.10623 13.019558,-7.44582 a 8.3095414,8.3095414 0 0 0 -0.12764,-1.44662 l -3.14852,-13.78541 c -0.72331,-3.02088 -1.36153,-4.42495 -6.67997,-7.0629 -4.127117,-2.12738 -13.104656,-5.57373 -15.785154,-5.57373 -2.510307,0 -3.233615,3.19106 -6.169398,3.19106 -2.850688,0 -4.935519,-2.38266 -7.616016,-2.38266 -2.552855,0 -4.21221,1.74445 -5.488637,5.31845 0,0 -3.573997,10.08377 -4.04202,11.57293 a 2.6166759,2.6166759 0 0 0 -0.0851,0.80841 c -0.04255,3.91438 15.402222,16.76374 36.122892,16.80629 m 13.827953,-4.85042 c 0.72331,3.4889 0.72331,3.87183 0.72331,4.2973 0,5.95666 -6.67996,9.27538 -15.48731,9.27538 -19.912266,0 -37.314224,-11.65804 -37.314224,-19.35915 a 7.8074801,7.8074801 0 0 1 0.638214,-3.10598 c -7.147993,0.34038 -16.423364,1.61681 -16.423364,9.78595 0,13.40248 31.740491,29.91094 56.843561,29.91094 19.274053,0 24.124476,-8.72225 24.124476,-15.61496 0,-5.40354 -4.68024,-11.53039 -13.104663,-15.18948"
     id="path8"
     inkscape:connector-curvature="0"
     style="fill:#ff837d;stroke-width:0.425476" />
  <path
     d="m 91.709557,131.18515 c 0.72331,3.4889 0.72331,3.87183 0.72331,4.2973 0,5.95666 -6.67997,9.27538 -15.487315,9.27538 -19.912266,0 -37.314224,-11.65804 -37.314224,-19.35915 a 7.8074801,7.8074801 0 0 1 0.638214,-3.10598 l 1.57426,-3.87183 a 2.6166759,2.6166759 0 0 0 -0.0851,0.80841 c 0,3.91438 15.44477,16.76374 36.122892,16.76374 5.318453,0 13.019563,-1.10623 13.019563,-7.44582 a 8.3095414,8.3095414 0 0 0 -0.12764,-1.44662 z"
     id="path10"
     inkscape:connector-curvature="0"
     style="stroke-width:0.425476;fill:#56595b" />
  <g
     id="g1"
     inkscape:label="gray zip">
    <rect
       style="fill:#d8d8d8;stroke:none;stroke-width:19.7495;stroke-linecap:round;stroke-dasharray:401.398"
       id="rect2"
       width="10"
       height="10"
       x="119.75"
       y="20"
       rx="0" />
    <rect
       style="fill:#d8d8d8;stroke:none;stroke-width:19.7495;stroke-linecap:round;stroke-dasharray:401.398"
       id="rect3"
       width="10"
       height="10"
       x="129.75"
       y="29.999523"
       rx="0" />
    <rect
       style="fill:#d8d8d8;stroke:none;stroke-width:19.7495;stroke-linecap:round;stroke-dasharray:401.398"
       id="rect4"
       width="10"
       height="10"
       x="119.75"
       y="39.999523"
       rx="0" />
    <rect
       style="fill:#d8d8d8;stroke:none;stroke-width:19.7495;stroke-linecap:round;stroke-dasharray:401.398"
       id="rect5"
       width="10"
       height="10"
       x="129.75"
       y="49.999523"
       rx="0" />
    <rect
       style="fill:#d8d8d8;stroke:none;stroke-width:19.7495;stroke-linecap:round;stroke-dasharray:401.398"
       id="rect6"
       width="10"
       height="10"
       x="119.75"
       y="59.999523"
       rx="0" />
    <path
       id="rect7"
       style="fill:#d8d8d8;stroke-width:12.1506;stroke-linecap:round;stroke-dasharray:246.954"
       d="M 89.855998,71.372925 H 101.47268 V 120.54884 H 82.351703 c -3.545266,0 -3.356099,-2.32125 -3.220604,-3.28494 l 6.219673,-41.291902 c 0.467245,-3.032995 0.3037,-4.599073 4.505226,-4.599073 z m 23.233362,0 h -11.61668 v 49.175915 h 19.12098 c 3.54526,0 3.3561,-2.32125 3.2206,-3.28494 l -6.21967,-41.291902 c -0.46725,-3.032995 -0.3037,-4.599073 -4.50523,-4.599073 z"
       inkscape:path-effect="#path-effect8"
       inkscape:original-d="M 89.855998,71.372925 H 101.47268 V 120.54884 H 82.351703 c -3.545266,0 -3.356099,-2.32125 -3.220604,-3.28494 l 6.219673,-41.291902 c 0.467245,-3.032995 0.3037,-4.599073 4.505226,-4.599073 z"
       sodipodi:nodetypes="ccccccc"
       transform="translate(28.27732)" />
  </g>
  <rect
     style="fill:#ba6561;stroke:none;stroke-width:13.0314;stroke-linecap:round;stroke-dasharray:264.854"
     id="rect8"
     width="29.610096"
     height="10.16466"
     x="114.94495"
     y="106.68473"
     rx="1.4705244"
     ry="5.0823302" />
</svg>
