<?xml version="1.0" encoding="UTF-8" standalone="no"?>
<svg
   width="192"
   height="192"
   version="1.1"
   viewBox="0 0 192 192"
   id="svg2"
   sodipodi:docname="application-wps-office.xls.svg"
   inkscape:version="1.4.4 (dcaf3e7d9e, 2026-05-05)"
   xmlns:inkscape="http://www.inkscape.org/namespaces/inkscape"
   xmlns:sodipodi="http://sodipodi.sourceforge.net/DTD/sodipodi-0.dtd"
   xmlns="http://www.w3.org/2000/svg"
   xmlns:svg="http://www.w3.org/2000/svg">
  <defs
     id="defs2" />
  <sodipodi:namedview
     id="namedview2"
     pagecolor="#ffffff"
     bordercolor="#000000"
     borderopacity="0.25"
     inkscape:showpageshadow="2"
     inkscape:pageopacity="0.0"
     inkscape:pagecheckerboard="true"
     inkscape:deskcolor="#d1d1d1"
     inkscape:zoom="4.3854167"
     inkscape:cx="92.237529"
     inkscape:cy="73.881234"
     inkscape:window-width="1920"
     inkscape:window-height="1048"
     inkscape:window-x="0"
     inkscape:window-y="0"
     inkscape:window-maximized="1"
     inkscape:current-layer="svg2" />
  <path
     d="m33 18.996c0-5.5205 4.4729-9.9958 10.001-9.9958h80.821l35.178 35v129c0 5.5209-4.4844 9.9965-9.9923 9.9965h-106.02c-5.5186 0-9.9923-4.476-9.9923-9.9958z"
     style="fill-rule:evenodd;fill:#ececec"
     id="path1" />
  <path
     d="m120 13.998c0-5.5218 3.1644-6.8337 7.0694-2.9287l29.861 29.861c3.9043 3.9043 2.5878 7.0694-2.9287 7.0694h-24.004c-5.5218 0-9.998-4.4815-9.998-9.998z"
     style="fill-rule:evenodd;fill:#a0a5af"
     id="path2" />
  <path
     id="rect1"
     style="fill:#71a372;stroke-width:6.32991;stroke-linecap:round"
     d="m 77.113142,61.397773 50.445998,1.99e-4 c 6.60419,2.6e-5 10.92058,4.3168 10.92058,10.921 v 74.450998 c 0,6.6042 -4.31639,10.92066 -10.92058,10.92066 H 77.113142 c -11.035941,0 -16.921026,-5.7211 -16.921,-16.92066 l 1.45e-4,-62.450998 c 2.5e-5,-10.829643 4.952255,-16.921246 16.920855,-16.921199 z"
     sodipodi:nodetypes="sssssssss" />
  <path
     id="path3"
     style="fill:#73ada4;stroke-width:6.32991;stroke-linecap:round"
     d="m 77.113142,97.999808 31.995158,-2.4e-4 c 6.60419,-5e-5 -9.77301,0.605592 -9.77301,8.513032 l 0,14.13641 c 0,6.6042 -4.31639,10.9208 -10.92058,10.9208 H 77.113142 c -11.035943,0 -16.921252,1.16234 -16.921,-10.03722 l 1.45e-4,-6.45078 c 2.43e-4,-10.82964 4.952255,-17.081912 16.920855,-17.082002 z"
     sodipodi:nodetypes="sssssssss" />
  <path
     id="path4"
     style="fill:#96dfd3;stroke-width:6.32991;stroke-linecap:round"
     d="m 77.046734,61.397773 31.580846,1.99e-4 c 6.60419,4.2e-5 10.92058,4.3168 10.92058,10.921 v 19.467627 c 0,6.604203 -4.31642,7.777515 -10.92058,7.756373 l -31.480071,-0.10078 c -11.035885,-0.03533 -17.00162,6.835438 -17.00162,16.244398 0,9.40896 -0.02001,-37.367618 -0.02001,-37.367618 -0.0058,-10.829641 4.952255,-16.921274 16.920855,-16.921199 z"
     sodipodi:nodetypes="sssssszss" />
  <rect
     style="fill:#98dc9a;stroke:none;stroke-width:6.01481;stroke-linecap:round"
     id="rect4"
     width="39.67696"
     height="39.67696"
     x="43.200886"
     y="111.59647"
     rx="10.740741" />
  <text
     xml:space="preserve"
     style="font-style:normal;font-variant:normal;font-weight:normal;font-stretch:normal;font-size:43.5611px;font-family:Sans;-inkscape-font-specification:Sans;writing-mode:lr-tb;direction:ltr;fill:#9abeff;stroke:none;stroke-width:0.762316;stroke-linecap:round"
     x="48.150318"
     y="147.31306"
     id="text4"><tspan
       sodipodi:role="line"
       id="tspan4"
       x="48.150318"
       y="147.31306"
       style="font-style:normal;font-variant:normal;font-weight:normal;font-stretch:normal;font-family:Sans;-inkscape-font-specification:Sans;fill:#ffffff;stroke-width:0.762316">X</tspan></text>
  <rect
     style="fill:#98dc9a;stroke-width:5.69281;stroke-linecap:round"
     id="rect5"
     width="41.387173"
     height="38.175209"
     x="97.026131"
     y="61.397774"
     rx="10" />
</svg>
