<?xml version="1.0" encoding="UTF-8" standalone="no"?>
<svg
   viewBox="0 0 192 192"
   version="1.1"
   id="svg3"
   sodipodi:docname="deadlock.svg"
   inkscape:version="1.4.4 (dcaf3e7d9e, 2026-05-05)"
   xml:space="preserve"
   xmlns:inkscape="http://www.inkscape.org/namespaces/inkscape"
   xmlns:sodipodi="http://sodipodi.sourceforge.net/DTD/sodipodi-0.dtd"
   xmlns="http://www.w3.org/2000/svg"
   xmlns:svg="http://www.w3.org/2000/svg"><defs
     id="defs1"><inkscape:path-effect
       effect="copy_rotate"
       starting_point="0,0"
       origin="96,96"
       id="path-effect10"
       is_visible="true"
       lpeversion="1.2"
       lpesatellites=""
       method="normal"
       num_copies="2"
       starting_angle="0"
       rotation_angle="90"
       gap="-0.01"
       copies_to_360="true"
       mirror_copies="false"
       split_items="false"
       link_styles="false" /><inkscape:path-effect
       effect="copy_rotate"
       starting_point="0,0"
       origin="96,96"
       id="path-effect7"
       is_visible="true"
       lpeversion="1.2"
       lpesatellites=""
       method="normal"
       num_copies="4"
       starting_angle="0"
       rotation_angle="90"
       gap="-0.01"
       copies_to_360="true"
       mirror_copies="false"
       split_items="false"
       link_styles="false" /></defs><sodipodi:namedview
     id="namedview3"
     pagecolor="#505050"
     bordercolor="#ffffff"
     borderopacity="1"
     inkscape:showpageshadow="0"
     inkscape:pageopacity="0"
     inkscape:pagecheckerboard="1"
     inkscape:deskcolor="#505050"
     inkscape:zoom="4"
     inkscape:cx="88.625"
     inkscape:cy="105"
     inkscape:window-width="1920"
     inkscape:window-height="1048"
     inkscape:window-x="0"
     inkscape:window-y="0"
     inkscape:window-maximized="1"
     inkscape:current-layer="svg3"
     showgrid="false" /><circle
     class="a"
     cx="96"
     cy="96"
     r="88"
     id="circle1"
     style="opacity:1;stroke:none;fill:#fcecdc" /><circle
     class="a"
     cx="95.98893"
     cy="95.98893"
     r="75.073448"
     id="circle3"
     style="opacity:1;fill:none;stroke:#8e6f60;stroke-width:3;stroke-dasharray:none"
     inkscape:label="haircross?" /><path
     id="path5"
     style="baseline-shift:baseline;display:inline;overflow:visible;opacity:1;vector-effect:none;fill:#8e6f60;stroke-linecap:round;stroke-linejoin:bevel;stroke-dashoffset:16.6;enable-background:accumulate;stop-color:#000000;stop-opacity:1"
     d="M 97.5,8.0136719 C 97.000048,8.0048531 96.50003,8.0002956 96,8 c -0.50003,2.956e-4 -1.000048,0.00485 -1.5,0.013672 V 183.98633 c 0.499952,0.009 0.99997,0.0134 1.5,0.0137 0.50003,-3e-4 1.000048,-0.005 1.5,-0.0137 z M 8.0136719,94.5 C 8.0048531,94.999952 8.0002956,95.49997 8,96 c 2.956e-4,0.50003 0.00485,1.000048 0.013672,1.5 H 183.98633 c 0.009,-0.499952 0.0134,-0.99997 0.0137,-1.5 -3e-4,-0.50003 -0.005,-1.000048 -0.0137,-1.5 z"
     inkscape:label="cardinal"
     inkscape:path-effect="#path-effect10"
     inkscape:original-d="M 97.5,8.0136719 A 88,88 0 0 0 96,8 88,88 0 0 0 94.5,8.0136719 V 183.98633 A 88,88 0 0 0 96,184 a 88,88 0 0 0 1.5,-0.0137 z" /><path
     style="fill:#8e6f60;stroke:none;stroke-width:4;stroke-linecap:round;stroke-linejoin:bevel;stroke-dasharray:none;stroke-dashoffset:16.6"
     d="m 141.63838,142.93727 -46.163053,-46.16305 2.131501,-2.1315 46.110672,46.11067 c 2.46495,2.46495 5.69132,2.82062 9.35562,2.44127 -2.04127,3.45123 -4.63491,6.65694 -8.71633,8.93117 0.32966,-2.80051 -0.45765,-6.9278 -2.71841,-9.18856 z M 142.93727,50.36162 96.77422,96.524673 94.64272,94.393172 140.75339,48.2825 c 2.46495,-2.46495 2.82062,-5.69132 2.44127,-9.35562 3.45123,2.04127 6.65694,4.63491 8.93117,8.71633 -2.80051,-0.32966 -6.9278,0.45765 -9.18856,2.71841 z M 50.36162,49.06273 96.524673,95.22578 94.393172,97.35728 48.2825,51.24661 c -2.46495,-2.46495 -5.69132,-2.82062 -9.35562,-2.44127 2.04127,-3.45123 4.63491,-6.65694 8.71633,-8.93117 -0.32966,2.80051 0.45765,6.9278 2.71841,9.18856 z m -1.29889,92.57565 46.16305,-46.163053 2.1315,2.131501 -46.11067,46.110672 c -2.46495,2.46495 -2.82062,5.69132 -2.44127,9.35562 -3.45123,-2.04127 -6.65694,-4.63491 -8.93117,-8.71633 2.80051,0.32966 6.9278,-0.45765 9.18856,-2.71841 z"
     id="path7"
     sodipodi:nodetypes="sccsccs"
     inkscape:path-effect="#path-effect7"
     inkscape:original-d="m 141.63838,142.93727 -46.163053,-46.16305 2.131501,-2.1315 46.110672,46.11067 c 2.46495,2.46495 5.69132,2.82062 9.35562,2.44127 -2.04127,3.45123 -4.63491,6.65694 -8.71633,8.93117 0.32966,-2.80051 -0.45765,-6.9278 -2.71841,-9.18856 z"
     inkscape:label="diagonals" /><path
     style="fill:#8e6f60;stroke:none;stroke-width:3;stroke-linecap:round;stroke-linejoin:bevel;stroke-dasharray:none;stroke-dashoffset:16.6"
     d="m 40,96 c 11.809009,9.15448 31.25615,28.99065 56,28.99065 24.74385,0 41.80382,-18.19099 56,-28.99065 C 137.36184,85.48538 116.97836,67.0088 96,67.0088 75.021636,67.0088 55.117646,85.169939 40,96 Z"
     id="path10"
     sodipodi:nodetypes="czczc"
     inkscape:label="eye" /><circle
     class="a"
     cx="96"
     cy="96"
     r="16.601894"
     id="circle4"
     style="display:inline;opacity:1;fill:none;stroke:#fcecdc;stroke-width:9;stroke-dasharray:none"
     inkscape:label="center eye" /></svg>
